<svg xmlns="http://www.w3.org/2000/svg" width="28.026" height="22.235" viewBox="0 0 28.026 22.235">
  <path id="Vector-2" d="M7.371,11.325a3.991,3.991,0,0,0,3.685-4.247A3.991,3.991,0,0,0,7.371,2.831,3.991,3.991,0,0,0,3.685,7.078,3.991,3.991,0,0,0,7.371,11.325ZM22.112,2.831H14.742a2.672,2.672,0,0,0-2.457,2.831v7.078H2.457V1.416A1.336,1.336,0,0,0,1.228,0,1.336,1.336,0,0,0,0,1.416v18.4a1.336,1.336,0,0,0,1.228,1.416,1.336,1.336,0,0,0,1.228-1.416V16.988H24.569v2.831a1.241,1.241,0,1,0,2.457,0V8.494C27.026,5.365,24.827,2.831,22.112,2.831Z" transform="translate(0.5 0.5)" fill="none" stroke="#5e59ed" stroke-width="1"/>
</svg>
