<svg xmlns="http://www.w3.org/2000/svg" width="12" height="19" viewBox="0 0 12 19">
  <g id="Vector-3" fill="#fff">
    <path d="M 7.333330154418945 18.5 C 7.284669876098633 18.5 7.238329887390137 18.48250007629395 7.206200122833252 18.45199966430664 C 7.180650234222412 18.42775917053223 7.166669845581055 18.3976993560791 7.166669845581055 18.36720085144043 L 7.166669845581055 14.56260013580322 L 7.166669845581055 14.06260013580322 L 6.666669845581055 14.06260013580322 L 5.333330154418945 14.06260013580322 L 4.833330154418945 14.06260013580322 L 4.833330154418945 14.56260013580322 L 4.833330154418945 18.36720085144043 C 4.833330154418945 18.3976993560791 4.819349765777588 18.42775917053223 4.793970108032227 18.45183944702148 C 4.761670112609863 18.48250007629395 4.715330123901367 18.5 4.666669845581055 18.5 C 4.618000030517578 18.5 4.571660041809082 18.48250007629395 4.539519786834717 18.45199012756348 C 4.513979911804199 18.42777061462402 4.5 18.3976993560791 4.5 18.36720085144043 L 4.5 9.643650054931641 L 4.5 8.100259780883789 L 3.594980001449585 9.350460052490234 L 2.88031005859375 10.3377103805542 C 2.875740051269531 10.34397029876709 2.868799924850464 10.35120010375977 2.859639883041382 10.35888004302979 L 0.7871999740600586 12.12956047058105 C 0.7563599944114685 12.15587997436523 0.7129499912261963 12.17109966278076 0.6683700084686279 12.17109966278076 C 0.6417988538742065 12.17109966278076 0.5982001423835754 12.16656970977783 0.5594062805175781 12.14026355743408 C 0.5522086024284363 12.12781429290771 0.5437827110290527 12.11408996582031 0.5340999960899353 12.09978008270264 L 0.4999802708625793 12.04936027526855 L 0.4999804794788361 11.98835563659668 L 0.9914100170135498 11.56859016418457 L 2.555409908294678 10.23266983032227 L 2.600840091705322 10.19386005401611 L 2.635849952697754 10.1454496383667 L 4.480889320373535 7.593785762786865 C 4.495088577270508 7.581937313079834 4.512086868286133 7.566957473754883 4.530159950256348 7.548830032348633 L 4.534460067749023 7.544509887695312 L 4.538660049438477 7.540090084075928 C 4.55846643447876 7.519225597381592 4.586002826690674 7.503242492675781 4.616538047790527 7.494824886322021 C 4.623976707458496 7.493083477020264 4.631307601928711 7.491291046142578 4.638599872589111 7.489480018615723 L 4.642123699188232 7.488620281219482 L 4.642640113830566 7.488550186157227 L 4.654079914093018 7.486460208892822 C 4.683034420013428 7.481153011322021 4.708326816558838 7.47455358505249 4.728485107421875 7.468689918518066 L 7.246026992797852 7.468689918518066 C 7.268355846405029 7.475196838378906 7.296496391296387 7.482400894165039 7.329170227050781 7.487840175628662 L 7.333061218261719 7.488490104675293 L 7.334310054779053 7.488830089569092 C 7.348184585571289 7.492647171020508 7.362051010131836 7.496338844299316 7.375970840454102 7.499672412872314 C 7.397652626037598 7.505521774291992 7.417414665222168 7.515625953674316 7.43326997756958 7.528979778289795 L 7.437849998474121 7.532839775085449 L 7.442530155181885 7.536590099334717 C 7.447229385375977 7.540361881256104 7.451729297637939 7.544381141662598 7.455924510955811 7.548568248748779 C 7.474466800689697 7.56788969039917 7.492156505584717 7.583820819854736 7.507321834564209 7.596538066864014 L 9.372509956359863 10.14523983001709 L 9.407890319824219 10.19357967376709 L 9.453680038452148 10.23219966888428 L 11.01097965240479 11.54535007476807 L 11.5 11.95769786834717 L 11.5 12.04916572570801 L 11.47078037261963 12.08959007263184 C 11.46328735351562 12.09995651245117 11.45654487609863 12.10999965667725 11.45054626464844 12.11941623687744 C 11.44098663330078 12.12606048583984 11.43050575256348 12.13184547424316 11.41938018798828 12.13658046722412 C 11.39659976959229 12.14624977111816 11.37038040161133 12.15149974822998 11.34420013427734 12.15149974822998 C 11.309889793396 12.15149974822998 11.26259994506836 12.14455986022949 11.22366046905518 12.11149024963379 L 9.153300285339355 10.36281967163086 C 9.144120216369629 10.35509967803955 9.137029647827148 10.34755039215088 9.131170272827148 10.33950042724609 L 8.40349006652832 9.345199584960938 L 7.5 8.110690116882324 L 7.5 9.64048957824707 L 7.5 18.36720085144043 C 7.5 18.3976993560791 7.486020088195801 18.42777061462402 7.460619926452637 18.45186042785645 C 7.428339958190918 18.48250007629395 7.381999969482422 18.5 7.333330154418945 18.5 Z M 5.998670101165771 5.843460083007812 C 5.686739921569824 5.843460083007812 5.382649898529053 5.724629878997803 5.164390087127686 5.517449855804443 C 5.057610034942627 5.41609001159668 4.974430084228516 5.298130035400391 4.917140007019043 5.166850090026855 C 4.860640048980713 5.037380218505859 4.831999778747559 4.900969982147217 4.831999778747559 4.761390209197998 C 4.831999778747559 4.477310180664062 4.950049877166748 4.208799839019775 5.164390087127686 4.005330085754395 C 5.382659912109375 3.798150062561035 5.686739921569824 3.679320096969604 5.998670101165771 3.679320096969604 C 6.310599803924561 3.679320096969604 6.61467981338501 3.798150062561035 6.832950115203857 4.005340099334717 C 7.047289848327637 4.208799839019775 7.165329933166504 4.47730016708374 7.165329933166504 4.761390209197998 C 7.165329933166504 4.900969982147217 7.136690139770508 5.037390232086182 7.0802001953125 5.166860103607178 C 7.02292013168335 5.298120021820068 6.939730167388916 5.416079998016357 6.832940101623535 5.517449855804443 C 6.724259853363037 5.620610237121582 6.59660005569458 5.701449871063232 6.453519821166992 5.757699966430664 C 6.308800220489502 5.814610004425049 6.155769824981689 5.843460083007812 5.998670101165771 5.843460083007812 Z" stroke="none"/>
    <path d="M 5.998670101165771 4.179320335388184 C 5.813539981842041 4.179320335388184 5.634920120239258 4.248080253601074 5.50862979888916 4.36797046661377 C 5.394730091094971 4.476090431213379 5.331999778747559 4.615810394287109 5.331999778747559 4.76138973236084 C 5.331999778747559 4.831729888916016 5.34660005569458 4.900859832763672 5.375410079956055 4.966879844665527 C 5.405799865722656 5.036520004272461 5.450620174407959 5.099749565124512 5.50862979888916 5.154809951782227 C 5.634920120239258 5.274700164794922 5.813539981842041 5.343460083007812 5.998670101165771 5.343460083007812 C 6.092879772186279 5.343460083007812 6.18435001373291 5.326279640197754 6.270579814910889 5.292369842529297 C 6.353509902954102 5.259770393371582 6.426909923553467 5.213479995727539 6.488709926605225 5.154820442199707 C 6.546720027923584 5.099749565124512 6.591539859771729 5.036520004272461 6.621920108795166 4.966899871826172 C 6.650730133056641 4.900879859924316 6.665329933166504 4.831740379333496 6.665329933166504 4.76138973236084 C 6.665329933166504 4.615799903869629 6.602610111236572 4.476079940795898 6.488729953765869 4.367980003356934 C 6.362420082092285 4.248080253601074 6.183800220489502 4.179320335388184 5.998670101165771 4.179320335388184 M 5 7.968689918518066 L 5 13.56260013580322 L 7 13.56260013580322 L 7 7.968689918518066 L 5 7.968689918518066 M 6 0 L 6 0.000629425048828125 C 9.308000564575195 0.000629425048828125 12 2.561050415039062 12 5.70872974395752 L 12 12.14209938049316 C 11.9995002746582 12.18840026855469 11.98810005187988 12.23400020599365 11.96660041809082 12.27560043334961 C 11.94519996643066 12.31719970703125 11.91419982910156 12.35370063781738 11.87600040435791 12.38249969482422 C 11.86270046234131 12.40089988708496 11.85599994659424 12.42300033569336 11.84000015258789 12.44009971618652 C 11.77760028839111 12.50679969787598 11.70100021362305 12.56010055541992 11.61530017852783 12.59659957885742 C 11.52950000762939 12.63299942016602 11.43660736083984 12.6516809463501 11.34270000457764 12.6515007019043 C 11.18470001220703 12.6515007019043 11.02670001983643 12.60020065307617 10.89999961853027 12.49259948730469 L 8.830670356750488 10.74479961395264 C 8.791379928588867 10.71179962158203 8.756460189819336 10.67440032958984 8.726670265197754 10.63339996337891 L 8 9.64048957824707 L 8 18.36720085144043 C 8 18.53499984741211 7.929759979248047 18.69599914550781 7.804739952087402 18.81459999084473 C 7.679709911346436 18.93330001831055 7.510139942169189 19 7.333330154418945 19 C 7.156519889831543 19 6.986949920654297 18.93330001831055 6.861929893493652 18.81459999084473 C 6.736899852752686 18.69599914550781 6.666669845581055 18.53499984741211 6.666669845581055 18.36720085144043 L 6.666669845581055 14.56260013580322 L 5.333330154418945 14.56260013580322 L 5.333330154418945 18.36720085144043 C 5.333330154418945 18.53499984741211 5.263100147247314 18.69599914550781 5.138070106506348 18.81459999084473 C 5.013050079345703 18.93330001831055 4.843480110168457 19 4.666669845581055 19 C 4.489860057830811 19 4.320290088653564 18.93330001831055 4.195260047912598 18.81459999084473 C 4.070240020751953 18.69599914550781 4 18.53499984741211 4 18.36720085144043 L 4 9.643650054931641 L 3.285329818725586 10.63090038299561 C 3.255330085754395 10.67199993133545 3.220669746398926 10.70870018005371 3.180669784545898 10.74219989776611 L 1.112000465393066 12.50969982147217 C 0.9897499084472656 12.61400032043457 0.8310127258300781 12.67151165008545 0.6666698455810547 12.67110061645508 C 0.4840002059936523 12.67110061645508 0.3026695251464844 12.60149955749512 0.1706695556640625 12.46229934692383 C 0.1466703414916992 12.43819999694824 0.1379995346069336 12.40659999847412 0.119999885559082 12.38000011444092 C 0.08288002014160156 12.35120010375977 0.05288982391357422 12.31500053405762 0.0321502685546875 12.27400016784668 C 0.01142024993896484 12.23299980163574 0.0004396438598632812 12.18819999694824 0 12.1427001953125 L 0 5.708100318908691 C 0 2.560419082641602 2.692000389099121 0 6 0 Z M 11.33329963684082 11.16309928894043 L 11.33329963684082 5.708100318908691 C 11.33329963684082 2.909109115600586 8.940670013427734 0.6328296661376953 6 0.6328296661376953 C 3.059329986572266 0.6328296661376953 0.6666698455810547 2.909109115600586 0.6666698455810547 5.708100318908691 L 0.6666698455810547 11.18840026855469 L 2.230669975280762 9.852479934692383 L 4.104000091552734 7.261690139770508 C 4.124000072479248 7.234479904174805 4.152669906616211 7.219289779663086 4.176000118255615 7.195879936218262 C 4.261829853057861 7.105449676513672 4.373449802398682 7.040599822998047 4.497330188751221 7.009189605712891 C 4.519999980926514 7.004130363464355 4.540669918060303 6.997799873352051 4.564000129699707 6.994640350341797 C 4.60200023651123 6.987680435180664 4.636670112609863 6.968689918518066 4.677330017089844 6.968689918518066 L 7.299330234527588 6.968689918518066 C 7.339330196380615 6.968689918518066 7.373330116271973 6.988309860229492 7.411330223083496 6.994640350341797 C 7.440670013427734 6.997799873352051 7.467999935150146 7.007929801940918 7.495999813079834 7.014260292053223 C 7.592120170593262 7.038570404052734 7.680920124053955 7.083860397338867 7.755330085754395 7.146519660949707 C 7.776480197906494 7.163479804992676 7.796520233154297 7.181659698486328 7.815330028533936 7.200940132141113 C 7.835330009460449 7.22245979309082 7.862669944763184 7.235110282897949 7.880000114440918 7.259160041809082 L 9.776000022888184 9.849949836730957 L 11.33329963684082 11.16309928894043 Z M 5.998670101165771 3.179320335388184 C 6.440690040588379 3.179320335388184 6.864620208740234 3.346010208129883 7.17717981338501 3.6427001953125 C 7.489739894866943 3.939399719238281 7.665329933166504 4.341799736022949 7.665329933166504 4.76138973236084 C 7.665329933166504 4.969149589538574 7.622220039367676 5.174880027770996 7.538469791412354 5.366820335388184 C 7.454710006713867 5.558770179748535 7.331940174102783 5.733169555664062 7.17717981338501 5.880080223083496 C 7.022409915924072 6.026989936828613 6.838679790496826 6.143529891967773 6.636469841003418 6.223030090332031 C 6.43425989151001 6.302539825439453 6.21753978729248 6.343460083007812 5.998670101165771 6.343460083007812 C 5.556640148162842 6.343460083007812 5.132719993591309 6.176779747009277 4.820159912109375 5.880080223083496 C 4.665390014648438 5.733169555664062 4.542630195617676 5.558770179748535 4.458869934082031 5.366820335388184 C 4.375110149383545 5.174880027770996 4.331999778747559 4.969149589538574 4.331999778747559 4.76138973236084 C 4.331999778747559 4.341799736022949 4.507599830627441 3.939399719238281 4.820159912109375 3.6427001953125 C 5.132719993591309 3.346010208129883 5.556640148162842 3.179320335388184 5.998670101165771 3.179320335388184 Z" stroke="none" fill="#5e59ed"/>
  </g>
</svg>
