<svg id="Group_1685" data-name="Group 1685" xmlns="http://www.w3.org/2000/svg" width="16.459" height="16.922" viewBox="0 0 16.459 16.922">
  <g id="Group_1275" data-name="Group 1275">
    <g id="Group_1272" data-name="Group 1272">
      <path id="Path_935" data-name="Path 935" d="M14.5,16.922H1.959A1.977,1.977,0,0,1,0,14.963v-13A1.977,1.977,0,0,1,1.959,0H14.5a1.977,1.977,0,0,1,1.959,1.959v13A1.954,1.954,0,0,1,14.5,16.922ZM1.959.891A1.05,1.05,0,0,0,.891,1.959v13a1.05,1.05,0,0,0,1.069,1.069H14.5a1.05,1.05,0,0,0,1.069-1.069v-13A1.05,1.05,0,0,0,14.5.891Z" fill="#5e59ed"/>
    </g>
    <g id="Group_1273" data-name="Group 1273" transform="translate(6.448 6.128)">
      <path id="Path_936" data-name="Path 936" d="M20.654,18.4a1.354,1.354,0,1,0,1.354,1.354A1.353,1.353,0,0,0,20.654,18.4Z" transform="translate(-18.872 -17.972)" fill="#5e59ed"/>
      <path id="Path_937" data-name="Path 937" d="M19.881,20.763A1.786,1.786,0,0,1,18.1,18.981a1.781,1.781,0,1,1,3.563,0A1.786,1.786,0,0,1,19.881,20.763Zm0-2.708a.891.891,0,1,0,.891.891A.882.882,0,0,0,19.881,18.055Z" transform="translate(-18.1 -17.2)" fill="#5e59ed"/>
    </g>
    <g id="Group_1274" data-name="Group 1274" transform="translate(4.631 10.688)">
      <path id="Path_938" data-name="Path 938" d="M19.009,31.3H15.732A1.543,1.543,0,0,0,14.2,32.832v3.812h6.306V32.832A1.513,1.513,0,0,0,19.009,31.3Z" transform="translate(-13.772 -30.837)" fill="#5e59ed"/>
      <path id="Path_939" data-name="Path 939" d="M20.2,36.234H13V31.959A1.977,1.977,0,0,1,14.959,30h3.278A1.977,1.977,0,0,1,20.2,31.959Zm-6.306-.891h5.415V31.959a1.05,1.05,0,0,0-1.069-1.069H14.959a1.05,1.05,0,0,0-1.069,1.069Z" transform="translate(-13 -30)" fill="#5e59ed"/>
    </g>
  </g>
  <g id="Group_1276" data-name="Group 1276" transform="translate(10.581 2.672)">
    <path id="Path_940" data-name="Path 940" d="M34.628,11.561a.433.433,0,0,1-.428-.428V7.928a.433.433,0,0,1,.428-.428.46.46,0,0,1,.428.428v3.206A.411.411,0,0,1,34.628,11.561Z" transform="translate(-32.597 -7.5)" fill="#5e59ed"/>
    <path id="Path_941" data-name="Path 941" d="M33.334,12.855H30.128a.433.433,0,0,1-.428-.428A.46.46,0,0,1,30.128,12h3.206a.428.428,0,1,1,0,.855Z" transform="translate(-29.7 -10.397)" fill="#5e59ed"/>
  </g>
</svg>
