<svg xmlns="http://www.w3.org/2000/svg" width="13.274" height="18.948" viewBox="0 0 13.274 18.948">
  <g id="Group_4151" data-name="Group 4151" transform="translate(-135 -21.4)">
    <path id="Path_1977" data-name="Path 1977" d="M147.476,89.7H144.7v0a.566.566,0,0,1-.564.564h-5a.566.566,0,0,1-.564-.564v0H135.8a.5.5,0,0,0-.5.5V105.86a.5.5,0,0,0,.5.5h11.679a.5.5,0,0,0,.5-.5V90.2A.5.5,0,0,0,147.476,89.7Z" transform="translate(0 -66.309)" fill="none" stroke="#5e59ed" stroke-linecap="round" stroke-linejoin="round" stroke-miterlimit="10" stroke-width="0.6"/>
    <path id="Path_1978" data-name="Path 1978" d="M267.659,22.831h1.559a.189.189,0,0,0,.189-.189v-.189a.753.753,0,1,1,1.507,0v.189a.189.189,0,0,0,.189.189h1.559a.564.564,0,1,1,0,1.129h-5a.566.566,0,0,1-.564-.564A.558.558,0,0,1,267.659,22.831Z" transform="translate(-128.522)" fill="none" stroke="#5e59ed" stroke-miterlimit="10" stroke-width="0.6"/>
    <path id="Path_1979" data-name="Path 1979" d="M222.31,446.7h8.454m-8.454,1.89h8.454m-8.454,1.89h8.454m-8.464,1.89h6.167" transform="translate(-84.837 -414.432)" fill="none" stroke="#5e59ed" stroke-linecap="round" stroke-linejoin="round" stroke-miterlimit="10" stroke-width="0.6"/>
    <circle id="Ellipse_331" data-name="Ellipse 331" cx="0.619" cy="0.619" r="0.619" transform="translate(144.689 37.333)" fill="none" stroke="#5e59ed" stroke-linecap="round" stroke-linejoin="round" stroke-miterlimit="10" stroke-width="0.6"/>
    <path id="Path_1980" data-name="Path 1980" d="M206.606,181.138l.455.922s0,0,0,0l1.019.149s.007.007,0,.012l-.736.719a.009.009,0,0,0,0,.007l.174,1.014s0,.01-.01.007l-.91-.48H206.6l-.91.48s-.012,0-.01-.007l.174-1.014a.009.009,0,0,0,0-.007l-.738-.721s0-.01,0-.012l1.019-.149a.005.005,0,0,0,0,0l.455-.922S206.6,181.133,206.606,181.138Zm-3.518,1.251.351.711s0,0,0,0l.783.114s0,0,0,.01l-.567.552s0,0,0,0l.134.781s0,.007-.007,0l-.7-.368h0l-.7.368s-.007,0-.007,0l.134-.781s0,0,0,0l-.567-.554a.006.006,0,0,1,0-.01l.783-.114s0,0,0,0l.351-.711A.006.006,0,0,1,203.087,182.389Zm7.037,0,.351.711s0,0,0,0l.783.114s0,0,0,.01l-.567.552s0,0,0,0l.134.781s0,.007-.007,0l-.7-.368h0l-.7.368s-.007,0-.007,0l.134-.781s0,0,0,0l-.567-.554a.006.006,0,0,1,0-.01l.783-.114s0,0,0,0l.351-.711A.006.006,0,0,1,210.124,182.389Z" transform="translate(-64.977 -155.47)" fill="none" stroke="#5e59ed" stroke-miterlimit="10" stroke-width="0.6"/>
  </g>
</svg>
