<svg xmlns="http://www.w3.org/2000/svg" width="17.6" height="14.692" viewBox="0 0 17.6 14.692">
  <g id="Layer_2" data-name="Layer 2" transform="translate(0.8 0.8)" fill="#fff">
    <path d="M 14.28575992584229 13.49162292480469 L 6.270860195159912 13.49162292480469 C 5.79810905456543 13.49004554748535 5.337977409362793 13.27657508850098 4.971518516540527 12.88998794555664 C 4.954296588897705 12.87558460235596 4.936707496643066 12.86230659484863 4.919060230255127 12.85039234161377 L 4.742859840393066 12.73145294189453 L 4.742859840393066 12.5188627243042 L 4.742859840393066 10.1820125579834 C 4.742859840393066 10.04859256744385 4.707230091094971 9.917912483215332 4.647550106048584 9.832462310791016 C 4.60867977142334 9.776812553405762 4.576189994812012 9.764002799987793 4.571410179138184 9.763782501220703 C 4.56663990020752 9.764012336730957 4.534130096435547 9.776872634887695 4.495319843292236 9.832452774047852 C 4.435629844665527 9.917912483215332 4.400000095367432 10.04859256744385 4.400000095367432 10.1820125579834 L 4.400000095367432 12.5188627243042 L 4.400000095367432 12.68999290466309 L 4.276229858398438 12.80817222595215 C 4.234879970550537 12.84765243530273 4.19536018371582 12.87400245666504 4.171750068664551 12.88974285125732 L 4.171350955963135 12.89001178741455 C 3.807319402694702 13.27583980560303 3.345934152603149 13.49041748046875 2.873019933700562 13.49162292480469 L 1.714280009269714 13.49162292480469 C 1.130480051040649 13.49162292480469 0.5691199898719788 13.16725254058838 0.1741500049829483 12.60168266296387 C -0.1960899978876114 12.07154273986816 -0.4000000059604645 11.37378215789795 -0.4000000059604645 10.63694286346436 L -0.4000000059604645 2.454682588577271 C -0.4000000059604645 1.717852592468262 -0.1960899978876114 1.020092606544495 0.1741600036621094 0.4899325966835022 C 0.5691199898719788 -0.0756273940205574 1.130480051040649 -0.3999973833560944 1.714280009269714 -0.3999973833560944 L 2.871999979019165 -0.3999973833560944 C 3.344780683517456 -0.3984106779098511 3.804903745651245 -0.1849396079778671 4.171342849731445 0.2016380429267883 C 4.188578128814697 0.2160557508468628 4.206138610839844 0.2293198108673096 4.223710060119629 0.2411726117134094 L 4.400000095367432 0.3601025938987732 L 4.400000095367432 0.5727626085281372 L 4.400000095367432 2.911242723464966 C 4.400000095367432 3.044662714004517 4.435629844665527 3.175342559814453 4.495309829711914 3.26079249382019 C 4.534130096435547 3.316382646560669 4.56663990020752 3.329242706298828 4.571430206298828 3.329472541809082 C 4.576189994812012 3.32925271987915 4.60867977142334 3.316442489624023 4.647540092468262 3.260802507400513 C 4.707230091094971 3.175342559814453 4.742859840393066 3.044662714004517 4.742859840393066 2.911242723464966 L 4.742859840393066 0.5727626085281372 L 4.742859840393066 0.4016326069831848 L 4.866630077362061 0.2834526002407074 C 4.907989978790283 0.2439725995063782 4.947509765625 0.2176226079463959 4.97111988067627 0.2018826007843018 L 4.971483707427979 0.2016375809907913 C 5.335524559020996 -0.1842194646596909 5.796905994415283 -0.3987919986248016 6.269839763641357 -0.3999973833560944 L 14.28575992584229 -0.3999973833560944 C 14.86954975128174 -0.3999973833560944 15.43089962005615 -0.0756273940205574 15.8258695602417 0.4899426102638245 C 16.19610023498535 1.02007257938385 16.39999961853027 1.717842578887939 16.39999961853027 2.454682588577271 L 16.39999961853027 10.63694286346436 C 16.39999961853027 11.37380218505859 16.19610023498535 12.07156276702881 15.82586002349854 12.60169219970703 C 15.43089962005615 13.16725254058838 14.86954975128174 13.49162292480469 14.28575992584229 13.49162292480469 Z M 4.571420669555664 5.218533992767334 C 4.566545963287354 5.218815803527832 4.534030437469482 5.231773853302002 4.495299816131592 5.287222385406494 C 4.435629844665527 5.372662544250488 4.400000095367432 5.503342628479004 4.400000095367432 5.636762619018555 L 4.400000095367432 7.454862594604492 C 4.400000095367432 7.588282585144043 4.435629844665527 7.718962669372559 4.495309829711914 7.804412841796875 C 4.534080028533936 7.859922409057617 4.566629886627197 7.872842788696289 4.57144021987915 7.873092651367188 C 4.576200008392334 7.872862815856934 4.608749866485596 7.859972476959229 4.647560119628906 7.804402828216553 C 4.707230091094971 7.718962669372559 4.742859840393066 7.588282585144043 4.742859840393066 7.454862594604492 L 4.742859840393066 5.636762619018555 C 4.742859840393066 5.503342628479004 4.707230091094971 5.372662544250488 4.647550106048584 5.287212371826172 C 4.608804702758789 5.231730461120605 4.576291561126709 5.218799114227295 4.571420669555664 5.218533992767334 Z" stroke="none"/>
    <path d="M 1.714280128479004 2.86102294921875e-06 C 1.25963020324707 2.86102294921875e-06 0.8235902786254883 0.2586126327514648 0.5020999908447266 0.7189626693725586 C 0.1806097030639648 1.179302215576172 0 1.803662300109863 0 2.454682350158691 L 0 10.63694286346436 C 0 11.28796291351318 0.1806097030639648 11.91233253479004 0.5020999908447266 12.37266254425049 C 0.8235902786254883 12.83300304412842 1.25963020324707 13.0916223526001 1.714280128479004 13.0916223526001 L 2.871999740600586 13.0916223526001 C 3.240889549255371 13.09068298339844 3.599590301513672 12.91841220855713 3.894280433654785 12.60069274902344 C 3.926859855651855 12.56633281707764 3.965720176696777 12.55159282684326 4 12.5188627243042 L 4 10.1820125579834 C 4 9.965012550354004 4.060199737548828 9.756882667541504 4.167369842529297 9.603432655334473 C 4.274530410766602 9.449982643127441 4.419870376586914 9.36378288269043 4.571419715881348 9.36378288269043 C 4.722979545593262 9.36378288269043 4.868330001831055 9.449982643127441 4.975489616394043 9.603432655334473 C 5.082659721374512 9.756882667541504 5.142860412597656 9.965012550354004 5.142860412597656 10.1820125579834 L 5.142860412597656 12.5188627243042 C 5.179120063781738 12.54333305358887 5.214409828186035 12.57065296173096 5.248579978942871 12.60069274902344 C 5.543359756469727 12.91814231872559 5.902009963989258 13.09039306640625 6.270859718322754 13.0916223526001 L 14.28575992584229 13.0916223526001 C 14.74036979675293 13.0916223526001 15.17642974853516 12.83300304412842 15.49792003631592 12.37266254425049 C 15.81941032409668 11.91233253479004 16 11.28796291351318 16 10.63694286346436 L 16 2.454682350158691 C 16 1.803662300109863 15.81941032409668 1.179302215576172 15.49792003631592 0.7189626693725586 C 15.17642974853516 0.2586126327514648 14.74036979675293 2.86102294921875e-06 14.28575992584229 2.86102294921875e-06 L 6.270859718322754 2.86102294921875e-06 C 5.901969909667969 0.000942230224609375 5.54325008392334 0.173213005065918 5.248579978942871 0.4909324645996094 C 5.215999603271484 0.5253028869628906 5.177140235900879 0.5400323867797852 5.142860412597656 0.5727624893188477 L 5.142860412597656 2.911242485046387 C 5.142860412597656 3.128252983093262 5.082659721374512 3.336372375488281 4.975489616394043 3.489822387695312 C 4.868330001831055 3.643272399902344 4.722979545593262 3.729472160339355 4.571419715881348 3.729472160339355 C 4.419870376586914 3.729472160339355 4.274530410766602 3.643272399902344 4.167369842529297 3.489822387695312 C 4.060199737548828 3.336372375488281 4 3.128252983093262 4 2.911242485046387 L 4 0.5727624893188477 C 3.963729858398438 0.5482826232910156 3.928449630737305 0.5209722518920898 3.894280433654785 0.4909324645996094 C 3.599499702453613 0.1734724044799805 3.240850448608398 0.001242637634277344 2.871999740600586 2.86102294921875e-06 L 1.714280128479004 2.86102294921875e-06 M 4.571419715881348 8.273092269897461 C 4.419870376586914 8.273092269897461 4.274530410766602 8.186872482299805 4.167369842529297 8.033442497253418 C 4.060199737548828 7.879992485046387 4 7.671862602233887 4 7.454862594604492 L 4 5.636762619018555 C 4 5.41976261138916 4.060199737548828 5.21163272857666 4.167369842529297 5.058182716369629 C 4.274530410766602 4.904752731323242 4.419870376586914 4.818532943725586 4.571419715881348 4.818532943725586 C 4.722979545593262 4.818532943725586 4.868330001831055 4.904752731323242 4.975489616394043 5.058182716369629 C 5.082659721374512 5.21163272857666 5.142860412597656 5.41976261138916 5.142860412597656 5.636762619018555 L 5.142860412597656 7.454862594604492 C 5.142860412597656 7.671862602233887 5.082659721374512 7.879992485046387 4.975489616394043 8.033442497253418 C 4.868330001831055 8.186872482299805 4.722979545593262 8.273092269897461 4.571419715881348 8.273092269897461 M 1.714280128479004 -0.7999973297119141 L 2.871999740600586 -0.7999973297119141 C 3.447836875915527 -0.798065185546875 4.002198219299316 -0.5480556488037109 4.441450119018555 -0.09462165832519531 C 4.443506240844727 -0.09312248229980469 4.445540428161621 -0.09169387817382812 4.447549819946289 -0.09033775329589844 L 4.583083152770996 0.001138687133789062 L 4.590410232543945 -0.005857467651367188 C 4.63591480255127 -0.04930591583251953 4.679391860961914 -0.08244705200195312 4.711920738220215 -0.1054487228393555 C 5.149559020996094 -0.5524663925170898 5.699833869934082 -0.7985429763793945 6.268819808959961 -0.7999973297119141 L 14.28575992584229 -0.7999973297119141 C 15.00207996368408 -0.7999973297119141 15.68295955657959 -0.4133071899414062 16.15381050109863 0.2609128952026367 C 16.57051086425781 0.8575830459594727 16.79999923706055 1.636682510375977 16.79999923706055 2.454682350158691 L 16.79999923706055 10.63694286346436 C 16.79999923706055 11.45495223999023 16.57051086425781 12.23405265808105 16.15379905700684 12.83072280883789 C 15.68295001983643 13.50493240356445 15.00207042694092 13.89162254333496 14.28575992584229 13.89162254333496 L 6.270859718322754 13.89162254333496 C 5.695061683654785 13.88970947265625 5.140676498413086 13.63968467712402 4.70140552520752 13.18624114990234 C 4.699363708496094 13.18475341796875 4.697343826293945 13.18333625793457 4.69534969329834 13.18199253082275 L 4.559768676757812 13.09049510955811 L 4.552450180053711 13.09748268127441 C 4.506939888000488 13.14092922210693 4.463460922241211 13.17407035827637 4.430935859680176 13.19707489013672 C 3.993288993835449 13.64408302307129 3.442997932434082 13.89016819000244 2.874039649963379 13.89162254333496 L 1.714280128479004 13.89162254333496 C 0.997960090637207 13.89162254333496 0.3170700073242188 13.50493240356445 -0.1537895202636719 12.83071231842041 C -0.5704994201660156 12.23403263092041 -0.7999992370605469 11.45493221282959 -0.7999992370605469 10.63694286346436 L -0.7999992370605469 2.454682350158691 C -0.7999992370605469 1.636702537536621 -0.5704994201660156 0.8576030731201172 -0.1537895202636719 0.2609128952026367 C 0.3170604705810547 -0.4133071899414062 0.9979496002197266 -0.7999973297119141 1.714280128479004 -0.7999973297119141 Z" stroke="none" fill="#5e59ed"/>
  </g>
</svg>
