<svg xmlns="http://www.w3.org/2000/svg" width="19.004" height="15.785" viewBox="0 0 19.004 15.785">
  <path id="Icon_ionic-ios-airplane" data-name="Icon ionic-ios-airplane" d="M17.343,11.169c-.137,0-.595,0-.723.012l-2.607.068a.074.074,0,0,1-.068-.036L10.035,5.36a.646.646,0,0,0-.542-.3H8.541c-.225,0-.3.225-.221.434l2.013,5.737a.079.079,0,0,1-.072.108l-4.918.072a.324.324,0,0,1-.265-.125L3.591,9.482a.638.638,0,0,0-.506-.245H2.41a.16.16,0,0,0-.153.213l.8,2.76a.655.655,0,0,1,0,.478l-.8,2.76a.16.16,0,0,0,.153.213h.671a.65.65,0,0,0,.506-.245L5.1,13.58a.329.329,0,0,1,.265-.125l4.889.108a.08.08,0,0,1,.072.108L8.316,19.413c-.08.209,0,.434.221.434h.952a.641.641,0,0,0,.542-.3l3.913-5.85a.079.079,0,0,1,.068-.036l2.607.068c.133.008.587.012.723.012,1.78,0,2.9-.575,2.9-1.286S19.127,11.169,17.343,11.169Z" transform="translate(-1.744 -4.563)" fill="#fff" stroke="#5e59ed" stroke-width="1"/>
</svg>
