<svg xmlns="http://www.w3.org/2000/svg" width="149.661" height="187.786" viewBox="0 0 149.661 187.786">
  <g id="Group_903" data-name="Group 903" transform="translate(-164 -99.001)">
    <path id="Path_710" data-name="Path 710" d="M-24.375-28.223H-59.852A10.142,10.142,0,0,1-70.006-38.328V-70.95A10.142,10.142,0,0,1-59.852-81.056h35.477A10.141,10.141,0,0,1-14.222-70.95v32.622A10.142,10.142,0,0,1-24.375-28.223m-35.477-45.84a3.122,3.122,0,0,0-3.126,3.112v32.622a3.122,3.122,0,0,0,3.126,3.112h35.477a3.123,3.123,0,0,0,3.126-3.112V-70.95a3.122,3.122,0,0,0-3.126-3.112Z" transform="translate(274.685 215.293)" fill="#5e59ed"/>
    <g id="Group_902" data-name="Group 902" transform="translate(236.762 177.631)">
      <path id="Path_711" data-name="Path 711" d="M-1.876-13.462a3.506,3.506,0,0,1-2.242-.807,3.485,3.485,0,0,1-.459-4.924L10.616-37.4a3.526,3.526,0,0,1,4.947-.456,3.486,3.486,0,0,1,.458,4.925L.83-14.724a3.515,3.515,0,0,1-2.706,1.263" transform="translate(5.388 38.662)" fill="#5e59ed"/>
    </g>
    <path id="Path_712" data-name="Path 712" d="M-5.375-30.627a10.118,10.118,0,0,1-10.053-9.863l-.008-.244v-10.5a3.505,3.505,0,0,1,3.514-3.5,3.505,3.505,0,0,1,3.513,3.5v10.364c.264,3.039,2.369,3.263,3.087,3.246H30.269c3.035-.248,3.26-2.423,3.256-3.091V-77.631c-.31-3.2-2.745-3.363-3.487-3.329l-21.674,0c-1.94,0-3.051-1.566-3.051-3.5s1.111-3.5,3.051-3.5H29.9a10.254,10.254,0,0,1,10.638,9.9l.011.271v37.048a10.124,10.124,0,0,1-9.921,10.1l-.233.008H-5.375" transform="translate(248.434 234.705)" fill="#5e59ed"/>
    <path id="Path_713" data-name="Path 713" d="M-34.361-79.244c-8.678,0-16.011-3.99-20.207-10.974-11.7-11.682-21.907-21.157-33.609-31.762-3.507-3.177-8.339-8.182-9.808-14.932-.076-.357-.142-.7-.2-1.051a65.542,65.542,0,0,1-.263-13.9c.114-2.2.222-4.285.222-6.3V-206.6c0-15.3,13.517-20.415,20.664-20.981l.279-.011H-13.89c12.28,0,17.811,5.577,24.815,12.639l1.676,1.684q6.472,6.458,13.01,12.849c6.027,5.922,12.261,12.047,18.308,18.173,7.4,7.5,7.186,17,6.994,25.376-.035,1.579-.072,3.161-.061,4.739q.057,7.842.065,15.692v32.672c0,8.394-2.333,14.838-6.935,19.153a20.656,20.656,0,0,1-14.118,5.327H19.048q-26.675-.007-53.331.045ZM-48.673-94.038c2.913,5.032,7.991,7.8,14.311,7.8h.059q26.676-.074,53.35-.045l11.095.007a13.648,13.648,0,0,0,9.082-3.489c3.1-2.945,4.665-7.657,4.665-14v-32.672q0-7.833-.066-15.642c-.012-1.647.026-3.3.063-4.947.183-8.008.342-14.923-4.982-20.316-6.009-6.088-12.222-12.193-18.232-18.1q-6.54-6.426-13.047-12.886l-1.7-1.71C-.607-216.621-4.547-220.6-13.89-220.6H-77.109a21.287,21.287,0,0,0-7.384,2.376c-4.511,2.511-6.7,6.312-6.7,11.622v48.43c0,2.2-.118,4.469-.231,6.665a60.523,60.523,0,0,0,.18,12.407c.039.235.085.475.136.714.791,3.635,3.228,7.206,7.668,11.229,8.834,8.006,16.826,15.375,25.246,23.53,0-.134,0-.27,0-.4v-87.965a3.505,3.505,0,0,1,3.513-3.5,3.505,3.505,0,0,1,3.514,3.5v87.965a19.982,19.982,0,0,0,2.432,9.865c.024.04.047.081.07.123" transform="translate(262.686 326.591)" fill="#5e59ed"/>
  </g>
</svg>
