<svg xmlns="http://www.w3.org/2000/svg" width="567.719" height="1086.291" viewBox="0 0 567.719 1086.291">
  <g id="layer1" transform="translate(0.755 -4.509)">
    <path id="path2191" d="M373.76,746.35l29.29,344.45h11.11L379.82,745.34l-6.06,1.01Z" fill="#5e59ed" fill-rule="evenodd"/>
    <path id="path1291" d="M558.54,282.83c39.66,178.6-67.95,439.46-174.55,466.06C280.18,774.87,68.25,579.11,28.59,400.51S75.45,50.6,221.72,18.12s297.16,86.11,336.82,264.71Z" fill="#5e59ed" fill-rule="evenodd" opacity="0.75"/>
    <path id="path2063" d="M558.54,282.83c39.66,178.6-67.95,439.46-174.55,466.06C280.18,774.87,68.25,579.11,28.59,400.51S75.45,50.6,221.72,18.12s297.16,86.11,336.82,264.71Z" fill="#5e59ed" fill-rule="evenodd"/>
    <path id="path2075" d="M171.19,67.388c-12.15.124-36.51,19.763-45.87,30.673C106.09,120.49,94.487,135.71,83.478,160.03c-16.9,37.35,4.575,39.09,32.852,16.12,21.59-17.54-12.86,35.61-15.82,47.42-4.931,19.72-24.961,31.75-34.4,42.76-9.848,11.48-7.246,33.21-27.588,47.1-22.2,15.15,18.254,23.31,29.746,28.51,18.361,8.31-10.76,46.54,27.888,20.15,22.786-15.56,16.766-31.55,31.916-1.23,5,9.99,47.59-37.14,49.59-40.28,2.34-3.68-3.85-56.9-4.64-60.43-.01-.08,13.07-19.13,28.83-15.18,24.45,6.11,16.74,28.76,38.73,3.1,11.18-13.03,25.83,50.4,26.34,52.69,7.29,32.83,48.79-4.87,62.29,3.73,14.42,9.18,9.08,39.31,25.71,49.89,13.12,8.36,43.28-30.36,47.42-36.87,13.56-21.29.69-23.51,38.12.32,26.36,16.78,22.41-31.97,58.26-1.23,21.82,18.71,6.77-20.08,7.13-33.78.62-23.12-11.94-57.19-20.13-77.48-4.63-11.48,44.38,16.12,36.57,6.51-14.24-17.52-32.69-32.14-45.86-48.35-17.05-20.99-24.4-34.87-36.56-59.19-10.5-21.014-5.94-25.343-22.61-35.955-17.61-11.206-33.65,17.928-44.94-4.655-7.85-15.709-37.87,9.422-52.68-.008-4.17-2.656-16.66-32.666-19.83-36.572-6.98-8.6-42.54,3.594-54.23,6.19l-11.16,2.478c-12.8,2.841-28.61,3.426-42.46,6.5-1.01.224-12.54,19.486-20.77,25.1Z" fill="#5e59ed" fill-rule="evenodd" opacity="0.6"/>
    <path id="path2085" d="M233.943,111.913a40,40,0,1,1-40-40,40,40,0,0,1,40,40Z" transform="matrix(0.976, -0.217, 0.217, 0.976, 88.064, 73.647)" fill="#5e59ed" fill-rule="evenodd"/>
    <path id="path2095" d="M668.4,319.746A114.286,114.286,0,1,1,554.116,205.46,114.285,114.285,0,0,1,668.4,319.746Z" transform="translate(-308.6 -51.166) rotate(-12.52)" fill="#5e59ed" fill-rule="evenodd" opacity="0.6"/>
    <path id="path2125" d="M221.72,18.129C75.46,50.609-11.08,221.9,28.58,400.5S280.19,774.869,384,748.889c106.59-26.6,214.21-287.48,174.55-466.08S367.99-14.351,221.72,18.129Zm-5.24,5.358a54.54,54.54,0,0,1,17.65-2.255c19.37.512,32.66,26.514,38.09,26.658,20.48.542,30.72-19.317,45.57-18.924,18.58.492,21.19,8.721,32.85,16.139,10.82,6.89,24.28,20.228,38.73,29.427,11.84,7.535,32.72,24,47.11,27.6,13.51,3.38,31.7,11.01,34.7,24.5,6.33,28.52-14.45,21.38-14.9,38.43-.62,23.42,41.67,16.27,48.04,44.93,6.58,29.63-30.82,41.33-22.02,45.87.18.09,72.2,61.52,30.99,60.43-23.06-.61-67.78-34.5-74.7-6.84-2.51,10.05-25.86,61.41-44.01,39.06-38.87-47.86-17.13,7.84-68.8,6.48-17.01-.45-14.75-19.05-14.25-37.81,2.07-78.29-54.61-11.47-55.16-37.5-1.66-78.52,6.58-10.14-17.65-39.97-14.59-17.96-25.61-36.77-52.06-23.55-40.78,20.38-6.4,29.47-4.95,56.7,1.35,25.32-31.75,21.72-17.68,39.04,4.73,5.82,30.89,53.19,22.32,47.74-3.41-2.17-6.84-4.36-10.25-6.53-36.75-23.39-37.04,43.63-65.06-3.09-21.79-36.33-21,20.85-50.225,37.49-11.175,33.51-15.372,9.77-19.2-7.45-3.456-15.56-.494-28.61-4.328-45.87-6.254-28.17,15.771-21.03,28.81-41.52,7.588-11.91,36.26-30.44,9.317-37.18-14.15-3.54-37.511,6.53-19.844-10.22,11.358-10.78,59.757-50.39,37.207-69.73-12.7-10.88-49.657-41.66-8.374-50.83,36.844-8.18,45.984-9.05,46.794-39.648.66-24.917,38.08-10.894,51.47-31.915,8.28-13.008,18.21-24.849,33.81-29.66Z" fill="#5e59ed" fill-rule="evenodd" opacity="0.4"/>
    <path id="path2099" d="M568.57,602.36c.005,128.605-73.55,232.86-164.285,232.86S240,730.965,240,602.36,313.548,369.5,404.283,369.5s164.29,104.255,164.29,232.86Z" transform="translate(-404.37 218.18) rotate(-33.353)" fill="#5e59ed" fill-rule="evenodd" opacity="0.53"/>
    <path id="path2109" d="M338.853,337.46c0,72.048-43.834,130.455-97.91,130.455s-97.913-58.407-97.913-130.455S186.866,207,240.942,207s97.913,58.407,97.913,130.455Z" transform="matrix(0.835, -0.55, 0.55, 0.835, -79.096, 415.27)" fill="#5e59ed" fill-rule="evenodd" opacity="0.3"/>
    <path id="path2158" d="M223.16,647.36c-18.33-24.26-60.96-66.68-84.57-101.25-13.36-19.58-23.25-50.62,1.33-49.97,37.26.99,32.96,59.59,31.55-7-.09-4.28,28.98,44.92,54.79,4.39,20.49-32.19,27.58,49.66,31.54,67.49,1.54,6.94,35.92,12.73,49.96,1.33,35.3-28.67,6.94,34.37,6.57,48.21-.89,33.66,73.16-41.61,76.7-46.01,32.96-40.96,50.85-10.7,72.76-45.13,23.01-36.14,48.4-65.38,66.19-93.34,14.1-22.15-23.01-31.23,10.09-47.77,25.06-12.52,21.8,45.56,16.21,54.35-13.64,21.42-38.61,14.17-39.45,46.01-.53,19.92-.88,33.32,4.37,56.98,4.69,21.13-20.48,53.45-30.25,68.8-13.83,21.72-3.49,30.23-31.56,44.26-19.26,9.62-21.79,50.29-39.45,46.01-13.72,11.15-36.21,27.08-46.02,35.05-18.37,14.92-39.26-16.11-68.37-9.65-21.98,4.88-45.83-9.49-58.29-20.17-12-10.28-20.75-37.52-24.1-52.59Z" fill="#5e59ed" fill-rule="evenodd" opacity="0.1"/>
    <path id="path2180" d="M558.54,282.83c39.66,178.6-67.95,439.46-174.55,466.06C280.18,774.87,68.25,579.11,28.59,400.51S75.45,50.6,221.72,18.12s297.16,86.11,336.82,264.71Z" fill="#5e59ed" fill-rule="evenodd"/>
    <path id="path2171" d="M417.262,726.757c1.86,8.55-16.192,18.5-40.32,22.229s-45.2-.182-47.057-8.732,16.192-18.5,40.32-22.229S415.4,718.207,417.262,726.757Z" fill="#5e59ed" fill-rule="evenodd" opacity="0.3"/>
    <path id="path1354" d="M372.75,735.24c-5.94,3.64-15.41,17.3-18.19,24.24-1.54,3.86-9.09,5.05-13.13,7.07-7.95,3.97-3.74,11.11,4.04,11.11,10.36,0,20.28.02,30.31,2.02,7.56,1.51,15.43,1.01,23.23,1.01,7.94,0,8.98-5.27,7.07-9.09-1.73-3.47-10.95-7.77-13.13-12.12-2.07-4.13-1.9-18.34-7.07-22.22C385.5,736.97,379.16,731.29,372.75,735.24Z" fill="#5e59ed" fill-rule="evenodd"/>
    <path id="path2124" d="M372.75,735.24c-5.94,3.64-15.41,17.3-18.19,24.24-1.54,3.86-9.09,5.05-13.13,7.07-7.95,3.97-3.74,11.11,4.04,11.11,10.36,0,20.28.02,30.31,2.02,7.56,1.51,15.43,1.01,23.23,1.01,7.94,0,8.98-5.27,7.07-9.09-1.73-3.47-10.95-7.77-13.13-12.12-2.07-4.13-1.9-18.34-7.07-22.22C385.5,736.97,379.16,731.29,372.75,735.24Z" fill="#5e59ed" fill-rule="evenodd"/>
    <path id="path2138" d="M372.75,735.24c-5.94,3.64-15.41,17.3-18.19,24.24-1.54,3.86-9.09,5.05-13.13,7.07-7.95,3.97-3.74,11.11,4.04,11.11,10.36,0,20.28.02,30.31,2.02,7.56,1.51,15.43,1.01,23.23,1.01,7.94,0,8.98-5.27,7.07-9.09-1.73-3.47-10.95-7.77-13.13-12.12-2.07-4.13-1.9-18.34-7.07-22.22C385.5,736.97,379.16,731.29,372.75,735.24Z" fill="#5e59ed" fill-rule="evenodd" opacity="0.468"/>
    <path id="path2142" d="M372.75,735.24c-5.94,3.64-15.41,17.3-18.19,24.24-1.54,3.86-9.09,5.05-13.13,7.07-7.95,3.97-3.74,11.11,4.04,11.11,10.36,0,20.28.02,30.31,2.02,7.56,1.51,15.43,1.01,23.23,1.01,7.94,0,8.98-5.27,7.07-9.09-1.73-3.47-10.95-7.77-13.13-12.12-2.07-4.13-1.9-18.34-7.07-22.22C385.5,736.97,379.16,731.29,372.75,735.24Z" fill="#5e59ed" fill-rule="evenodd" opacity="0.509"/>
    <path id="path2146" d="M358.6,766.36c3.39.43,11.27-.31,16.58-1.54,4.5-1.04,7.22-1.31,9.95-3.85,3.94-3.66,3.84-.53,9.11,1.9,2.93,3.13,7.18,2.08,10.15,8.1,2.93,2.72-11.8,0-15.95,0-4.45,0-8.3-.77-12.43-.77a67,67,0,0,1-10.78-1.54c-3.28-.76-1.58-1.37-6.63-2.3Z" fill="#5e59ed" fill-rule="evenodd" opacity="0.676"/>
    <path id="path2161" d="M193.233,752.361c0,4.734-1.915,8.571-4.278,8.571s-4.278-3.838-4.278-8.571,1.915-8.571,4.278-8.571,4.278,3.838,4.278,8.571Z" transform="matrix(0.939, -0.344, 0.344, 0.939, -50.684, 103.73)" fill="#5e59ed" fill-rule="evenodd" opacity="0.468"/>
    <path id="path2223" d="M384.1,745.83c-.32.08-.63-.18-.94-.27,7.03,1.47.11-.15,1.18-1.56-.29-.2-.1.1-.23.23l4.01-9.42c1.9,1.22,3.96,1.86,5.08,4.06,4.66,11.94-2.84,20.8-15.46,15.35-8.58-7.9-5.36-17.93,6.36-18.75v10.36Z" fill="#5e59ed"/>
    <path id="path2248" d="M389.82,848.98c19.5,32.61-40.17,32.94-38.8,67.43,1.38,34.84,32.22,19.78,50.78,50.33l1.36,12.09c-27.17-37.97-52.84-27.66-53.92-61.72s45.61-45.57,41.37-61.82l-.79-6.31Z" fill="#5e59ed"/>
    <path id="path2284" d="M395.35,1000.7c-9.28,13.3-47.78,27.1-47.63,11.6.36-36.89,55.38-18.88,56.6,11.3.59,14.7-36.31,14-42.15,26.9l-1.06-8.5c4.9-11,39.15-9.6,37.45-17.7-5.81-27.92-35.53-27.03-46.2-18.4,1.29,15.2,34.93.8,42.62-12.67Z" fill="#5e59ed"/>
    <path id="path2319" d="M395.35,1000.7c-9.28,13.3-47.78,27.1-47.63,11.6l4.64-6.4c1.29,15.2,34.93.8,42.62-12.67l.37,7.47Z" fill="#5e59ed"/>
    <path id="path2323" d="M384.1,745.83c-.32.08-.63-.18-.94-.27,7.03,1.47.11-.15,1.18-1.56-.29-.2-.1.1-.23.23l4.01-9.42c1.9,1.22,3.96,1.86,5.08,4.06,4.66,11.94-2.84,20.8-15.46,15.35-8.58-7.9-5.36-17.93,6.36-18.75v10.36Z" fill="#5e59ed"/>
    <path id="path2246" d="M392.33,736.55c-9.76,22.19-12.99,1.44-21.3,2.75-12.74-.02-32.13,6.31-38.99,16.56-9.4,14.05-13.05,28.87-5.67,47.75,7.43,19,31.71,25.71,55.78,39.27l.32,4.01c-18.28-14.31-51.06-14.92-61.22-36.51-10.31-21.88-9.62-39.63,10.16-58.7,10.47-9.75,22.83-17.62,37.49-17.94Z" fill="#5e59ed"/>
    <path id="path2329" d="M392.33,736.55c-9.76,22.19-12.99,1.44-21.3,2.75-12.74-.02-16.79-5.24-2.13-5.56Z" fill="#5e59ed" opacity="0.639"/>
  </g>
</svg>
