<svg xmlns="http://www.w3.org/2000/svg" width="15.105" height="18.648" viewBox="0 0 15.105 18.648">
  <g id="Group_4139" data-name="Group 4139" transform="translate(-3.5 -1.498)">
    <path id="Path_1967" data-name="Path 1967" d="M9.25,10.684a2.434,2.434,0,1,1,2.434,2.434A2.434,2.434,0,0,1,9.25,10.684Zm2.434-1.106a1.106,1.106,0,1,0,1.106,1.106A1.106,1.106,0,0,0,11.684,9.578Z" transform="translate(-0.632 -0.747)" fill="#5e59ed" stroke="#fff" stroke-width="0.5" fill-rule="evenodd"/>
    <path id="Path_1968" data-name="Path 1968" d="M9.078,17.619a1.716,1.716,0,0,1,1.244-1.649,4.332,4.332,0,0,1,2.381,0,1.715,1.715,0,0,1,1.244,1.649v.419a.664.664,0,1,0,1.328,0v-.419a3.043,3.043,0,0,0-2.206-2.925,5.661,5.661,0,0,0-3.111,0A3.043,3.043,0,0,0,7.75,17.619v.419a.664.664,0,0,0,1.328,0Z" transform="translate(-0.459 -1.461)" fill="#5e59ed" stroke="#fff" stroke-width="0.5"/>
    <path id="Path_1969" data-name="Path 1969" d="M10.36,1.75c-.286,0-.548,0-.765.022a1.478,1.478,0,0,0-1.158.667,1.56,1.56,0,0,0-.239.73q-.017.177-.019.356c-.533.006-1,.023-1.4.068a3.342,3.342,0,0,0-1.734.613,3.317,3.317,0,0,0-.613.613,3.342,3.342,0,0,0-.613,1.735A23.988,23.988,0,0,0,3.75,9.013V13.97a24.188,24.188,0,0,0,.1,2.954,3.29,3.29,0,0,0,.868,2,3.3,3.3,0,0,0,2,.869,24.4,24.4,0,0,0,2.954.1h2.753a24.4,24.4,0,0,0,2.954-.1,3.3,3.3,0,0,0,2-.869,3.3,3.3,0,0,0,.869-2,24.4,24.4,0,0,0,.1-2.954V9.013a24.006,24.006,0,0,0-.073-2.46,3.342,3.342,0,0,0-.613-1.734,3.319,3.319,0,0,0-.613-.613,3.342,3.342,0,0,0-1.735-.613c-.4-.044-.862-.062-1.4-.068q0-.178-.019-.356a1.478,1.478,0,0,0-.667-1.158,1.56,1.56,0,0,0-.73-.239q-.382-.029-.765-.022H10.36Zm3.536,3.1c.515.006.929.021,1.278.061a2.057,2.057,0,0,1,1.075.347,2.033,2.033,0,0,1,.367.367A2.057,2.057,0,0,1,16.963,6.7a23.325,23.325,0,0,1,.065,2.351v4.868a23.9,23.9,0,0,1-.091,2.825,2,2,0,0,1-.492,1.238,2,2,0,0,1-1.239.492,23.87,23.87,0,0,1-2.825.091H9.725A23.9,23.9,0,0,1,6.9,18.477a2,2,0,0,1-1.238-.492,2,2,0,0,1-.492-1.239,23.878,23.878,0,0,1-.091-2.825V9.053A23.325,23.325,0,0,1,5.142,6.7a2.057,2.057,0,0,1,.347-1.075,2.033,2.033,0,0,1,.367-.367,2.057,2.057,0,0,1,1.075-.347c.349-.04.763-.055,1.278-.061a1.479,1.479,0,0,0,.227.636,1.478,1.478,0,0,0,1.158.667c.217.022.479.022.765.022h1.386c.286,0,.548,0,.765-.022a1.478,1.478,0,0,0,1.158-.667,1.487,1.487,0,0,0,.227-.636ZM9.729,3.093a.536.536,0,0,0-.129.024.218.218,0,0,0-.057.058.54.54,0,0,0-.024.128c-.014.142-.015.336-.015.66s0,.518.015.66a.54.54,0,0,0,.024.128.209.209,0,0,0,.058.058.494.494,0,0,0,.128.024c.142.014.336.015.66.015h1.328c.325,0,.518,0,.66-.015a.537.537,0,0,0,.128-.024.221.221,0,0,0,.058-.058.54.54,0,0,0,.024-.128c.014-.142.015-.336.015-.66s0-.518-.015-.66a.54.54,0,0,0-.024-.128.221.221,0,0,0-.058-.058.536.536,0,0,0-.128-.024q-.33-.022-.66-.015H10.389C10.064,3.078,9.871,3.078,9.729,3.093ZM9.6,4.807Z" transform="translate(0 0)" fill="#5e59ed" stroke="#fff" stroke-width="0.5" fill-rule="evenodd"/>
  </g>
</svg>
