<svg xmlns="http://www.w3.org/2000/svg" width="16.415" height="15.829" viewBox="0 0 16.415 15.829">
  <g id="Group_4172" data-name="Group 4172" transform="translate(0.1 -1.071)">
    <path id="Path_1981" data-name="Path 1981" d="M14.047,54.738H2.181a1.5,1.5,0,0,1-.583-.127A2.963,2.963,0,0,1,0,52.279a.273.273,0,0,1,.051-.2A.274.274,0,0,1,.228,52H15.974a.226.226,0,0,1,.228.279,2.94,2.94,0,0,1-1.6,2.333A1.291,1.291,0,0,1,14.047,54.738ZM.532,52.482a2.462,2.462,0,0,0,1.293,1.7.81.81,0,0,0,.355.076H14.047a.81.81,0,0,0,.355-.076,2.411,2.411,0,0,0,1.293-1.7Z" transform="translate(0 -37.939)" fill="#5e59ed" stroke="#5e59ed" stroke-width="0.2"/>
    <path id="Path_1982" data-name="Path 1982" d="M19.178,34.343a.254.254,0,0,1-.254-.254v-5.1a.79.79,0,0,0-.786-.786H7.793a.79.79,0,0,0-.786.786v5.1a.254.254,0,0,1-.254.254A.24.24,0,0,1,6.5,34.09v-5.1A1.3,1.3,0,0,1,7.793,27.7H18.138a1.3,1.3,0,0,1,1.293,1.293v5.1A.24.24,0,0,1,19.178,34.343Z" transform="translate(-4.852 -19.8)" fill="#5e59ed" stroke="#5e59ed" stroke-width="0.2"/>
    <path id="Path_1983" data-name="Path 1983" d="M18.3,21.862a4.387,4.387,0,0,1-2.688-.989.743.743,0,0,0-1.014.051,1.9,1.9,0,0,1-.507.38,4.135,4.135,0,0,1-1.876.558,3.063,3.063,0,0,1-2.054-.659c-.051-.025-.1-.076-.152-.1a1.907,1.907,0,0,0-1.293-.254c-.558.076-1.217.2-1.851.3a.244.244,0,1,1-.076-.482c.634-.127,1.293-.228,1.876-.3a2.24,2.24,0,0,1,1.623.33,1.1,1.1,0,0,0,.177.1,2.763,2.763,0,0,0,1.775.583,3.862,3.862,0,0,0,1.623-.482,1.771,1.771,0,0,0,.406-.33,1.245,1.245,0,0,1,1.674-.076,3.742,3.742,0,0,0,3.271.786.249.249,0,0,1,.127.482A5.142,5.142,0,0,1,18.3,21.862ZM13.79,17.881a.254.254,0,0,1-.254-.254v-3.22H12.5v3.246a.254.254,0,0,1-.254.254.24.24,0,0,1-.254-.254v-3.5a.254.254,0,0,1,.254-.254h1.521a.254.254,0,0,1,.254.254v3.5C14.043,17.779,13.942,17.881,13.79,17.881Z" transform="translate(-4.915 -9.499)" fill="#5e59ed" stroke="#5e59ed" stroke-width="0.2"/>
    <g id="Group_4167" data-name="Group 4167" transform="translate(7.86 3.564)">
      <path id="Path_1984" data-name="Path 1984" d="M31.254,11.944A.254.254,0,0,1,31,11.69v-.837a.254.254,0,1,1,.507,0v.837A.273.273,0,0,1,31.254,11.944Z" transform="translate(-31 -10.6)" fill="#5e59ed" stroke="#5e59ed" stroke-width="0.2"/>
    </g>
    <g id="Group_4168" data-name="Group 4168" transform="translate(7.252 1.174)">
      <path id="Path_1985" data-name="Path 1985" d="M29.462,4.071h0A.961.961,0,0,1,28.6,3.006a1.212,1.212,0,0,1,.456-.964,1.18,1.18,0,0,0,.355-.659.275.275,0,0,1,.2-.2.241.241,0,0,1,.254.1,2.951,2.951,0,0,1,.456,1.978,1.227,1.227,0,0,1-.761.786A.152.152,0,0,1,29.462,4.071Zm.228-2.028a2.206,2.206,0,0,1-.3.355.756.756,0,0,0-.3.609c0,.431.228.532.355.558a.745.745,0,0,0,.406-.431A1.829,1.829,0,0,0,29.69,2.043Z" transform="translate(-28.6 -1.174)" fill="#5e59ed" stroke="#5e59ed" stroke-width="0.2"/>
    </g>
  </g>
</svg>
