<svg xmlns="http://www.w3.org/2000/svg" width="18.195" height="18.195" viewBox="0 0 18.195 18.195">
  <g id="Group_4144" data-name="Group 4144" transform="translate(-1 -1)">
    <path id="Path_1970" data-name="Path 1970" d="M10.1,1a9.1,9.1,0,1,0,9.1,9.1A9.1,9.1,0,0,0,10.1,1Zm0,17.608A8.511,8.511,0,1,1,18.608,10.1,8.511,8.511,0,0,1,10.1,18.608Z" fill="#5e59ed"/>
    <path id="Path_1971" data-name="Path 1971" d="M41.054,29a2.054,2.054,0,1,0,2.054,2.054A2.054,2.054,0,0,0,41.054,29Zm0,3.522a1.467,1.467,0,1,1,1.467-1.467A1.467,1.467,0,0,1,41.054,32.522Z" transform="translate(-26.848 -19.783)" fill="#5e59ed"/>
    <path id="Path_1972" data-name="Path 1972" d="M14.093,5.031a.293.293,0,0,0-.168.264v.6A7.063,7.063,0,0,0,8.341,8.279a1.146,1.146,0,0,0-.507.293h0l-.078.079a6.081,6.081,0,0,0,0,8.546l.079.08a1.147,1.147,0,0,0,.506.293,7.039,7.039,0,0,0,9.991.6c.052-.028.1-.054.154-.084l.745-.44a3.985,3.985,0,0,0,2.03-3.43,3.94,3.94,0,0,0-1.484-3.049h1.191a.293.293,0,0,0,.187-.52L14.4,5.069A.293.293,0,0,0,14.093,5.031Zm-.168,1.451v4.39a.293.293,0,0,0,.293.293h.707a1.985,1.985,0,0,0-.414,1.206,1.426,1.426,0,0,1-.473,1.054l-.76.7a2.573,2.573,0,0,0-.672,1.014,3.753,3.753,0,0,1,.165-4.645l.288-.339A1.18,1.18,0,0,0,13,8.574a1.148,1.148,0,0,0-.823-.344h0a1.149,1.149,0,0,0-.822.343l-.065.065c-.018-.021-.033-.045-.053-.065a1.148,1.148,0,0,0-.821-.343h0a1.149,1.149,0,0,0-.822.343l-.065.065c-.018-.021-.033-.045-.053-.065a1.155,1.155,0,0,0-.37-.251,6.449,6.449,0,0,1,4.524-1.853C13.729,6.469,13.827,6.478,13.925,6.482ZM11.3,15.694l-.288-.339a3.756,3.756,0,0,1,0-4.858l.288-.339a1.171,1.171,0,0,0,.257-.943c.046-.05.09-.1.138-.148l.078-.079a.567.567,0,0,1,.4-.169h0a.566.566,0,0,1,.4.169.589.589,0,0,1,.029.791l-.288.339a4.343,4.343,0,0,0,0,5.619l.136.159c0,.024,0,.047,0,.071a2.429,2.429,0,0,0,.159.851c-.012.015-.021.033-.034.047a.566.566,0,0,1-.4.17h0a.566.566,0,0,1-.4-.169l-.079-.08c-.048-.048-.092-.1-.138-.147A1.171,1.171,0,0,0,11.3,15.694Zm-1.761,0-.288-.339a3.756,3.756,0,0,1,0-4.858l.288-.339A1.171,1.171,0,0,0,9.8,9.214c.046-.05.09-.1.138-.148l.078-.079a.567.567,0,0,1,.4-.169h0a.566.566,0,0,1,.4.169.589.589,0,0,1,.029.791l-.288.339a4.343,4.343,0,0,0,0,5.618l.288.339a.589.589,0,0,1-.029.792.566.566,0,0,1-.4.168h0a.566.566,0,0,1-.4-.169l-.079-.08c-.048-.048-.092-.1-.138-.147A1.171,1.171,0,0,0,9.537,15.694ZM8.172,16.786a5.494,5.494,0,0,1,0-7.718l.078-.079a.567.567,0,0,1,.4-.171h0a.566.566,0,0,1,.4.169.589.589,0,0,1,.029.791l-.288.339a4.343,4.343,0,0,0,0,5.618l.288.339a.589.589,0,0,1-.029.792.566.566,0,0,1-.4.168h0a.566.566,0,0,1-.4-.169Zm5.459,2.6a6.449,6.449,0,0,1-4.524-1.853,1.155,1.155,0,0,0,.37-.251c.02-.02.035-.044.053-.065l.065.065a1.148,1.148,0,0,0,.821.343h0a1.148,1.148,0,0,0,.822-.343c.02-.02.035-.044.053-.065l.065.065a1.148,1.148,0,0,0,.821.343h0a1.142,1.142,0,0,0,.721-.26,2.589,2.589,0,0,0,.379.443,3.776,3.776,0,0,0,2.58.991,4.958,4.958,0,0,0,.516-.029A6.44,6.44,0,0,1,13.631,19.382Zm7.043-5.168a3.4,3.4,0,0,1-1.742,2.927l-.745.44a4.592,4.592,0,0,1-2.331.627,3.236,3.236,0,0,1-2.181-.835,1.884,1.884,0,0,1,0-2.815l.761-.7a2.035,2.035,0,0,0,.662-1.483,1.578,1.578,0,0,1,1.643-1.5h.546a3.386,3.386,0,0,1,3.387,3.342Zm-6.163-8.3,5.641,4.659H18.786a4,4,0,0,0-1.5-.293h-.546a2.33,2.33,0,0,0-1.135.293h-1.1Z" transform="translate(-3.533 -2.828)" fill="#5e59ed"/>
    <rect id="Rectangle_2996" data-name="Rectangle 2996" height="0.93" transform="translate(11.958 4.515)" fill="#5e59ed"/>
    <rect id="Rectangle_2997" data-name="Rectangle 2997" transform="translate(12.889 6.376)" fill="#5e59ed"/>
    <rect id="Rectangle_2998" data-name="Rectangle 2998" height="0.93" transform="translate(11.958 6.376)" fill="#5e59ed"/>
  </g>
</svg>
