<svg xmlns="http://www.w3.org/2000/svg" width="21.502" height="17.811" viewBox="0 0 21.502 17.811">
  <g id="Icon_feather-camera" data-name="Icon feather-camera" transform="translate(-0.9 -3.9)">
    <path id="Path_1721" data-name="Path 1721" d="M21.8,19.265a1.846,1.846,0,0,1-1.846,1.846H3.346A1.846,1.846,0,0,1,1.5,19.265V9.114A1.846,1.846,0,0,1,3.346,7.269H7.037L8.883,4.5H14.42l1.846,2.769h3.691A1.846,1.846,0,0,1,21.8,9.114Z" fill="none" stroke="#5e59ed" stroke-linecap="round" stroke-linejoin="round" stroke-width="1.2"/>
    <path id="Path_1722" data-name="Path 1722" d="M19.383,17.191A3.691,3.691,0,1,1,15.691,13.5,3.691,3.691,0,0,1,19.383,17.191Z" transform="translate(-4.04 -3.463)" fill="none" stroke="#5e59ed" stroke-linecap="round" stroke-linejoin="round" stroke-width="1.2"/>
  </g>
</svg>
