<svg xmlns="http://www.w3.org/2000/svg" width="16" height="19.314" viewBox="0 0 16 19.314">
  <path id="Vector-6" d="M12.465,9.068q.035-.38.035-.647c0-.919-.129-.924-.625-.924H8.926a3.833,3.833,0,0,0,.449-1.735c0-1.777-2.238-2.644-2.238-4.126A6.656,6.656,0,0,1,7.5,0,3.047,3.047,0,0,0,5.648,2.888c0,2.265,2.2,2.283,2.2,3.976a5.631,5.631,0,0,1-.082.633H5.582a2.04,2.04,0,0,0,.051-.436c0-1.069-1.527-1.589-1.527-2.476A4.2,4.2,0,0,1,4.23,3.6,2.07,2.07,0,0,0,3.125,5.326C3.125,6.578,4.371,6.7,4.563,7.5H.625c-.5,0-.625,0-.625.924a18.3,18.3,0,0,0,1.105,5.2A9.913,9.913,0,0,0,3.5,17.667l0-.009A1.014,1.014,0,0,0,4.25,18h4A1.014,1.014,0,0,0,9,17.658l0,.009a9.156,9.156,0,0,0,1.227-1.543,3.207,3.207,0,0,0,.6.234,3.542,3.542,0,0,0,.969.141,2.946,2.946,0,0,0,2.375-1.21A4.257,4.257,0,0,0,15,12.749,3.644,3.644,0,0,0,12.465,9.068ZM11.8,15.013a1.709,1.709,0,0,1-.863-.2c.156-.375.309-.745.457-1.177a23.953,23.953,0,0,0,.844-3.085,2.189,2.189,0,0,1,1.512,2.208A2.089,2.089,0,0,1,11.8,15.013Z" transform="translate(0.5 0.749)" fill="#fff" stroke="#5e59ed" stroke-width="1"/>
</svg>
