<svg id="Group_1333" data-name="Group 1333" xmlns="http://www.w3.org/2000/svg" width="20.295" height="18.646" viewBox="0 0 20.295 18.646">
  <path id="Path_975" data-name="Path 975" d="M25.663,21.126A1.968,1.968,0,0,1,23.7,19.163a1.963,1.963,0,1,1,1.963,1.963Zm0-2.983a.981.981,0,1,0,.981.981A.972.972,0,0,0,25.663,18.142Z" transform="translate(-14.396 -10.448)" fill="#5e59ed"/>
  <path id="Path_976" data-name="Path 976" d="M26.53,36.87H18.6V32.159A2.178,2.178,0,0,1,20.759,30h3.612a2.178,2.178,0,0,1,2.159,2.159Zm-6.948-.981h5.967V32.159a1.157,1.157,0,0,0-1.178-1.178H20.759a1.157,1.157,0,0,0-1.178,1.178v3.729Z" transform="translate(-11.298 -18.223)" fill="#5e59ed"/>
  <path id="Path_977" data-name="Path 977" d="M18.136,0H4.357A2.178,2.178,0,0,0,2.2,2.159V5.1H.471A.507.507,0,0,0,0,5.574a.507.507,0,0,0,.471.471H2.159v6.516H.471a.514.514,0,0,0-.471.51.477.477,0,0,0,.471.471H2.159v2.944a2.178,2.178,0,0,0,2.159,2.159H18.136A2.178,2.178,0,0,0,20.3,16.487V2.159A2.153,2.153,0,0,0,18.136,0Zm1.178,16.487a1.157,1.157,0,0,1-1.178,1.178H4.357A1.157,1.157,0,0,1,3.18,16.487V13.543H5.025a.477.477,0,0,0,.471-.471.512.512,0,0,0-.471-.51H3.18V6.085H5.025A.477.477,0,0,0,5.5,5.614a.512.512,0,0,0-.471-.51H3.18V2.159A1.157,1.157,0,0,1,4.357.981H18.175a1.157,1.157,0,0,1,1.178,1.178V16.487Z" fill="#5e59ed"/>
</svg>
