<svg xmlns="http://www.w3.org/2000/svg" width="18" height="19" viewBox="0 0 18 19">
  <g id="cost" transform="translate(1 1)" fill="none">
    <path d="M8,0A8.27,8.27,0,0,0,0,8.5,8.271,8.271,0,0,0,8,17a8.271,8.271,0,0,0,8-8.5A8.27,8.27,0,0,0,8,0Zm2.513,11.1a2.416,2.416,0,0,1-.973.865,2.908,2.908,0,0,1-.954.266v1.142a.306.306,0,0,1-.3.315H7.4a.306.306,0,0,1-.3-.315V12.128a2.691,2.691,0,0,1-.5-.185,2.245,2.245,0,0,1-1.052-.927A2.694,2.694,0,0,1,5.15,9.629.309.309,0,0,1,5.426,9.3l.8-.058a.3.3,0,0,1,.315.277,1.508,1.508,0,0,0,.217.678,1.083,1.083,0,0,0,.525.434,2.136,2.136,0,0,0,1.61.056,1.056,1.056,0,0,0,.434-.323.7.7,0,0,0,.119-.4A.567.567,0,0,0,9.325,9.6a1.03,1.03,0,0,0-.456-.306c-.146-.051-.524-.166-1.1-.314a5.781,5.781,0,0,1-1.3-.453,2.063,2.063,0,0,1-.8-.747A1.984,1.984,0,0,1,5.4,6.766,2.237,2.237,0,0,1,5.72,5.617a2.093,2.093,0,0,1,.933-.8,2.352,2.352,0,0,1,.453-.16V3.61a.306.306,0,0,1,.3-.315H8.29a.306.306,0,0,1,.3.315V4.6a3.422,3.422,0,0,1,.738.214,2.2,2.2,0,0,1,.972.853,2.463,2.463,0,0,1,.374,1.234.309.309,0,0,1-.277.33l-.816.058a.3.3,0,0,1-.314-.272,1.127,1.127,0,0,0-.342-.758,1.344,1.344,0,0,0-.94-.279,1.531,1.531,0,0,0-.943.242.582.582,0,0,0-.228.481.476.476,0,0,0,.136.362,3.028,3.028,0,0,0,1.15.408,9.857,9.857,0,0,1,1.487.461,2.093,2.093,0,0,1,1.267,1.944A2.291,2.291,0,0,1,10.513,11.1Z" stroke="none"/>
    <path d="M 8 0 C 3.588589668273926 0 0 3.81287956237793 0 8.5 C 0 13.18709945678711 3.588589668273926 17 8 17 C 12.41139984130859 17 16 13.18709945678711 16 8.5 C 16 3.81287956237793 12.41139984130859 0 8 0 M 9.557168960571289 7.294175148010254 C 9.40886116027832 7.294175148010254 9.284571647644043 7.178375244140625 9.264169692993164 7.021570205688477 C 9.218530654907227 6.666080474853516 9.106729507446289 6.417819976806641 8.922060012817383 6.263440132141113 C 8.71226978302002 6.073459625244141 8.40785026550293 5.984930038452148 7.982410430908203 5.984930038452148 C 7.565770149230957 5.984930038452148 7.231200218200684 6.07079029083252 7.039830207824707 6.227399826049805 C 6.884480476379395 6.354649543762207 6.811619758605957 6.5076904296875 6.811619758605957 6.708789825439453 C 6.811619758605957 6.863619804382324 6.857259750366211 6.985079765319824 6.947290420532227 7.070509910583496 C 6.995030403137207 7.110549926757812 7.25547981262207 7.290740013122559 8.097570419311523 7.478930473327637 C 8.793089866638184 7.653340339660645 9.304369926452637 7.812170028686523 9.58450984954834 7.940299987792969 C 10.03090000152588 8.153860092163086 10.35000038146973 8.42926025390625 10.53709983825684 8.760270118713379 C 10.7460994720459 9.092619895935059 10.85120010375977 9.464559555053711 10.85120010375977 9.884559631347656 C 10.85120010375977 10.32149982452393 10.73769950866699 10.72900009155273 10.5132999420166 11.09650039672852 C 10.27169990539551 11.47069931030273 9.955089569091797 11.75139999389648 9.540120124816895 11.96100044250488 C 9.234020233154297 12.10510063171387 8.915359497070312 12.19359970092773 8.58622932434082 12.22660064697266 L 8.58622932434082 13.36910057067871 C 8.58622932434082 13.54349994659424 8.453489303588867 13.68410015106201 8.289770126342773 13.68410015106201 L 7.402460098266602 13.68410015106201 C 7.238309860229492 13.68410015106201 7.105990409851074 13.54310035705566 7.105990409851074 13.36910057067871 L 7.105990409851074 12.12779998779297 C 6.938920021057129 12.08419990539551 6.774350166320801 12.02320003509521 6.609370231628418 11.94320011138916 C 6.165929794311523 11.75099945068359 5.808320045471191 11.43770027160645 5.557499885559082 11.01639938354492 C 5.305839538574219 10.62529945373535 5.17057991027832 10.16839981079102 5.149649620056152 9.628740310668945 C 5.142950057983398 9.457889556884766 5.265640258789062 9.312849998474121 5.426010131835938 9.30128002166748 L 6.222869873046875 9.243440628051758 C 6.383284568786621 9.233654022216797 6.518919944763184 9.354230880737305 6.537759780883789 9.520620346069336 C 6.569589614868164 9.80402946472168 6.644539833068848 10.03849983215332 6.75508975982666 10.19869995117188 C 6.879460334777832 10.3971004486084 7.038999557495117 10.52750015258789 7.280190467834473 10.63249969482422 C 7.791049003601074 10.87139892578125 8.440929412841797 10.87179946899414 8.890659332275391 10.68809986114502 C 9.089980125427246 10.59729957580566 9.231090545654297 10.49320030212402 9.324470520019531 10.36509990692139 C 9.404449462890625 10.24320030212402 9.443809509277344 10.11499977111816 9.443809509277344 9.961969375610352 C 9.443809509277344 9.818269729614258 9.409059524536133 9.712379455566406 9.32489013671875 9.597589492797852 C 9.280920028686523 9.535299301147461 9.167440414428711 9.418739318847656 8.868879318237305 9.291940689086914 C 8.723159790039062 9.24077033996582 8.344619750976562 9.126430511474609 7.768440246582031 8.978280067443848 C 7.095529556274414 8.799869537353516 6.706100463867188 8.664620399475098 6.464489936828613 8.525360107421875 C 6.104789733886719 8.323369979858398 5.834699630737305 8.071550369262695 5.665109634399414 7.778360366821289 C 5.491339683532715 7.479820251464844 5.403400421142578 7.139019966125488 5.403400421142578 6.766189575195312 C 5.403400421142578 6.360429763793945 5.510180473327637 5.973799705505371 5.720390319824219 5.616990089416504 C 5.938130378723145 5.269069671630859 6.259300231933594 4.995889663696289 6.653759956359863 4.819709777832031 C 6.785659790039062 4.75609016418457 6.935569763183594 4.702699661254883 7.106410026550293 4.659979820251465 L 7.106410026550293 3.609550476074219 C 7.106410026550293 3.435150146484375 7.239150047302246 3.294560432434082 7.40287971496582 3.294560432434082 L 8.290189743041992 3.294560432434082 C 8.454330444335938 3.294560432434082 8.586649894714355 3.435589790344238 8.586649894714355 3.609550476074219 L 8.586649894714355 4.6043701171875 C 8.853389739990234 4.651530265808105 9.10044002532959 4.723159790039062 9.324470520019531 4.817930221557617 C 9.75786018371582 5.024809837341309 10.07229995727539 5.301989555358887 10.29680061340332 5.670820236206055 C 10.52159976959229 6.018739700317383 10.64850044250488 6.43651008605957 10.67070007324219 6.904999732971191 C 10.6786994934082 7.076729774475098 10.5556001663208 7.223549842834473 10.39389991760254 7.235119819641113 L 9.578229904174805 7.293399810791016 C 9.5711669921875 7.293918609619141 9.56413459777832 7.294175148010254 9.557168960571289 7.294175148010254 M 8 -1 C 12.96261978149414 -1 17 3.261679649353027 17 8.5 C 17 13.73832035064697 12.96261978149414 18 8 18 C 3.037380218505859 18 -1 13.73832035064697 -1 8.5 C -1 3.261679649353027 3.037380218505859 -1 8 -1 Z" stroke="none" fill="#5e59ed"/>
  </g>
</svg>
