<svg xmlns="http://www.w3.org/2000/svg" width="117.325" height="60" viewBox="0 0 117.325 60">
  <g id="Group_1892" data-name="Group 1892" transform="translate(-116 -257)">
    <g id="Group_1865" data-name="Group 1865" transform="translate(116 257)">
      <path id="Path_871" data-name="Path 871" d="M49.263,48.838H38.719a6.747,6.747,0,0,1-5.46-2.259,7.212,7.212,0,0,1-1.506-5.836V35.659A2.289,2.289,0,0,1,34.012,33.4a2.43,2.43,0,0,1,2.259,2.259v5.648c0,.377-.188,1.694.377,2.259a2.5,2.5,0,0,0,1.883.565H49.074a.93.93,0,0,0,.565-.188c.188-.188.377-.565.377-1.506V40.178H70.537A2.289,2.289,0,0,1,72.8,42.437,2.43,2.43,0,0,1,70.537,44.7h-16a4.164,4.164,0,0,1-1.883,2.824A4.871,4.871,0,0,1,49.263,48.838Z" transform="translate(-20.155 11.162)" fill="#261f21"/>
      <path id="Path_872" data-name="Path 872" d="M74.734,48.838a5.211,5.211,0,0,1-3.389-1.13,5.347,5.347,0,0,1-1.883-2.824h-16A2.289,2.289,0,0,1,51.2,42.625a2.43,2.43,0,0,1,2.259-2.259H73.981v2.259c0,.941.188,1.506.377,1.506a.353.353,0,0,0,.565,0H85.277a2.5,2.5,0,0,0,1.883-.565,2.567,2.567,0,0,0,.377-2.259V35.659A2.289,2.289,0,0,1,89.8,33.4a2.43,2.43,0,0,1,2.259,2.259v5.083a7.1,7.1,0,0,1-1.506,5.836c-.941,1.13-2.448,2.259-5.46,2.259H74.734Z" transform="translate(-2.889 11.162)" fill="#261f21"/>
      <path id="Path_873" data-name="Path 873" d="M135.6,48.225H32.619a6.747,6.747,0,0,1-5.46-2.259,7.212,7.212,0,0,1-1.506-5.836V38.435a2.289,2.289,0,0,1,2.259-2.259,2.43,2.43,0,0,1,2.259,2.259v2.259c0,.377-.188,1.694.377,2.259a2.5,2.5,0,0,0,1.883.565H135.6c.565,0,2.071,0,2.636-3.765.377-3.765.188-8.849-2.259-11.485a5.7,5.7,0,0,0-4.142-1.883c-9.6-.377-20.522,0-20.71,0a2.355,2.355,0,1,1-.188-4.707c.188,0,11.3-.377,20.9,0a10.278,10.278,0,0,1,7.531,3.577c3.954,4.707,3.577,12.049,3.389,15.062C142.194,45.4,139.558,48.225,135.6,48.225Z" transform="translate(-25.54 0.667)" fill="#261f21"/>
      <circle id="Ellipse_231" data-name="Ellipse 231" cx="2.448" cy="2.448" r="2.448" transform="translate(103.852 30.065)" fill="#261f21"/>
      <path id="Path_874" data-name="Path 874" d="M83.589,32.078a3.389,3.389,0,1,1,3.389-3.389A3.5,3.5,0,0,1,83.589,32.078Zm0-5.083A1.506,1.506,0,1,0,85.1,28.5,1.62,1.62,0,0,0,83.589,26.994Z" transform="translate(22.71 4.012)" fill="#1c1719"/>
      <path id="Path_875" data-name="Path 875" d="M61.47,11.364c-6.778.753-13.179,2.636-18.451,6.59a18.765,18.765,0,0,0-3.954,3.765,34.377,34.377,0,0,0-2.448,3.012c-4.9,6.966-3.765,14.685-3.765,22.969a7.409,7.409,0,0,0,7.154,7.719H97.618a7.409,7.409,0,0,0,7.154-7.719V31.885c0-13.744-13.367-18.451-23.911-19.769A73.492,73.492,0,0,0,61.47,11.364Z" transform="translate(-19.184 -8.598)" fill="#87d5cb"/>
      <path id="Path_876" data-name="Path 876" d="M98.66,58.623H41.049c-5.272,0-9.414-4.519-9.414-9.978V44.691c-.188-6.778-.377-13.744,4.142-20.333a41.351,41.351,0,0,1,2.636-3.389,28.368,28.368,0,0,1,4.33-3.954c5.083-3.765,11.673-6.213,19.58-6.966a91.282,91.282,0,0,1,19.957.565c16.756,2.259,25.982,9.978,25.982,22.028V48.456C108.074,54.1,103.744,58.623,98.66,58.623ZM69.1,14.567c-2.259,0-4.33.188-6.4.377h0c-7.154.753-12.8,2.824-17.133,6.025A21.15,21.15,0,0,0,41.8,24.358l-2.259,2.824c-3.577,5.272-3.577,10.92-3.389,17.509v4.142c0,3.012,2.071,5.272,4.707,5.272H98.472c2.636,0,4.707-2.448,4.707-5.272v-16c0-12.049-11.861-16.191-21.84-17.321A71,71,0,0,0,69.1,14.567ZM62.512,12.5Z" transform="translate(-20.225 -9.731)" fill="#261f21"/>
    </g>
  </g>
</svg>
