<svg xmlns="http://www.w3.org/2000/svg" width="22.418" height="23.049" viewBox="0 0 22.418 23.049">
  <g id="Group_4110" data-name="Group 4110" transform="translate(-2050 -3436)">
    <path id="Path_1272" data-name="Path 1272" d="M19.749,23.049H2.669A2.693,2.693,0,0,1,0,20.38V2.669A2.693,2.693,0,0,1,2.669,0h17.08a2.693,2.693,0,0,1,2.669,2.669V20.38A2.661,2.661,0,0,1,19.749,23.049ZM2.669,1.213A1.43,1.43,0,0,0,1.213,2.669V20.38a1.43,1.43,0,0,0,1.456,1.456h17.08A1.43,1.43,0,0,0,21.2,20.38V2.669a1.43,1.43,0,0,0-1.456-1.456Z" transform="translate(2050 3436)" fill="#5e59ed"/>
    <path id="Path_1273" data-name="Path 1273" d="M19.586,26.918H14.054a2.693,2.693,0,0,1-2.669-2.669L10.9,15.417A2.7,2.7,0,0,1,13.569,12.7h6.5a2.693,2.693,0,0,1,2.669,2.669l-.485,8.88A2.693,2.693,0,0,1,19.586,26.918Zm-6.017-13a1.43,1.43,0,0,0-1.456,1.456L12.6,24.2a1.471,1.471,0,0,0,1.456,1.5h5.532a1.43,1.43,0,0,0,1.456-1.456l.485-8.88a1.419,1.419,0,0,0-1.456-1.407h-6.5Z" transform="translate(2044.389 3429.463)" fill="#5e59ed"/>
    <path id="Path_1274" data-name="Path 1274" d="M22.065,7.147H19.3V7c0-.679-.534-1.6-1.359-1.6H14.107c-.825,0-1.359.97-1.359,1.6v.146H9.982a.635.635,0,0,0-.582.631.59.59,0,0,0,.582.582H22.065a.59.59,0,0,0,.582-.582A.633.633,0,0,0,22.065,7.147Zm-7.958,0A.129.129,0,0,1,13.961,7a.5.5,0,0,1,.194-.388h3.736A.5.5,0,0,1,18.086,7a.129.129,0,0,1-.146.146Z" transform="translate(2045.161 3433.22)" fill="#5e59ed"/>
    <path id="Path_1275" data-name="Path 1275" d="M19.082,27.071a.59.59,0,0,1-.582-.582V18.482a.59.59,0,0,1,.582-.582.626.626,0,0,1,.582.582v8.006A.535.535,0,0,1,19.082,27.071Z" transform="translate(2040.477 3426.786)" fill="#5e59ed"/>
    <path id="Path_1276" data-name="Path 1276" d="M25.782,27.071a.59.59,0,0,1-.582-.582V18.482a.59.59,0,0,1,.582-.582.626.626,0,0,1,.582.582v8.006A.535.535,0,0,1,25.782,27.071Z" transform="translate(2037.028 3426.786)" fill="#5e59ed"/>
  </g>
</svg>
