<svg xmlns="http://www.w3.org/2000/svg" width="15.552" height="16.213" viewBox="0 0 15.552 16.213">
  <g id="Group_4145" data-name="Group 4145" transform="translate(-6.832 -4.95)">
    <path id="Path_1974" data-name="Path 1974" d="M14.6,5a1.16,1.16,0,0,0-.646,2.124A6.271,6.271,0,0,0,8.42,13.107H8.231a1.349,1.349,0,0,0-1.349,1.349.168.168,0,0,0,.168.168h15.1a.168.168,0,0,0,.168-.168,1.349,1.349,0,0,0-1.349-1.349h-.19a6.192,6.192,0,0,0-5.534-5.983A1.16,1.16,0,0,0,14.6,5Zm0,1.986a.825.825,0,1,1,.825-.829.825.825,0,0,1-.825.829Zm-5.85,6.12a5.851,5.851,0,0,1,11.7,0ZM7.231,14.288a1.015,1.015,0,0,1,1-.846h12.74a1.015,1.015,0,0,1,1,.846H7.231Z" transform="translate(0)" fill="#5e59ed" stroke="#5e59ed" stroke-width="0.1"/>
    <path id="Path_1975" data-name="Path 1975" d="M14.6,8.913a.163.163,0,0,1,.034.322.2.2,0,0,1-.035,0,.163.163,0,0,1-.036-.322.177.177,0,0,1,.036,0m0-.358a.549.549,0,0,0-.1.01A.521.521,0,0,0,14.6,9.6a.55.55,0,0,0,.1-.01.521.521,0,0,0-.1-1.032Zm7.644,11.4c-.5-.9-1.892-.182-3.816.815l-.351.181c-.146.076-.294.153-.443.228L17.6,21.2a4.831,4.831,0,0,1-2.158.479,7.783,7.783,0,0,1-2.007-.288.084.084,0,0,1-.053-.04.1.1,0,0,1-.01-.074.1.1,0,0,1,.048-.062.087.087,0,0,1,.07-.007,5.615,5.615,0,0,0,4.022-.176c.515-.267.578-.4.605-.651a.81.81,0,0,0-.842-1.045c-2.5.048-2.945-.215-3.469-.527-.508-.291-1.084-.621-4.1-.675a.773.773,0,0,0-.551.227.788.788,0,0,0-.235.558v3.241a.806.806,0,0,0,.457.728,9.868,9.868,0,0,0,4.539,1.146c2.107,0,4.8-.7,7.946-3.113l.026-.015A.728.728,0,0,0,22.245,19.956Zm-.541.662-.035.016-.016.016C15.379,25.466,10.971,23.3,9.521,22.584a.465.465,0,0,1-.269-.426V18.917a.451.451,0,0,1,.138-.322.446.446,0,0,1,.322-.128c2.915.054,3.452.36,3.932.635.555.33,1.036.615,3.637.567a.6.6,0,0,1,.4.146.67.67,0,0,1,.1.524c-.015.132-.02.182-.422.39a5.3,5.3,0,0,1-3.782.153.417.417,0,0,0-.326.039.436.436,0,0,0-.206.268.43.43,0,0,0,.045.332.413.413,0,0,0,.26.194,8.094,8.094,0,0,0,2.088.3,5.163,5.163,0,0,0,2.269-.5l.04-.018c.163-.082.325-.166.483-.248l.349-.18h0c1.883-.976,3.049-1.526,3.369-.95.122.22-.146.431-.247.5ZM7.861,18.11H7.787a.9.9,0,0,0-.905.9V21.9a.908.908,0,0,0,.905.909h.074a.908.908,0,0,0,.905-.909V19.012A.9.9,0,0,0,7.861,18.11ZM8.431,21.9a.572.572,0,0,1-.569.573H7.787a.572.572,0,0,1-.57-.573V19.012a.575.575,0,0,1,.57-.566h.074a.568.568,0,0,1,.569.566Z" transform="translate(0 -2.919)" fill="#5e59ed" stroke="#5e59ed" stroke-width="0.1"/>
    <path id="Path_1976" data-name="Path 1976" d="M9.956,80.061a.477.477,0,1,0,.477.481A.477.477,0,0,0,9.956,80.061Zm0,.618a.139.139,0,0,1-.141-.137.141.141,0,1,1,.283,0A.14.14,0,0,1,9.956,80.679Z" transform="translate(-2.132 -61.622)" fill="#5e59ed" stroke="#5e59ed" stroke-width="0.1"/>
  </g>
</svg>
