<svg xmlns="http://www.w3.org/2000/svg" width="11.108" height="13.506" viewBox="0 0 11.108 13.506">
  <g id="Group_3698" data-name="Group 3698" transform="translate(-162.7 -95.849)">
    <path id="Path_1729" data-name="Path 1729" d="M31.753,23.578h-4.84A.92.92,0,0,1,26,22.665V17.613a.92.92,0,0,1,.913-.913h4.84a.92.92,0,0,1,.913.913v5.052A.906.906,0,0,1,31.753,23.578Z" transform="translate(140.842 81.55)" fill="#fff" stroke="#444" stroke-linecap="round" stroke-miterlimit="10" stroke-width="0.6"/>
    <g id="Group_3697" data-name="Group 3697" transform="translate(163.295 96.714)">
      <path id="Path_1723" data-name="Path 1723" d="M0,85.331H5.181v3.454H0Z" transform="translate(1.087 -84.263)" fill="#f0f0f0"/>
      <path id="Path_1724" data-name="Path 1724" d="M0,85.331H5.181v1.922H0Z" transform="translate(1.087 -85.331)" fill="#a7dc80"/>
      <path id="Path_1725" data-name="Path 1725" d="M0,312.882H5.181V314.8H0Z" transform="translate(1.087 -308.824)" fill="#3b3b3b"/>
      <path id="Path_1726" data-name="Path 1726" d="M0,85.331H2.152v5.98H0Z" transform="translate(0 -85.331)" fill="#ef506d"/>
    </g>
    <path id="Path_1727" data-name="Path 1727" d="M0,12.906V0" transform="translate(163 96.149)" fill="none" stroke="#444" stroke-linecap="round" stroke-width="0.6"/>
    <path id="Path_1728" data-name="Path 1728" d="M13.531,14.783H8.713a.92.92,0,0,1-.913-.913V9.413A.92.92,0,0,1,8.713,8.5h4.819a.92.92,0,0,1,.913.913v4.458A.906.906,0,0,1,13.531,14.783Z" transform="translate(155.307 87.937)" fill="none" stroke="#444" stroke-miterlimit="10" stroke-width="0.6"/>
    <path id="Path_1730" data-name="Path 1730" d="M1.853.385,0,2.659" transform="translate(167.352 102.299)" fill="none" stroke="#444" stroke-linecap="round" stroke-width="0.6"/>
  </g>
</svg>
