<svg xmlns="http://www.w3.org/2000/svg" width="22.418" height="23.049" viewBox="0 0 22.418 23.049">
  <g id="Group_2088" data-name="Group 2088" transform="translate(-2050.499 -3435.541)">
    <path id="Path_1272" data-name="Path 1272" d="M19.749,23.049H2.669A2.693,2.693,0,0,1,0,20.38V2.669A2.693,2.693,0,0,1,2.669,0h17.08a2.693,2.693,0,0,1,2.669,2.669V20.38A2.661,2.661,0,0,1,19.749,23.049ZM2.669,1.213A1.43,1.43,0,0,0,1.213,2.669V20.38a1.43,1.43,0,0,0,1.456,1.456h17.08A1.43,1.43,0,0,0,21.2,20.38V2.669a1.43,1.43,0,0,0-1.456-1.456Z" transform="translate(2050.499 3435.541)" fill="#5e59ed"/>
    <path id="Path_1963" data-name="Path 1963" d="M13.657,2.343a2,2,0,0,1,0,2.828L6.27,12.558a2.5,2.5,0,0,1-1.161.658l-2.291.573a.5.5,0,0,1-.606-.606l.573-2.291A2.5,2.5,0,0,1,3.442,9.73l7.386-7.386A2,2,0,0,1,13.657,2.343ZM10.121,4.464,4.149,10.437a1.5,1.5,0,0,0-.395.7l-.371,1.483,1.483-.371a1.5,1.5,0,0,0,.7-.395l5.972-5.973ZM11.535,3.05l-.707.707,1.414,1.414.708-.707A1,1,0,0,0,11.535,3.05Z" transform="translate(2053.303 3439.784)" fill="#5e59ed"/>
  </g>
</svg>
