<svg id="Group_1938" data-name="Group 1938" xmlns="http://www.w3.org/2000/svg" width="29.122" height="21.21" viewBox="0 0 29.122 21.21">
  <g id="Group_1876" data-name="Group 1876" transform="translate(0 0)">
    <path id="Path_1355" data-name="Path 1355" d="M12.326,8.624c-1.885,0-4.331.866-4.229,3.159v9.478h3.72V18.1h5.707V21.16H21.5V12.4h2.854c.357,0,.255,2.038.255,2.242,0,1.223,0,2.446,1.07,3.261,1.631,1.274,3.72.662,5.045-.713a5.652,5.652,0,0,0,1.427-2.446,3.368,3.368,0,0,0,.153-1.733c-.2-.662-1.019-.611-1.529-.255a1.444,1.444,0,0,0-.561.866,7.864,7.864,0,0,1-.866,2.14,1.078,1.078,0,0,1-1.07.459c-1.427-.1-1.121-3.312-1.07-4.331.051-2.446.662-3.873-.153-6.217a4.17,4.17,0,0,0-2.14-2.5c-1.325-.611-2.5-.153-3.822.2-.968.255-1.987-.408-2.8-.815a11.569,11.569,0,0,0-3.159-1.07,4.226,4.226,0,0,0-2.854.306A3.425,3.425,0,0,0,10.7,4.038a4.472,4.472,0,0,0,.611,2.8,12.225,12.225,0,0,0,4.026,4.637,3.276,3.276,0,0,0,2.191.51c1.733-.255,3.057-2.089,3.618-3.618" transform="translate(-3.939 -0.664)" fill="#ccc"/>
    <path id="Path_1356" data-name="Path 1356" d="M11.177,21.187H7.457a.667.667,0,0,1-.662-.611V11.1a3.137,3.137,0,0,1,.866-2.344,5.026,5.026,0,0,1,3.006-1.376,5.809,5.809,0,0,1-.51-.968A4.979,4.979,0,0,1,9.5,3.2,4.213,4.213,0,0,1,11.381.5,4.749,4.749,0,0,1,14.642.091a12.707,12.707,0,0,1,3.312,1.121l.306.153a3.353,3.353,0,0,0,2.038.611l.611-.153a5.051,5.051,0,0,1,3.669,0,4.757,4.757,0,0,1,2.5,2.9,9.249,9.249,0,0,1,.306,4.484c-.051.611-.1,1.223-.153,1.936v.408c-.1,2.956.306,3.261.51,3.312a.591.591,0,0,0,.51-.2,3.543,3.543,0,0,0,.51-1.172c.1-.255.153-.561.255-.815a2.35,2.35,0,0,1,.815-1.121,1.923,1.923,0,0,1,1.631-.306,1.416,1.416,0,0,1,.866.917,3.609,3.609,0,0,1-.153,2.089,5.685,5.685,0,0,1-1.631,2.752c-1.427,1.478-3.924,2.344-5.911.764A4.232,4.232,0,0,1,23.3,14.1v-.255a9.951,9.951,0,0,0-.051-1.478H21.419v8.1a.62.62,0,0,1-.611.611H16.833a.62.62,0,0,1-.611-.611V18.028H11.789v2.5A.6.6,0,0,1,11.177,21.187ZM8.12,20.525Zm0-.611h2.446v-2.5a.62.62,0,0,1,.611-.611h5.707a.62.62,0,0,1,.611.611v2.446h2.7V11.709a.62.62,0,0,1,.611-.611h2.9c.866,0,.917,1.07.917,2.752v.2c0,1.274.051,2.089.815,2.7,1.376,1.07,3.108.459,4.229-.662A5.067,5.067,0,0,0,30.948,13.9a2.722,2.722,0,0,0,.153-1.376.05.05,0,0,0-.051-.051.7.7,0,0,0-.51.1,1.518,1.518,0,0,0-.357.561,2.921,2.921,0,0,0-.2.713,4,4,0,0,1-.713,1.58,1.8,1.8,0,0,1-1.58.713c-1.885-.1-1.783-3.057-1.733-4.637v-.357c0-.764.1-1.427.153-2.038a8.23,8.23,0,0,0-.255-3.975A3.518,3.518,0,0,0,24.018,3a3.831,3.831,0,0,0-2.8.1L20.6,3.25a4.166,4.166,0,0,1-2.956-.713l-.306-.153a11.937,11.937,0,0,0-2.956-1.019,3.341,3.341,0,0,0-2.395.255,2.842,2.842,0,0,0-1.274,1.834,3.792,3.792,0,0,0,.561,2.395A10.981,10.981,0,0,0,15.1,10.231a2.463,2.463,0,0,0,1.783.408c1.376-.2,2.548-1.783,3.108-3.21a.629.629,0,1,1,1.172.459c-.611,1.682-2.089,3.72-4.128,4.026a3.753,3.753,0,0,1-2.65-.611,13.355,13.355,0,0,1-2.9-2.7,4.484,4.484,0,0,0-2.9,1.019,1.839,1.839,0,0,0-.51,1.427Z" transform="translate(-3.299 0.022)" fill="#261f21"/>
    <circle id="Ellipse_280" data-name="Ellipse 280" cx="0.662" cy="0.662" r="0.662" transform="translate(18.681 6.84)" fill="#261f21"/>
    <path id="Path_1357" data-name="Path 1357" d="M37.017,14.734a.917.917,0,1,1,.917-.917A.913.913,0,0,1,37.017,14.734Zm0-1.376a.4.4,0,0,0-.408.408.408.408,0,0,0,.815,0A.4.4,0,0,0,37.017,13.359Z" transform="translate(-17.674 -6.315)" fill="#261f21"/>
    <path id="Path_1358" data-name="Path 1358" d="M1.856,24.693h0c-1.274,0-1.631-1.07-1.885-1.733a.646.646,0,0,1,.408-.815.627.627,0,0,1,.815.408c.255.713.357.866.662.866h0c.561,0,1.121-1.936,1.325-2.65.153-.459.255-.815.357-1.121a.65.65,0,1,1,1.172.561,6.373,6.373,0,0,0-.306.917C4,22.654,3.384,24.693,1.856,24.693Z" transform="translate(0.061 -9.445)" fill="#261f21"/>
  </g>
</svg>
