<svg xmlns="http://www.w3.org/2000/svg" width="110.205" height="133.961" viewBox="0 0 110.205 133.961">
  <g id="Group_49" data-name="Group 49" transform="translate(2.5 2.5)">
    <path id="Path_8" data-name="Path 8" d="M83.481,85.422H35.121A9.188,9.188,0,0,1,26,76.3V25.821A9.188,9.188,0,0,1,35.121,16.7h48.36A9.188,9.188,0,0,1,92.6,25.821V76.3A9.053,9.053,0,0,1,83.481,85.422Z" transform="translate(12.603 4.299)" fill="#19c6c0" stroke="#5e59ed" stroke-linecap="round" stroke-miterlimit="10" stroke-width="5"/>
    <path id="Path_512" data-name="Path 512" d="M0,128.961V0" transform="translate(0.212)" fill="none" stroke="#5e59ed" stroke-linecap="round" stroke-width="5"/>
    <path id="Path_9" data-name="Path 9" d="M65.069,71.284H16.921A9.188,9.188,0,0,1,7.8,62.163V17.621A9.188,9.188,0,0,1,16.921,8.5H65.069a9.188,9.188,0,0,1,9.121,9.121V62.163A9.053,9.053,0,0,1,65.069,71.284Z" transform="translate(-7.8 -4.894)" fill="#86f8d1" stroke="#5e59ed" stroke-miterlimit="10" stroke-width="5"/>
    <line id="Line_50" data-name="Line 50" x1="19.09" y2="23.544" transform="translate(43.694 64.48)" fill="none" stroke="#5e59ed" stroke-linecap="round" stroke-miterlimit="10" stroke-width="5"/>
  </g>
</svg>
