<svg xmlns="http://www.w3.org/2000/svg" width="104.81" height="127.347" viewBox="0 0 104.81 127.347">
  <g id="Group_49" data-name="Group 49" transform="translate(2.5 2.5)">
    <path id="Path_8" data-name="Path 8" d="M80.533,81.9H34.653A8.717,8.717,0,0,1,26,73.245V25.353A8.717,8.717,0,0,1,34.653,16.7h45.88a8.717,8.717,0,0,1,8.653,8.653V73.245A8.589,8.589,0,0,1,80.533,81.9Z" transform="translate(10.624 3.222)" fill="#19c6c0" stroke="#5e59ed" stroke-linecap="round" stroke-miterlimit="10" stroke-width="5"/>
    <path id="Path_512" data-name="Path 512" d="M0,122.347V0" transform="translate(0.201)" fill="none" stroke="#5e59ed" stroke-linecap="round" stroke-width="5"/>
    <path id="Path_9" data-name="Path 9" d="M62.132,68.064H16.453A8.717,8.717,0,0,1,7.8,59.411V17.153A8.717,8.717,0,0,1,16.453,8.5H62.132a8.717,8.717,0,0,1,8.653,8.653V59.411a8.589,8.589,0,0,1-8.653,8.653Z" transform="translate(-7.8 -5.079)" fill="#86f8d1" stroke="#5e59ed" stroke-miterlimit="10" stroke-width="5"/>
    <line id="Line_50" data-name="Line 50" x1="18.111" y2="22.336" transform="translate(41.453 61.174)" fill="none" stroke="#5e59ed" stroke-linecap="round" stroke-miterlimit="10" stroke-width="5"/>
  </g>
</svg>
