<svg id="Group_1943" data-name="Group 1943" xmlns="http://www.w3.org/2000/svg" width="12.093" height="27.25" viewBox="0 0 12.093 27.25">
  <path id="Path_1377" data-name="Path 1377" d="M10.518,44.036H2.981A1.794,1.794,0,0,1,1.2,42.255V31.281A1.794,1.794,0,0,1,2.981,29.5h7.537A1.794,1.794,0,0,1,12.3,31.281V42.255A1.822,1.822,0,0,1,10.518,44.036Z" transform="translate(-0.703 -17.283)" fill="#b1dcff"/>
  <path id="Path_1378" data-name="Path 1378" d="M9.815,43.83H2.278A2.3,2.3,0,0,1,0,41.552V30.578A2.3,2.3,0,0,1,2.278,28.3H9.815a2.3,2.3,0,0,1,2.278,2.278V41.552A2.271,2.271,0,0,1,9.815,43.83ZM2.278,29.335a1.22,1.22,0,0,0-1.242,1.242V41.552a1.22,1.22,0,0,0,1.242,1.242H9.815a1.22,1.22,0,0,0,1.242-1.242V30.578a1.22,1.22,0,0,0-1.242-1.242Z" transform="translate(0 -16.58)" fill="#261f21"/>
  <path id="Path_1379" data-name="Path 1379" d="M17.047,45.695a.506.506,0,0,1-.373-.166L14.066,42.92a.617.617,0,0,1-.166-.373.506.506,0,0,1,.166-.373l2.609-2.609a.617.617,0,0,1,.373-.166h0a.506.506,0,0,1,.373.166l2.609,2.609a.525.525,0,0,1,0,.745L17.42,45.529A.506.506,0,0,1,17.047,45.695Zm-1.905-3.106,1.905,1.905,1.905-1.905-1.905-1.905Z" transform="translate(-8.144 -23.083)" fill="#261f21"/>
  <path id="Path_1380" data-name="Path 1380" d="M3.247,45.695a.506.506,0,0,1-.373-.166L.266,42.92A.617.617,0,0,1,.1,42.547a.506.506,0,0,1,.166-.373l2.609-2.609a.617.617,0,0,1,.373-.166h0a.506.506,0,0,1,.373.166l2.609,2.609a.525.525,0,0,1,0,.745L3.62,45.529A.506.506,0,0,1,3.247,45.695ZM1.342,42.589l1.905,1.905,1.905-1.905L3.247,40.684Z" transform="translate(-0.059 -23.083)" fill="#261f21"/>
  <path id="Path_1381" data-name="Path 1381" d="M3.262,34.079a.45.45,0,0,1-.373-.166L.28,31.221a.527.527,0,0,1,.745-.745L3.262,32.8,5.084,30.89,3.138,29.441a.492.492,0,0,1-.083-.745.492.492,0,0,1,.745-.083l2.4,1.822a.435.435,0,0,1,.207.373.7.7,0,0,1-.124.414L3.676,33.913A1.075,1.075,0,0,1,3.262,34.079Z" transform="translate(-0.073 -16.685)" fill="#261f21"/>
  <path id="Path_1382" data-name="Path 1382" d="M17.09,34.122a.45.45,0,0,1-.373-.166l-2.609-2.692a.5.5,0,0,1-.124-.414.435.435,0,0,1,.207-.373l2.4-1.822a.53.53,0,0,1,.663.828l-2.029,1.491,1.822,1.905,2.236-2.319a.527.527,0,1,1,.745.745L17.422,34A.791.791,0,0,1,17.09,34.122Z" transform="translate(-8.187 -16.728)" fill="#261f21"/>
  <path id="Path_1383" data-name="Path 1383" d="M16.6,57.591a.47.47,0,0,1-.331-.124L13.992,55.6a.558.558,0,0,1-.207-.373.334.334,0,0,1,.166-.373l2.609-2.692A.617.617,0,0,1,16.932,52h0a.45.45,0,0,1,.373.166l2.443,2.526a.527.527,0,0,1-.745.745l-2.071-2.112L15.11,55.189l1.822,1.491a.565.565,0,0,1,.083.745A.48.48,0,0,1,16.6,57.591Z" transform="translate(-8.07 -30.465)" fill="#261f21"/>
  <path id="Path_1384" data-name="Path 1384" d="M3.552,57.632a.575.575,0,0,1-.414-.207.532.532,0,0,1,.083-.745l1.905-1.532L3.262,53.242,1.026,55.479a.527.527,0,0,1-.745-.745l2.609-2.568A.45.45,0,0,1,3.262,52h0a.45.45,0,0,1,.373.166l2.609,2.692a.744.744,0,0,1,.166.373A.435.435,0,0,1,6.2,55.6L3.883,57.467A.428.428,0,0,1,3.552,57.632Z" transform="translate(-0.073 -30.465)" fill="#261f21"/>
  <line id="Line_513" data-name="Line 513" x2="0.166" y2="10.395" transform="translate(5.881 0.497)" fill="#fff"/>
  <path id="Path_1385" data-name="Path 1385" d="M13.663,11.43a.478.478,0,0,1-.5-.5L13,.538A.518.518,0,0,1,14.035.5L14.2,10.892a.548.548,0,0,1-.538.538Z" transform="translate(-7.616 0)" fill="#261f21"/>
  <line id="Line_514" data-name="Line 514" x2="2.071" y2="10.85" transform="translate(3.727 1.242)" fill="#fff"/>
  <path id="Path_1386" data-name="Path 1386" d="M10.359,13.577a.492.492,0,0,1-.5-.414L7.791,2.312a.528.528,0,0,1,1.035-.207L10.9,12.956a.549.549,0,0,1-.414.621Z" transform="translate(-4.561 -0.987)" fill="#261f21"/>
  <line id="Line_515" data-name="Line 515" x1="4.597" y2="7.827" transform="translate(5.798 4.266)" fill="#fff"/>
  <path id="Path_1387" data-name="Path 1387" d="M13.275,17.858a.589.589,0,0,1-.248-.083.531.531,0,0,1-.207-.7l4.6-7.827a.485.485,0,0,1,.7-.166.531.531,0,0,1,.207.7l-4.555,7.827A.59.59,0,0,1,13.275,17.858Z" transform="translate(-7.477 -5.268)" fill="#261f21"/>
  <line id="Line_516" data-name="Line 516" x2="5.135" y2="4.928" transform="translate(0.663 7.165)" fill="#fff"/>
  <path id="Path_1388" data-name="Path 1388" d="M6.047,21.978a.668.668,0,0,1-.373-.124L.58,16.926a.527.527,0,0,1,.745-.745l5.135,4.928a.525.525,0,0,1,0,.745A.7.7,0,0,1,6.047,21.978Z" transform="translate(-0.249 -9.389)" fill="#261f21"/>
  <line id="Line_517" data-name="Line 517" x1="5.135" y2="4.928" transform="translate(5.798 7.165)" fill="#fff"/>
  <path id="Path_1389" data-name="Path 1389" d="M13.253,21.92a.45.45,0,0,1-.373-.166.525.525,0,0,1,0-.745l5.135-4.928a.527.527,0,0,1,.745.745L13.626,21.8A.668.668,0,0,1,13.253,21.92Z" transform="translate(-7.455 -9.33)" fill="#261f21"/>
  <line id="Line_518" data-name="Line 518" x2="4.1" y2="8.158" transform="translate(1.698 3.934)" fill="#fff"/>
  <path id="Path_1390" data-name="Path 1390" d="M7.475,17.432a.509.509,0,0,1-.456-.29l-4.1-8.117a.519.519,0,0,1,.207-.7.511.511,0,0,1,.7.248l4.141,8.158a.511.511,0,0,1-.248.7Z" transform="translate(-1.677 -4.842)" fill="#261f21"/>
  <line id="Line_519" data-name="Line 519" x1="2.65" y2="10.643" transform="translate(5.798 1.449)" fill="#fff"/>
  <path id="Path_1391" data-name="Path 1391" d="M13.267,13.907h-.124a.49.49,0,0,1-.373-.621L15.42,2.643a.512.512,0,0,1,.994.248l-2.65,10.643A.459.459,0,0,1,13.267,13.907Z" transform="translate(-7.469 -1.317)" fill="#261f21"/>
</svg>
