<svg id="Group_3517" data-name="Group 3517" xmlns="http://www.w3.org/2000/svg" width="19.236" height="27.246" viewBox="0 0 19.236 27.246">
  <path id="Path_1341" data-name="Path 1341" d="M21.729,8.586A1.424,1.424,0,0,0,20.293,7.15a2.722,2.722,0,0,0-2.07.549A2.728,2.728,0,0,0,17.8,9.685c.042.929.211,1.859.211,2.788V12.6c-.042.845-1.014,1.436-1.732,1.647,0-1.563-.042-3.126-.042-4.647V6.516A1.83,1.83,0,0,0,14.421,4.7H12.393a1.83,1.83,0,0,0-1.816,1.816c0,3.422.465,6.97-.042,10.349a3.214,3.214,0,0,1-1.563-1.141c-.591-1.056,0-2.323.042-3.422a2.728,2.728,0,0,0-.422-1.985,2.77,2.77,0,0,0-2.07-.549,1.424,1.424,0,0,0-1.436,1.436c0,1.31-.042,2.661.042,3.971A5.165,5.165,0,0,0,6.184,18.3a4.552,4.552,0,0,0,4.224,1.943,18.338,18.338,0,0,0-.042,2.154,48.478,48.478,0,0,0,.3,4.942c.422,2.577,5.534,3,5.534.211V17.542c1.605.845,3.464-.591,4.435-1.774a5.165,5.165,0,0,0,1.056-3.126C21.771,11.248,21.729,9.938,21.729,8.586Z" transform="translate(-2.957 -2.715)" fill="#87d5cb"/>
  <path id="Path_1342" data-name="Path 1342" d="M13.151,29.152c-1.647,0-3.422-.929-3.675-2.535a29.577,29.577,0,0,1-.253-3.379c0-.549-.042-1.1-.042-1.605a10.735,10.735,0,0,1,.042-1.647,5.008,5.008,0,0,1-4.1-2.2,5.948,5.948,0,0,1-1.183-3.422C3.9,13.4,3.9,12.424,3.9,11.495V10.354A1.938,1.938,0,0,1,5.843,8.411h.042a3.13,3.13,0,0,1,2.408.718,3.381,3.381,0,0,1,.591,2.366,5.318,5.318,0,0,1-.169,1.141,3.143,3.143,0,0,0,.042,1.985,1.537,1.537,0,0,0,.676.591,42.893,42.893,0,0,0,.042-6.167c-.042-1.1-.084-2.281-.084-3.422A2.344,2.344,0,0,1,11.715,3.3h2.028a2.344,2.344,0,0,1,2.323,2.323V8.707c0,.972,0,1.943.042,2.915v.972a1.157,1.157,0,0,0,.676-.887v-.084a8.623,8.623,0,0,0-.127-1.436c-.042-.422-.084-.887-.127-1.31a3,3,0,0,1,.591-2.366,3.084,3.084,0,0,1,2.408-.718h.042a1.938,1.938,0,0,1,1.943,1.943h0v1.1c0,.929,0,1.9-.042,2.872a5.948,5.948,0,0,1-1.183,3.422c-1.1,1.394-2.788,2.492-4.309,2.2v9.293A2.474,2.474,0,0,1,13.4,29.025C13.4,29.152,13.278,29.152,13.151,29.152ZM9.772,18.887a.681.681,0,0,1,.38.127.542.542,0,0,1,.169.422l-.042.422a11.291,11.291,0,0,0-.042,1.69c.042.549.042,1.1.042,1.647a26.156,26.156,0,0,0,.211,3.21c.169,1.141,1.647,1.774,2.915,1.647.465-.042,1.605-.253,1.605-1.394V16.648a.584.584,0,0,1,.253-.465.539.539,0,0,1,.507,0c1.394.718,3.041-.76,3.76-1.647a4.94,4.94,0,0,0,.972-2.83c.042-.929.042-1.9.042-2.83V7.735h0a.892.892,0,0,0-.887-.887h-.084a2.352,2.352,0,0,0-1.647.38,2.138,2.138,0,0,0-.3,1.605,6.032,6.032,0,0,0,.127,1.225c.042.507.127,1.014.127,1.563v.169A2.555,2.555,0,0,1,15.77,13.9a.587.587,0,0,1-.465-.084.52.52,0,0,1-.211-.422c0-.591,0-1.183-.042-1.732,0-.972-.042-1.943-.042-2.915V5.666A1.245,1.245,0,0,0,13.742,4.4H11.715a1.245,1.245,0,0,0-1.267,1.267c0,1.1.042,2.239.084,3.337a39.909,39.909,0,0,1-.127,7.1.537.537,0,0,1-.3.38.456.456,0,0,1-.465,0L9.476,16.4a3.214,3.214,0,0,1-1.605-1.267,3.764,3.764,0,0,1-.169-2.7,4.166,4.166,0,0,0,.127-1.014,2.138,2.138,0,0,0-.3-1.605c-.338-.38-1.056-.38-1.647-.38H5.843a.892.892,0,0,0-.887.887v1.141c0,.929,0,1.9.042,2.83a4.656,4.656,0,0,0,.972,2.83,4.074,4.074,0,0,0,3.76,1.774Z" transform="translate(-2.279 -1.906)" fill="#261f21"/>
  <path id="Path_1343" data-name="Path 1343" d="M22.707,13.785a.514.514,0,0,1-.507-.507v-.972a.514.514,0,0,1,.507-.507.545.545,0,0,1,.507.507v.972A.466.466,0,0,1,22.707,13.785Z" transform="translate(-12.849 -6.815)" fill="#261f21"/>
  <path id="Path_1344" data-name="Path 1344" d="M23.6,2.028a.514.514,0,0,1-.507-.507V.507A.487.487,0,0,1,23.6,0a.514.514,0,0,1,.507.507v.972A.5.5,0,0,1,23.6,2.028Z" transform="translate(-13.362 0)" fill="#261f21"/>
  <path id="Path_1345" data-name="Path 1345" d="M39.107,8.228a.514.514,0,0,1-.507-.507V6.707a.514.514,0,0,1,.507-.507.545.545,0,0,1,.507.507v.972A.5.5,0,0,1,39.107,8.228Z" transform="translate(-22.321 -3.581)" fill="#261f21"/>
  <path id="Path_1346" data-name="Path 1346" d="M8.707,14.185a.514.514,0,0,1-.507-.507v-.972a.514.514,0,0,1,.507-.507.545.545,0,0,1,.507.507v.972A.514.514,0,0,1,8.707,14.185Z" transform="translate(-4.762 -7.046)" fill="#261f21"/>
  <path id="Path_1347" data-name="Path 1347" d="M39.573,32.141a.52.52,0,0,1-.422-.211l-1.69-2.45a.516.516,0,0,1,.845-.591L40,31.338a.492.492,0,0,1-.127.718A.783.783,0,0,1,39.573,32.141Z" transform="translate(-21.605 -16.553)" fill="#261f21"/>
  <path id="Path_1348" data-name="Path 1348" d="M.585,24.5a.457.457,0,0,1-.465-.3.541.541,0,0,1,.211-.718l2.45-1.267a.529.529,0,0,1,.507.929L.839,24.417A.417.417,0,0,1,.585,24.5Z" transform="translate(-0.062 -12.8)" fill="#261f21"/>
  <path id="Path_1349" data-name="Path 1349" d="M26.807,18.585a.514.514,0,0,1-.507-.507v-.972a.514.514,0,0,1,.507-.507.545.545,0,0,1,.507.507v.929A.524.524,0,0,1,26.807,18.585Z" transform="translate(-15.217 -9.588)" fill="#261f21"/>
  <path id="Path_1350" data-name="Path 1350" d="M8.249,27.685a.553.553,0,0,1-.549-.507v-.972a.524.524,0,0,1,.549-.507.514.514,0,0,1,.507.507v.972A.488.488,0,0,1,8.249,27.685Z" transform="translate(-4.474 -14.844)" fill="#261f21"/>
  <path id="Path_1351" data-name="Path 1351" d="M38.807,22.285a.514.514,0,0,1-.507-.507v-.972a.514.514,0,0,1,.507-.507.545.545,0,0,1,.507.507v.972A.487.487,0,0,1,38.807,22.285Z" transform="translate(-22.148 -11.725)" fill="#261f21"/>
  <path id="Path_1352" data-name="Path 1352" d="M22.007,38.185a.514.514,0,0,1-.507-.507v-.972a.514.514,0,0,1,.507-.507.545.545,0,0,1,.507.507v.972A.466.466,0,0,1,22.007,38.185Z" transform="translate(-12.444 -20.908)" fill="#261f21"/>
  <path id="Path_1353" data-name="Path 1353" d="M27.107,48.485a.514.514,0,0,1-.507-.507v-.972a.514.514,0,0,1,.507-.507.507.507,0,0,1,.507.465v1.014A.488.488,0,0,1,27.107,48.485Z" transform="translate(-15.39 -26.857)" fill="#261f21"/>
  <path id="Path_1354" data-name="Path 1354" d="M14.69,53.552a.48.48,0,0,1-.338-.127.535.535,0,0,1-.042-.76l1.816-2.112a.538.538,0,1,1,.8.718l-1.816,2.112A.75.75,0,0,1,14.69,53.552Z" transform="translate(-8.211 -29.093)" fill="#261f21"/>
</svg>
