<svg id="Group_1936" data-name="Group 1936" xmlns="http://www.w3.org/2000/svg" width="15.998" height="30.273" viewBox="0 0 15.998 30.273">
  <path id="Path_1333" data-name="Path 1333" d="M23.617,61.451a.524.524,0,0,1-.517-.517V57.317a.524.524,0,0,1,.517-.517.556.556,0,0,1,.517.517v3.574A.509.509,0,0,1,23.617,61.451Z" transform="translate(-13.163 -32.34)" fill="#261f21"/>
  <path id="Path_1334" data-name="Path 1334" d="M17.917,62.614A.524.524,0,0,1,17.4,62.1v-4.78a.524.524,0,0,1,.517-.517.556.556,0,0,1,.517.517v4.737A.509.509,0,0,1,17.917,62.614Z" transform="translate(-9.918 -32.34)" fill="#261f21"/>
  <path id="Path_1335" data-name="Path 1335" d="M12.217,61.451a.524.524,0,0,1-.517-.517V57.317a.524.524,0,0,1,.517-.517.556.556,0,0,1,.517.517v3.574A.509.509,0,0,1,12.217,61.451Z" transform="translate(-6.672 -32.34)" fill="#261f21"/>
  <path id="Path_1336" data-name="Path 1336" d="M25.23,44.046a2.344,2.344,0,0,1-1.679-.689l-.861-.861a2.391,2.391,0,0,1,0-3.359l.947-.947a2.391,2.391,0,0,1,3.359,0l.861.861a2.418,2.418,0,0,1,0,3.359l-.947.947A2.344,2.344,0,0,1,25.23,44.046Zm.129-5.426a1.173,1.173,0,0,0-.9.388l-.947.947a1.239,1.239,0,0,0-.388.9,1.173,1.173,0,0,0,.388.9l.861.861a1.249,1.249,0,0,0,1.809,0l.947-.947a1.249,1.249,0,0,0,0-1.809l-.861-.861A1.239,1.239,0,0,0,25.359,38.62Z" transform="translate(-12.537 -21.351)" fill="#261f21"/>
  <path id="Path_1337" data-name="Path 1337" d="M3.244,43.546a2.344,2.344,0,0,1-1.679-.689L.7,42a2.418,2.418,0,0,1,0-3.359l.947-.947a2.391,2.391,0,0,1,3.359,0l.861.861a2.418,2.418,0,0,1,0,3.359l-.947.947A2.344,2.344,0,0,1,3.244,43.546ZM2.3,42.125a1.249,1.249,0,0,0,1.809,0l.947-.947a1.249,1.249,0,0,0,0-1.809l-.861-.861a1.329,1.329,0,0,0-1.809,0l-.947.947a1.249,1.249,0,0,0,0,1.809Z" transform="translate(-0.025 -21.067)" fill="#261f21"/>
  <path id="Path_1338" data-name="Path 1338" d="M14.315,22.9s7.192-10.766-3.747-21.7h-.043c-10.895,10.938-3.7,21.7-3.7,21.7Z" transform="translate(-2.569 -0.683)" fill="#9996cf"/>
  <path id="Path_1339" data-name="Path 1339" d="M13.658,22.78H6.165a.474.474,0,0,1-.431-.258C5.649,22.393-1.586,11.283,9.524.129A.526.526,0,0,1,9.912,0a.553.553,0,0,1,.431.172c11.11,11.11,3.876,22.264,3.79,22.393A.692.692,0,0,1,13.658,22.78ZM6.467,21.7h6.89c.99-1.636,5.77-10.809-3.445-20.412C.7,10.895,5.476,20.067,6.467,21.7Z" transform="translate(-1.913 0)" fill="#261f21"/>
  <circle id="Ellipse_279" data-name="Ellipse 279" cx="1.938" cy="1.938" r="1.938" transform="translate(6.018 6.675)" fill="#fff"/>
  <path id="Path_1340" data-name="Path 1340" d="M15.255,19.309A2.453,2.453,0,0,1,12.8,16.855a2.455,2.455,0,1,1,4.909,0A2.453,2.453,0,0,1,15.255,19.309Zm0-3.876a1.388,1.388,0,0,0-1.378,1.378,1.378,1.378,0,0,0,2.756,0A1.388,1.388,0,0,0,15.255,15.434Z" transform="translate(-7.299 -8.199)" fill="#261f21"/>
</svg>
