<svg xmlns="http://www.w3.org/2000/svg" width="17.312" height="18.284" viewBox="0 0 17.312 18.284">
  <g id="Group_1328" data-name="Group 1328" transform="translate(0.08 -0.01)">
    <g id="Group_1321" data-name="Group 1321" transform="translate(1.43 1.801)">
      <g id="Group_1320" data-name="Group 1320">
        <path id="Path_966" data-name="Path 966" d="M17.394,20.5H6.5a1.717,1.717,0,0,1-1.7-1.7V7.5A1.717,1.717,0,0,1,6.5,5.8H17.394a1.717,1.717,0,0,1,1.7,1.7V18.8A1.717,1.717,0,0,1,17.394,20.5ZM6.5,6.574a.912.912,0,0,0-.928.928V18.8a.912.912,0,0,0,.928.928H17.394a.912.912,0,0,0,.928-.928V7.5a.912.912,0,0,0-.928-.928Z" transform="translate(-4.8 -5.8)" fill="#5e59ed"/>
      </g>
    </g>
    <g id="Group_1327" data-name="Group 1327" transform="translate(-0.08 0.01)">
      <g id="Group_1323" data-name="Group 1323" transform="translate(7.38 7.724)">
        <path id="Path_967" data-name="Path 967" d="M28.638,30.612a.336.336,0,0,1-.278-.124L23.873,25.63a.394.394,0,1,1,.588-.526l4.487,4.889a.394.394,0,0,1-.031.557A.618.618,0,0,1,28.638,30.612Z" transform="translate(-23.771 -24.971)" fill="#5e59ed"/>
        <g id="Group_1322" data-name="Group 1322" transform="translate(2.326 2.635)">
          <path id="Path_968" data-name="Path 968" d="M38.737,41.618l.248-.248a1.317,1.317,0,0,0,.062-1.857l-3.868-4.239a1.317,1.317,0,0,0-1.857-.062l-.248.248a1.317,1.317,0,0,0-.062,1.857l3.93,4.239A1.242,1.242,0,0,0,38.737,41.618Z" transform="translate(-32.235 -34.435)" fill="#fff"/>
          <path id="Path_969" data-name="Path 969" d="M36.923,41.413a1.6,1.6,0,0,1-1.238-.557l-3.961-4.27a1.651,1.651,0,0,1-.433-1.238,1.7,1.7,0,0,1,.557-1.176l.248-.248a1.651,1.651,0,0,1,1.238-.433,1.7,1.7,0,0,1,1.176.557l3.93,4.239a1.711,1.711,0,0,1-.093,2.414l-.248.248A1.832,1.832,0,0,1,36.923,41.413Zm-3.682-7.148a.864.864,0,0,0-.619.248l-.248.248a1,1,0,0,0-.309.65.931.931,0,0,0,.248.681l3.93,4.239a1,1,0,0,0,.65.309.931.931,0,0,0,.681-.248h0l.248-.248a.926.926,0,0,0,.062-1.3l-3.961-4.27a1,1,0,0,0-.65-.309Z" transform="translate(-31.287 -33.487)" fill="#5e59ed"/>
        </g>
      </g>
      <g id="Group_1326" data-name="Group 1326">
        <g id="Group_1324" data-name="Group 1324">
          <circle id="Ellipse_243" data-name="Ellipse 243" cx="4.394" cy="4.394" r="4.394" transform="translate(0.396 0.368)" fill="#fff"/>
          <path id="Path_970" data-name="Path 970" d="M4.71,9.537a4.546,4.546,0,0,1-1.423-.217A4.8,4.8,0,0,1,.471,6.969a4.754,4.754,0,0,1-.34-3.62,4.825,4.825,0,0,1,6-3.125A4.766,4.766,0,0,1,4.71,9.537ZM4.71.78A3.994,3.994,0,0,0,1.182,6.628,3.877,3.877,0,0,0,3.534,8.578,4,4,0,0,0,5.917.935,5.376,5.376,0,0,0,4.71.78Z" transform="translate(0.08 -0.01)" fill="#5e59ed"/>
        </g>
        <g id="Group_1325" data-name="Group 1325" transform="translate(1.536 1.508)">
          <circle id="Ellipse_244" data-name="Ellipse 244" cx="2.878" cy="2.878" r="2.878" transform="translate(0.377 0.377)" fill="#fff"/>
          <path id="Path_971" data-name="Path 971" d="M8.137,11.417a3.451,3.451,0,0,1-.959-.155A3.2,3.2,0,0,1,5.259,9.653a3.151,3.151,0,0,1-.217-2.475A3.208,3.208,0,0,1,9.1,5.043h0a3.262,3.262,0,0,1-.959,6.374Zm0-5.755a2.409,2.409,0,0,0-1.145.278A2.606,2.606,0,0,0,5.754,7.394,2.5,2.5,0,0,0,5.94,9.282a2.442,2.442,0,0,0,1.454,1.207A2.5,2.5,0,0,0,8.88,5.724h0A6.009,6.009,0,0,0,8.137,5.662Z" transform="translate(-4.883 -4.883)" fill="#5e59ed"/>
        </g>
      </g>
    </g>
  </g>
</svg>
