<svg xmlns="http://www.w3.org/2000/svg" width="25.575" height="19.295" viewBox="0 0 25.575 19.295">
  <g id="Group_3933" data-name="Group 3933" transform="translate(-193.618 -332.651)">
    <path id="Path_1939" data-name="Path 1939" d="M223.036,349.7h-5.358v6.5a1.646,1.646,0,0,1-1.634,1.634H212.7v2.546a1.646,1.646,0,0,0,1.634,1.634H223a1.646,1.646,0,0,0,1.634-1.634v-9.044A1.59,1.59,0,0,0,223.036,349.7Z" transform="translate(-11.904 -10.365)" fill="#ebebff" stroke="#5e59ed" stroke-width="0.6"/>
    <path id="Path_1940" data-name="Path 1940" d="M204.86,352.648h-8.626a1.646,1.646,0,0,1-1.634-1.634v-7.98a1.646,1.646,0,0,1,1.634-1.634h8.626a1.646,1.646,0,0,1,1.634,1.634v7.98A1.646,1.646,0,0,1,204.86,352.648Z" transform="translate(-0.682 -5.219)" fill="#ebebff" stroke="#5e59ed" stroke-width="0.6"/>
    <path id="Path_1942" data-name="Path 1942" d="M251.993,346.985a.494.494,0,0,1-.456-.3.462.462,0,0,1,.266-.608l2.09-.836a.469.469,0,1,1,.342.874l-2.09.836C252.145,346.985,252.069,346.985,251.993,346.985Z" transform="translate(-35.959 -7.574)" fill="#5e59ed" stroke="#5e59ed" stroke-width="0.6"/>
    <path id="Path_1943" data-name="Path 1943" d="M244.745,335.953a.343.343,0,0,1-.19-.038.458.458,0,0,1-.228-.608l.874-2.052a.459.459,0,0,1,.836.38l-.874,2.052A.467.467,0,0,1,244.745,335.953Z" transform="translate(-31.485)" fill="#5e59ed" stroke="#5e59ed" stroke-width="0.6"/>
    <path id="Path_1944" data-name="Path 1944" d="M255,360.975a.343.343,0,0,1-.19-.038l-2.052-.874a.459.459,0,1,1,.38-.836l2.052.874a.458.458,0,0,1,.228.608A.467.467,0,0,1,255,360.975Z" transform="translate(-36.569 -16.244)" fill="#5e59ed" stroke="#5e59ed" stroke-width="0.6"/>
  </g>
</svg>
