<svg xmlns="http://www.w3.org/2000/svg" width="26.5" height="23.5" viewBox="0 0 26.5 23.5">
  <g id="Group_2624" data-name="Group 2624" transform="translate(0 -0.7)">
    <path id="Path_1615" data-name="Path 1615" d="M18.6,24.2H3.9A3.9,3.9,0,0,1,0,20.3V11.1A3.9,3.9,0,0,1,3.9,7.2H18.6a3.9,3.9,0,0,1,3.9,3.9v9.2A3.971,3.971,0,0,1,18.6,24.2ZM3.9,9a2.051,2.051,0,0,0-2.1,2.1v9.2a2.051,2.051,0,0,0,2.1,2.1H18.6a2.051,2.051,0,0,0,2.1-2.1V11.1A2.112,2.112,0,0,0,18.6,9Z" fill="#5e59ed"/>
    <g id="Group_2571" data-name="Group 2571">
      <path id="Path_1616" data-name="Path 1616" d="M18.8,12.8H3.6a.9.9,0,0,1-.9-.9.967.967,0,0,1,.9-.9H18.8a.9.9,0,0,1,0,1.8Z" fill="#5e59ed"/>
      <path id="Path_1617" data-name="Path 1617" d="M18.8,16.6H3.6a.9.9,0,1,1,0-1.8H18.8a.9.9,0,0,1,0,1.8Z" fill="#5e59ed"/>
      <path id="Path_1618" data-name="Path 1618" d="M18.8,20.4H3.6a.9.9,0,1,1,0-1.8H18.8a.9.9,0,0,1,0,1.8Z" fill="#5e59ed"/>
    </g>
    <path id="Path_1619" data-name="Path 1619" d="M25.6,12.3a.9.9,0,0,1-.9-.9V1.6a.9.9,0,1,1,1.8,0v9.8A.9.9,0,0,1,25.6,12.3Z" fill="#5e59ed"/>
    <g id="Group_2572" data-name="Group 2572">
      <path id="Path_1620" data-name="Path 1620" d="M22.6,15.7H14.2a3.009,3.009,0,0,1-3-3V8.2a3.009,3.009,0,0,1,3-3h8.4a3.009,3.009,0,0,1,3,3v4.5A2.946,2.946,0,0,1,22.6,15.7Z" fill="#ebebff"/>
      <path id="Path_1621" data-name="Path 1621" d="M22.6,16.6H14.2a3.9,3.9,0,0,1-3.9-3.9V8.2a3.9,3.9,0,0,1,3.9-3.9h8.4a3.9,3.9,0,0,1,3.9,3.9v4.5A3.9,3.9,0,0,1,22.6,16.6ZM14.3,6a2.112,2.112,0,0,0-2.1,2.1v4.5a2.051,2.051,0,0,0,2.1,2.1h8.4a2.051,2.051,0,0,0,2.1-2.1V8.2A2.22,2.22,0,0,0,22.6,6Z" fill="#5e59ed"/>
    </g>
  </g>
</svg>
