<svg xmlns="http://www.w3.org/2000/svg" width="17.8" height="23.2" viewBox="0 0 17.8 23.2">
  <g id="Group_2625" data-name="Group 2625" transform="translate(-109.8 -1)">
    <g id="Group_2574" data-name="Group 2574">
      <path id="Path_1622" data-name="Path 1622" d="M123.7,23.3h-10a3.009,3.009,0,0,1-3-3V4.9a3.009,3.009,0,0,1,3-3h10a3.009,3.009,0,0,1,3,3V20.3A3.009,3.009,0,0,1,123.7,23.3Z" fill="#ebebff"/>
      <path id="Path_1623" data-name="Path 1623" d="M123.7,24.2h-10a3.9,3.9,0,0,1-3.9-3.9V4.9A3.9,3.9,0,0,1,113.7,1h10a3.9,3.9,0,0,1,3.9,3.9V20.3A3.971,3.971,0,0,1,123.7,24.2Zm-10-21.4a2.051,2.051,0,0,0-2.1,2.1V20.3a2.112,2.112,0,0,0,2.1,2.1h10a2.051,2.051,0,0,0,2.1-2.1V4.9a2.051,2.051,0,0,0-2.1-2.1h-10Z" fill="#5e59ed"/>
    </g>
    <g id="Group_2604" data-name="Group 2604" transform="translate(112.725 5.9)">
      <path id="Path_1645" data-name="Path 1645" d="M11.6,3.5H5.4a.882.882,0,0,1-.8-.9.789.789,0,0,1,.8-.8h6.2a.9.9,0,0,1,.9.9A.817.817,0,0,1,11.6,3.5Z" fill="#5e59ed"/>
      <path id="Path_1646" data-name="Path 1646" d="M3.9.3A.854.854,0,0,0,2.6.3L1.5,1.4h0a.75.75,0,0,0-1.2,0,.912.912,0,0,0,0,1.2l.6.6a1.018,1.018,0,0,0,.6.3h0a.932.932,0,0,0,.6-.3L3.8,1.5A.823.823,0,0,0,3.9.3Z" fill="#5e59ed"/>
    </g>
    <g id="Group_2605" data-name="Group 2605" transform="translate(112.725 10.9)">
      <path id="Path_1645-2" data-name="Path 1645" d="M11.6,3.5H5.4a.882.882,0,0,1-.8-.9.789.789,0,0,1,.8-.8h6.2a.9.9,0,0,1,.9.9A.817.817,0,0,1,11.6,3.5Z" fill="#5e59ed"/>
      <path id="Path_1646-2" data-name="Path 1646" d="M3.9.3A.854.854,0,0,0,2.6.3L1.5,1.4h0a.75.75,0,0,0-1.2,0,.912.912,0,0,0,0,1.2l.6.6a1.018,1.018,0,0,0,.6.3h0a.932.932,0,0,0,.6-.3L3.8,1.5A.823.823,0,0,0,3.9.3Z" fill="#5e59ed"/>
    </g>
    <g id="Group_2606" data-name="Group 2606" transform="translate(112.725 15.9)">
      <path id="Path_1645-3" data-name="Path 1645" d="M11.6,3.5H5.4a.882.882,0,0,1-.8-.9.789.789,0,0,1,.8-.8h6.2a.9.9,0,0,1,.9.9A.817.817,0,0,1,11.6,3.5Z" fill="#5e59ed"/>
      <path id="Path_1646-3" data-name="Path 1646" d="M3.9.3A.854.854,0,0,0,2.6.3L1.5,1.4h0a.75.75,0,0,0-1.2,0,.912.912,0,0,0,0,1.2l.6.6a1.018,1.018,0,0,0,.6.3h0a.932.932,0,0,0,.6-.3L3.8,1.5A.823.823,0,0,0,3.9.3Z" fill="#5e59ed"/>
    </g>
  </g>
</svg>
