<svg xmlns="http://www.w3.org/2000/svg" width="24.149" height="28.5" viewBox="0 0 24.149 28.5">
  <path id="Path_1801" data-name="Path 1801" d="M224.582,625.545h-2.815v-1.792c0-.051-.154-4.453-6.245-4.453a6.642,6.642,0,0,0-4.863,1.638,4.377,4.377,0,0,0-1.28,3.02v1.587h-2.764a2.84,2.84,0,0,0-2.815,2.815v16.124a2.84,2.84,0,0,0,2.815,2.815h18.018a2.84,2.84,0,0,0,2.815-2.815V628.36A2.851,2.851,0,0,0,224.582,625.545Zm-13.923-1.587a3.152,3.152,0,0,1,.921-2.1,5.433,5.433,0,0,1,3.942-1.28c4.812,0,4.965,3.071,5.016,3.174v1.74H210.71v-1.536Zm15.459,20.526a1.508,1.508,0,0,1-1.536,1.536H206.564a1.508,1.508,0,0,1-1.536-1.536V628.36a1.508,1.508,0,0,1,1.536-1.536h2.764v2.611h-.973a.622.622,0,0,0-.614.614.661.661,0,0,0,.614.614h3.327a.622.622,0,0,0,.614-.614.66.66,0,0,0-.614-.614h-1.075v-2.611h9.828v2.611h-1.024a.622.622,0,0,0-.614.614.661.661,0,0,0,.614.614h3.327a.622.622,0,0,0,.614-.614.66.66,0,0,0-.614-.614h-1.024v-2.611h2.815a1.508,1.508,0,0,1,1.536,1.536v16.124Z" transform="translate(-203.55 -619.05)" fill="#5e59ed" stroke="#5e59ec" stroke-width="0.5"/>
</svg>
