<svg xmlns="http://www.w3.org/2000/svg" width="28.476" height="21.149" viewBox="0 0 28.476 21.149">
  <g id="Group_4190" data-name="Group 4190" transform="translate(-350.798 -20)">
    <g id="Group_4189" data-name="Group 4189" transform="translate(217.797 -547)">
      <g id="Group_2625" data-name="Group 2625" transform="translate(133 567)">
        <g id="Group_2574" data-name="Group 2574" transform="translate(0 0)">
          <path id="Path_1622" data-name="Path 1622" d="M122.535,21.382h-9.1a2.739,2.739,0,0,1-2.731-2.731V4.631A2.739,2.739,0,0,1,113.431,1.9h9.1a2.739,2.739,0,0,1,2.731,2.731v14.02A2.739,2.739,0,0,1,122.535,21.382Z" transform="translate(-109.881 -1.081)" fill="#ebebff"/>
          <path id="Path_1623" data-name="Path 1623" d="M122.454,22.121h-9.1a3.555,3.555,0,0,1-3.55-3.55V4.55A3.555,3.555,0,0,1,113.35,1h9.1A3.555,3.555,0,0,1,126,4.55V18.57A3.615,3.615,0,0,1,122.454,22.121Zm-9.1-19.482a1.867,1.867,0,0,0-1.912,1.912V18.57a1.923,1.923,0,0,0,1.912,1.912h9.1a1.867,1.867,0,0,0,1.912-1.912V4.55a1.867,1.867,0,0,0-1.912-1.912h-9.1Z" transform="translate(-109.8 -1)" fill="#5e59ed"/>
        </g>
        <g id="Group_2604" data-name="Group 2604" transform="translate(2.731 4.461)">
          <path id="Path_1645" data-name="Path 1645" d="M10.973,3.348H5.328A.8.8,0,0,1,4.6,2.528.718.718,0,0,1,5.328,1.8h5.644a.816.816,0,0,1,.819.819A.744.744,0,0,1,10.973,3.348Z" transform="translate(-0.481 -0.161)" fill="#5e59ed"/>
          <path id="Path_1646" data-name="Path 1646" d="M3.557.273a.778.778,0,0,0-1.183,0l-1,1h0a.683.683,0,0,0-1.092,0,.831.831,0,0,0,0,1.092l.546.546a.927.927,0,0,0,.546.273h0a.848.848,0,0,0,.546-.273L3.466,1.366A.749.749,0,0,0,3.557.273Z" transform="translate(-0.075)" fill="#5e59ed"/>
        </g>
        <g id="Group_2605" data-name="Group 2605" transform="translate(2.731 9.013)">
          <path id="Path_1645-2" data-name="Path 1645" d="M10.973,3.348H5.328A.8.8,0,0,1,4.6,2.528.718.718,0,0,1,5.328,1.8h5.644a.816.816,0,0,1,.819.819A.744.744,0,0,1,10.973,3.348Z" transform="translate(-0.481 -0.161)" fill="#5e59ed"/>
          <path id="Path_1646-2" data-name="Path 1646" d="M3.557.273a.778.778,0,0,0-1.183,0l-1,1h0a.683.683,0,0,0-1.092,0,.831.831,0,0,0,0,1.092l.546.546a.927.927,0,0,0,.546.273h0a.848.848,0,0,0,.546-.273L3.466,1.366A.749.749,0,0,0,3.557.273Z" transform="translate(-0.075)" fill="#5e59ed"/>
        </g>
        <g id="Group_2606" data-name="Group 2606" transform="translate(2.731 13.565)">
          <path id="Path_1645-3" data-name="Path 1645" d="M10.973,3.348H5.328A.8.8,0,0,1,4.6,2.528.718.718,0,0,1,5.328,1.8h5.644a.816.816,0,0,1,.819.819A.744.744,0,0,1,10.973,3.348Z" transform="translate(-0.481 -0.161)" fill="#5e59ed"/>
          <path id="Path_1646-3" data-name="Path 1646" d="M3.557.273a.778.778,0,0,0-1.183,0l-1,1h0a.683.683,0,0,0-1.092,0,.831.831,0,0,0,0,1.092l.546.546a.927.927,0,0,0,.546.273h0a.848.848,0,0,0,.546-.273L3.466,1.366A.749.749,0,0,0,3.557.273Z" transform="translate(-0.075)" fill="#5e59ed"/>
        </g>
      </g>
    </g>
    <path id="Path_2001" data-name="Path 2001" d="M13.657,2.343a2,2,0,0,1,0,2.828L6.27,12.558a2.5,2.5,0,0,1-1.161.658l-2.291.573a.5.5,0,0,1-.606-.606l.573-2.291A2.5,2.5,0,0,1,3.442,9.73l7.386-7.386A2,2,0,0,1,13.657,2.343ZM10.121,4.464,4.149,10.437a1.5,1.5,0,0,0-.395.7l-.371,1.483,1.483-.371a1.5,1.5,0,0,0,.7-.395l5.972-5.973ZM11.535,3.05l-.707.707,1.414,1.414.708-.707A1,1,0,0,0,11.535,3.05Z" transform="translate(364.804 27.243)" fill="#5e59ed" stroke="#5e59ed" stroke-width="0.2"/>
  </g>
</svg>
