<svg id="Group_2626" data-name="Group 2626" xmlns="http://www.w3.org/2000/svg" width="22.5" height="23.1" viewBox="0 0 22.5 23.1">
  <path id="Path_1647" data-name="Path 1647" d="M18.6,23.1H3.9A3.9,3.9,0,0,1,0,19.2V3.9A3.842,3.842,0,0,1,3.9,0H18.6a3.9,3.9,0,0,1,3.9,3.9V19.3A3.885,3.885,0,0,1,18.6,23.1ZM3.9,1.8A2.051,2.051,0,0,0,1.8,3.9V19.3a2.051,2.051,0,0,0,2.1,2.1H18.6a2.051,2.051,0,0,0,2.1-2.1V3.9a2.051,2.051,0,0,0-2.1-2.1H3.9Z" fill="#5f58ec"/>
  <path id="Path_1648" data-name="Path 1648" d="M16.3,10.7H12.1V6.5a.9.9,0,0,0-.9-.9.817.817,0,0,0-.8.9v4.2H6.2a.9.9,0,1,0,0,1.8h4.2v4.2a.9.9,0,1,0,1.8,0V12.5h4.2a.9.9,0,0,0,.9-.9A.987.987,0,0,0,16.3,10.7Z" fill="#5f58ec"/>
  <g id="Group_2609" data-name="Group 2609">
    <g id="Group_2607" data-name="Group 2607">
      <path id="Path_1649" data-name="Path 1649" d="M4.5,11.6h0a.854.854,0,0,0,0-1.3.815.815,0,0,0-1.2,0l-.6.6a.618.618,0,0,0-.2.7,1.854,1.854,0,0,0,.2.7l.6.6a.864.864,0,0,0,.6.3.713.713,0,0,0,.6-.3.853.853,0,0,0,0-1.3Z" fill="#5f58ec"/>
      <path id="Path_1650" data-name="Path 1650" d="M17.9,11.6h0a.854.854,0,0,0,0,1.3.815.815,0,0,0,1.2,0l.6-.6a.618.618,0,0,0,.2-.7,1.854,1.854,0,0,0-.2-.7l-.6-.6a.75.75,0,0,0-1.2,0,1.049,1.049,0,0,0,0,1.3Z" fill="#5f58ec"/>
    </g>
    <g id="Group_2608" data-name="Group 2608">
      <path id="Path_1651" data-name="Path 1651" d="M11.2,18.3h0a.854.854,0,0,0-1.3,0,.815.815,0,0,0,0,1.2l.6.6a.618.618,0,0,0,.7.2,1.854,1.854,0,0,0,.7-.2l.6-.6a.864.864,0,0,0,.3-.6.713.713,0,0,0-.3-.6.853.853,0,0,0-1.3,0Z" fill="#5f58ec"/>
      <path id="Path_1652" data-name="Path 1652" d="M11.2,4.9h0a.854.854,0,0,0,1.3,0,.815.815,0,0,0,0-1.2L11.9,3a.618.618,0,0,0-.7-.2,1.854,1.854,0,0,0-.7.2l-.6.6a1.445,1.445,0,0,0-.2.7.6.6,0,0,0,.3.6.91.91,0,0,0,1.2,0Z" fill="#5f58ec"/>
    </g>
  </g>
</svg>
