<svg xmlns="http://www.w3.org/2000/svg" width="17.8" height="21.12" viewBox="0 0 17.8 21.12">
  <g id="Group_4250" data-name="Group 4250" transform="translate(-281.373 -20)">
    <g id="Group_4241" data-name="Group 4241" transform="translate(148.373 -547)">
      <g id="Group_2625" data-name="Group 2625" transform="translate(133 567)">
        <g id="Group_2574" data-name="Group 2574" transform="translate(0 0)">
          <path id="Path_1622" data-name="Path 1622" d="M123.7,21.22h-10a2.875,2.875,0,0,1-3-2.708V4.608a2.872,2.872,0,0,1,3-2.708h10a2.875,2.875,0,0,1,3,2.708v13.9A2.875,2.875,0,0,1,123.7,21.22Z" transform="translate(-109.8 -1)" fill="#ebebff"/>
          <path id="Path_1623" data-name="Path 1623" d="M123.7,22.12h-10a3.744,3.744,0,0,1-3.9-3.55V4.55A3.74,3.74,0,0,1,113.7,1h10a3.744,3.744,0,0,1,3.9,3.55V18.57A3.806,3.806,0,0,1,123.7,22.12Zm-10-19.481a1.965,1.965,0,0,0-2.1,1.912V18.57a2.026,2.026,0,0,0,2.1,1.912h10a1.965,1.965,0,0,0,2.1-1.912V4.55a1.965,1.965,0,0,0-2.1-1.912h-10Z" transform="translate(-109.8 -1)" fill="#5e59ed"/>
        </g>
      </g>
    </g>
    <text id="_" data-name="$" transform="translate(287 23)" fill="#5e59ed" font-size="10" font-family="SegoeUI, Segoe UI"><tspan x="0" y="11">$</tspan></text>
  </g>
</svg>
