<svg xmlns="http://www.w3.org/2000/svg" width="11.884" height="24.004" viewBox="0 0 11.884 24.004">
  <path id="Path_1962" data-name="Path 1962" d="M13.488,0A2.151,2.151,0,0,1,15.8,2.251,3.026,3.026,0,0,1,12.719,5.14a2.062,2.062,0,0,1-2.27-2.289A2.959,2.959,0,0,1,13.488,0ZM8.746,23c-1.217,0-2.108-.75-1.257-4.053l1.4-5.857c.243-.936.283-1.312,0-1.312a9.194,9.194,0,0,0-2.878,1.285L5.4,12.054c2.958-2.514,6.362-3.988,7.822-3.988,1.216,0,1.418,1.464.811,3.715l-1.6,6.156c-.283,1.087-.162,1.462.122,1.462a6.267,6.267,0,0,0,2.736-1.388l.69.936C13.1,21.877,9.961,23,8.746,23Z" transform="translate(-4.753 0.5)" fill="none" stroke="#5e59ed" stroke-width="1"/>
</svg>
