<svg id="Group_1939" data-name="Group 1939" xmlns="http://www.w3.org/2000/svg" width="18.4" height="21.21" viewBox="0 0 18.4 21.21">
  <g id="Group_1883" data-name="Group 1883" transform="translate(0 0)">
    <path id="Path_1359" data-name="Path 1359" d="M18.383,21.081H6.369V9.705a20.6,20.6,0,0,1,.053-3.136A6.463,6.463,0,0,1,12.589,1.2a6.032,6.032,0,0,1,4.944,2.126c1.7,2.233,1.116,5.422,1.063,8.08-.053,2.445-.106,4.944-.159,7.389C18.436,18.954,18.436,21.081,18.383,21.081Z" transform="translate(-2.959 -0.562)" fill="#ccc"/>
    <path id="Path_1360" data-name="Path 1360" d="M17.844,21.21H5.83a.646.646,0,0,1-.638-.638V8.292A11.327,11.327,0,0,1,5.3,5.954,6.991,6.991,0,0,1,12.1,0a6.661,6.661,0,0,1,5.475,2.392c1.542,2.073,1.382,4.731,1.276,7.123,0,.478-.053.957-.053,1.382-.053,2.445-.106,4.944-.159,7.389l-.053,1.223C18.535,20.837,18.535,21.21,17.844,21.21ZM6.521,19.881H17.206c0-.372,0-.851.053-1.542.053-2.5.106-5,.159-7.442,0-.478.053-.957.053-1.435.106-2.233.266-4.571-1.01-6.219a5.389,5.389,0,0,0-4.412-1.86A5.777,5.777,0,0,0,6.521,6.166a8.943,8.943,0,0,0-.053,2.073V16.8Z" transform="translate(-2.42)" fill="#261f21"/>
    <path id="Path_1361" data-name="Path 1361" d="M17.8,25.243V14.718c0-3.562,6.166-4.518,6.166-4.518l-.213,15.043Z" transform="translate(-8.33 -4.778)" fill="#fff"/>
    <path id="Path_1362" data-name="Path 1362" d="M17.191,25.308a.649.649,0,0,1-.478-.213.792.792,0,0,1-.213-.478V14.092c0-4.04,6.485-5.156,6.751-5.209a.51.51,0,0,1,.532.159A.682.682,0,0,1,24,9.573l-.213,15.043a.646.646,0,0,1-.638.638l-5.954.053Zm5.475-14.937c-1.86.478-4.837,1.648-4.837,3.721v9.834h4.678Z" transform="translate(-7.721 -4.151)" fill="#261f21"/>
    <path id="Path_1363" data-name="Path 1363" d="M1.747,23.814a10.379,10.379,0,0,1-1.223-.106A.678.678,0,0,1,.79,22.379c4.412.851,5.847-4.412,5.954-4.625a.658.658,0,0,1,1.276.319C7.435,20.2,5.468,23.814,1.747,23.814Z" transform="translate(0.015 -8.08)" fill="#261f21"/>
    <circle id="Ellipse_281" data-name="Ellipse 281" cx="0.744" cy="0.744" r="0.744" transform="translate(11.065 3.562)" fill="#261f21"/>
    <path id="Path_1364" data-name="Path 1364" d="M31.011,8.176H28.938a.646.646,0,0,1-.638-.638.686.686,0,0,1,.638-.638h2.073a.638.638,0,1,1,0,1.276Z" transform="translate(-13.249 -3.232)" fill="#261f21"/>
  </g>
</svg>
