<svg xmlns="http://www.w3.org/2000/svg" width="149.661" height="187.786" viewBox="0 0 149.661 187.786">
  <g id="Group_903" data-name="Group 903" transform="translate(-164 -99.001)">
    <path id="Path_705" data-name="Path 705" d="M-5.795-2.753A5.71,5.71,0,0,0-7.267-3.766a4.039,4.039,0,0,0-1.788-.411,3.119,3.119,0,0,0-1.332.285,1,1,0,0,0-.611.98.975.975,0,0,0,.673.949,14.447,14.447,0,0,0,2.179.631,11.725,11.725,0,0,1,1.772.538A6.276,6.276,0,0,1-4.759.123,4.411,4.411,0,0,1-3.6,1.515,4.1,4.1,0,0,1-3.16,3.475a4.936,4.936,0,0,1-.6,2.514,4.914,4.914,0,0,1-1.55,1.66,6.677,6.677,0,0,1-2.148.917,10.2,10.2,0,0,1-2.384.285,11.7,11.7,0,0,1-3.746-.616,7.833,7.833,0,0,1-3.057-1.819l2.884-3.067a5.778,5.778,0,0,0,1.694,1.265,4.667,4.667,0,0,0,2.131.506,2.753,2.753,0,0,0,1.238-.3,1.076,1.076,0,0,0,.613-1.059,1.137,1.137,0,0,0-.753-1.075,13.564,13.564,0,0,0-2.351-.726,12.115,12.115,0,0,1-1.631-.506A5.147,5.147,0,0,1-14.275.6,4.241,4.241,0,0,1-15.327-.731a4.084,4.084,0,0,1-.406-1.9,4.633,4.633,0,0,1,.594-2.419A5.091,5.091,0,0,1-13.6-6.674a6.79,6.79,0,0,1,2.085-.932,8.9,8.9,0,0,1,2.273-.3,10.937,10.937,0,0,1,3.434.553A7.415,7.415,0,0,1-2.971-5.694Z" transform="translate(229.826 270.854)" fill="#d4d6ff"/>
    <path id="Path_706" data-name="Path 706" d="M-.4-1.419A9.037,9.037,0,0,1,2.812-3.41a10.935,10.935,0,0,1,3.747-.664,9.967,9.967,0,0,1,3.338.49,4.984,4.984,0,0,1,2.211,1.519A6.525,6.525,0,0,1,13.348.526a15.55,15.55,0,0,1,.391,3.716v7.936h-4.7V10.5H8.942a3.875,3.875,0,0,1-1.8,1.518,6.36,6.36,0,0,1-2.618.538A7.921,7.921,0,0,1,2.577,12.3a5.664,5.664,0,0,1-1.834-.823A4.445,4.445,0,0,1-.62,9.965a4.714,4.714,0,0,1-.535-2.341,3.991,3.991,0,0,1,.926-2.75A6.042,6.042,0,0,1,2.155,3.262,12.482,12.482,0,0,1,5.4,2.5a32.962,32.962,0,0,1,3.48-.19V2.061A1.941,1.941,0,0,0,8.064.336,3.5,3.5,0,0,0,6.057-.217,4.96,4.96,0,0,0,3.941.258,6.734,6.734,0,0,0,2.2,1.4ZM9.035,5.317H8.377q-.847,0-1.708.078a6.969,6.969,0,0,0-1.536.3,2.829,2.829,0,0,0-1.114.648A1.5,1.5,0,0,0,3.58,7.466a1.37,1.37,0,0,0,.2.759,1.582,1.582,0,0,0,.518.506A2.139,2.139,0,0,0,5.022,9a4.124,4.124,0,0,0,.784.08,3.162,3.162,0,0,0,2.4-.869,3.265,3.265,0,0,0,.83-2.356Z" transform="translate(233.117 267.02)" fill="#d4d6ff"/>
    <path id="Path_707" data-name="Path 707" d="M-5.41-2.517a3.99,3.99,0,0,0-.675-.126c-.22-.021-.433-.032-.642-.032A3.662,3.662,0,0,0-8.469-2.3,3.572,3.572,0,0,0-9.6-1.383a3.489,3.489,0,0,0-.611,1.167A3.913,3.913,0,0,0-10.4.887V8.96h-5.142V-6.767h4.954V-4.49h.063A5.1,5.1,0,0,1-8.828-6.463a4.319,4.319,0,0,1,2.539-.765,5.848,5.848,0,0,1,.611.031,2.347,2.347,0,0,1,.486.1Z" transform="translate(269.386 270.238)" fill="#d4d6ff"/>
    <path id="Path_708" data-name="Path 708" d="M-5.795-9.677a13.731,13.731,0,0,1-1.05,2.2A6.626,6.626,0,0,1-8.223-5.835,5.472,5.472,0,0,1-10.1-4.808a8.382,8.382,0,0,1-2.556.348,12.14,12.14,0,0,1-1.489-.1,9.114,9.114,0,0,1-1.332-.253l.564-4.364a5.6,5.6,0,0,0,.83.207,4.984,4.984,0,0,0,.83.078,2.307,2.307,0,0,0,1.723-.553A4.5,4.5,0,0,0-10.622-11l.5-1.3-6.522-15.493h5.707l3.48,10.117h.094l3.1-10.117H1.2Z" transform="translate(285.16 291.246)" fill="#d4d6ff"/>
    <path id="Path_709" data-name="Path 709" d="M-.4-1.419A9.015,9.015,0,0,1,2.811-3.41a10.932,10.932,0,0,1,3.747-.664,9.967,9.967,0,0,1,3.338.49,4.985,4.985,0,0,1,2.21,1.519A6.508,6.508,0,0,1,13.346.526a15.514,15.514,0,0,1,.392,3.716v7.936h-4.7V10.5H8.94a3.879,3.879,0,0,1-1.8,1.518,6.36,6.36,0,0,1-2.618.538A7.929,7.929,0,0,1,2.576,12.3a5.667,5.667,0,0,1-1.834-.823A4.432,4.432,0,0,1-.622,9.965a4.707,4.707,0,0,1-.533-2.341,3.99,3.99,0,0,1,.924-2.75A6.075,6.075,0,0,1,2.152,3.262,12.516,12.516,0,0,1,5.4,2.5a32.959,32.959,0,0,1,3.479-.19V2.061A1.941,1.941,0,0,0,8.062.336,3.5,3.5,0,0,0,6.056-.217,4.962,4.962,0,0,0,3.94.258,6.745,6.745,0,0,0,2.2,1.4ZM9.034,5.317H8.376q-.848,0-1.709.078a6.963,6.963,0,0,0-1.535.3,2.841,2.841,0,0,0-1.115.648A1.5,1.5,0,0,0,3.58,7.466a1.37,1.37,0,0,0,.2.759,1.577,1.577,0,0,0,.516.506A2.16,2.16,0,0,0,5.021,9a4.113,4.113,0,0,0,.784.08,3.16,3.16,0,0,0,2.4-.869,3.274,3.274,0,0,0,.83-2.356Z" transform="translate(291.644 267.02)" fill="#d4d6ff"/>
    <path id="Path_710" data-name="Path 710" d="M-24.375-28.223H-59.852A10.142,10.142,0,0,1-70.006-38.328V-70.95A10.142,10.142,0,0,1-59.852-81.056h35.477A10.141,10.141,0,0,1-14.222-70.95v32.622A10.142,10.142,0,0,1-24.375-28.223m-35.477-45.84a3.122,3.122,0,0,0-3.126,3.112v32.622a3.122,3.122,0,0,0,3.126,3.112h35.477a3.123,3.123,0,0,0,3.126-3.112V-70.95a3.122,3.122,0,0,0-3.126-3.112Z" transform="translate(274.685 215.293)" fill="#5e59ed"/>
    <g id="Group_902" data-name="Group 902" transform="translate(236.762 177.631)">
      <path id="Path_711" data-name="Path 711" d="M-1.876-13.462a3.506,3.506,0,0,1-2.242-.807,3.485,3.485,0,0,1-.459-4.924L10.616-37.4a3.526,3.526,0,0,1,4.947-.456,3.486,3.486,0,0,1,.458,4.925L.83-14.724a3.515,3.515,0,0,1-2.706,1.263" transform="translate(5.388 38.662)" fill="#5e59ed"/>
    </g>
    <path id="Path_712" data-name="Path 712" d="M-5.375-30.627a10.118,10.118,0,0,1-10.053-9.863l-.008-.244v-10.5a3.505,3.505,0,0,1,3.514-3.5,3.505,3.505,0,0,1,3.513,3.5v10.364c.264,3.039,2.369,3.263,3.087,3.246H30.269c3.035-.248,3.26-2.423,3.256-3.091V-77.631c-.31-3.2-2.745-3.363-3.487-3.329l-21.674,0c-1.94,0-3.051-1.566-3.051-3.5s1.111-3.5,3.051-3.5H29.9a10.254,10.254,0,0,1,10.638,9.9l.011.271v37.048a10.124,10.124,0,0,1-9.921,10.1l-.233.008H-5.375" transform="translate(248.434 234.705)" fill="#5e59ed"/>
    <path id="Path_713" data-name="Path 713" d="M-34.361-79.244c-8.678,0-16.011-3.99-20.207-10.974-11.7-11.682-21.907-21.157-33.609-31.762-3.507-3.177-8.339-8.182-9.808-14.932-.076-.357-.142-.7-.2-1.051a65.542,65.542,0,0,1-.263-13.9c.114-2.2.222-4.285.222-6.3V-206.6c0-15.3,13.517-20.415,20.664-20.981l.279-.011H-13.89c12.28,0,17.811,5.577,24.815,12.639l1.676,1.684q6.472,6.458,13.01,12.849c6.027,5.922,12.261,12.047,18.308,18.173,7.4,7.5,7.186,17,6.994,25.376-.035,1.579-.072,3.161-.061,4.739q.057,7.842.065,15.692v32.672c0,8.394-2.333,14.838-6.935,19.153a20.656,20.656,0,0,1-14.118,5.327H19.048q-26.675-.007-53.331.045ZM-48.673-94.038c2.913,5.032,7.991,7.8,14.311,7.8h.059q26.676-.074,53.35-.045l11.095.007a13.648,13.648,0,0,0,9.082-3.489c3.1-2.945,4.665-7.657,4.665-14v-32.672q0-7.833-.066-15.642c-.012-1.647.026-3.3.063-4.947.183-8.008.342-14.923-4.982-20.316-6.009-6.088-12.222-12.193-18.232-18.1q-6.54-6.426-13.047-12.886l-1.7-1.71C-.607-216.621-4.547-220.6-13.89-220.6H-77.109a21.287,21.287,0,0,0-7.384,2.376c-4.511,2.511-6.7,6.312-6.7,11.622v48.43c0,2.2-.118,4.469-.231,6.665a60.523,60.523,0,0,0,.18,12.407c.039.235.085.475.136.714.791,3.635,3.228,7.206,7.668,11.229,8.834,8.006,16.826,15.375,25.246,23.53,0-.134,0-.27,0-.4v-87.965a3.505,3.505,0,0,1,3.513-3.5,3.505,3.505,0,0,1,3.514,3.5v87.965a19.982,19.982,0,0,0,2.432,9.865c.024.04.047.081.07.123" transform="translate(262.686 326.591)" fill="#5e59ed"/>
  </g>
</svg>
