<svg xmlns="http://www.w3.org/2000/svg" width="16" height="16" viewBox="0 0 16 16">
  <path id="Path_1973" data-name="Path 1973" d="M3,4.5V.25a.25.25,0,1,0-.5,0V3.5H1.75V.25a.25.25,0,1,0-.5,0V3.5H.5V.25a.25.25,0,1,0-.5,0V4.5A1.5,1.5,0,0,0,.733,5.782L.31,14.75V14.8a1.191,1.191,0,1,0,2.379-.067L2.267,5.782A1.5,1.5,0,0,0,3,4.5ZM2,15.284a.682.682,0,0,1-.5.216.693.693,0,0,1-.69-.7v-.043l.415-8.789A1.5,1.5,0,0,0,1.5,6a1.5,1.5,0,0,0,.275-.028l.415,8.792A.693.693,0,0,1,2,15.284ZM1.5,5.5a1,1,0,0,1-1-1V4h2v.5A1,1,0,0,1,1.5,5.5Zm9.328-.328s-.008,0-.011-.007a3.991,3.991,0,0,0-5.635,0s-.008,0-.011.007,0,.008-.007.011a3.991,3.991,0,0,0,0,5.635s0,.008.007.011.008,0,.011.007a3.991,3.991,0,0,0,5.635,0s.008,0,.011-.007,0-.008.007-.011a3.991,3.991,0,0,0,0-5.635s0-.008-.007-.011ZM11.25,8.25h.237a3.481,3.481,0,0,1-.845,2.038l-.167-.167a.25.25,0,1,0-.354.354l.167.167a3.481,3.481,0,0,1-2.039.846V11.25a.25.25,0,0,0-.5,0v.237a3.481,3.481,0,0,1-2.039-.845l.167-.167a.25.25,0,1,0-.354-.354l-.167.167A3.481,3.481,0,0,1,4.513,8.25H4.75a.25.25,0,0,0,0-.5H4.513a3.481,3.481,0,0,1,.845-2.038l.167.167a.25.25,0,1,0,.354-.354l-.167-.167A3.481,3.481,0,0,1,7.75,4.513V4.75a.25.25,0,1,0,.5,0V4.513a3.481,3.481,0,0,1,2.039.845l-.167.167a.25.25,0,1,0,.354.354l.167-.167a3.481,3.481,0,0,1,.845,2.038H11.25a.25.25,0,0,0,0,.5ZM15.862.026A.25.25,0,0,0,15.6.05a5.275,5.275,0,0,0-2.1,4.2v5.5a.25.25,0,0,0,.25.25h.209l-.375,4.693a1.21,1.21,0,1,0,2.416.1V.25a.251.251,0,0,0-.138-.224ZM15.5,14.79a.71.71,0,1,1-1.418-.056L14.46,10H15.5Zm0-5.29H14V4.25A4.776,4.776,0,0,1,15.5.787ZM8,3a5,5,0,1,0,5,5A5,5,0,0,0,8,3Zm0,9.5A4.5,4.5,0,1,1,12.5,8,4.5,4.5,0,0,1,8,12.5Zm.25-5.2V6.5a.25.25,0,0,0-.5,0v.8a.749.749,0,0,0-.5.7.741.741,0,0,0,.075.321l-.752.752a.25.25,0,1,0,.354.354l.752-.752A.747.747,0,1,0,8.25,7.3ZM8,8.25A.25.25,0,1,1,8.25,8,.25.25,0,0,1,8,8.25Z" fill="#5e59ed"/>
</svg>
