<svg xmlns="http://www.w3.org/2000/svg" width="14.8" height="17.316" viewBox="0 0 14.8 17.316">
  <g id="Vector-5" transform="translate(0.9 0.9)" fill="#fff">
    <path d="M 11.69039630889893 15.96580028533936 L 1.309326171875 15.96580028533936 C 0.8568961620330811 15.96580028533936 0.4275261759757996 15.7741003036499 0.1002961844205856 15.42600059509277 C -0.2834238111972809 15.01780986785889 -0.4824138283729553 14.44301986694336 -0.4456638097763062 13.8490104675293 L -0.4449238181114197 13.83695030212402 L -0.4435238242149353 13.82495021820068 L 0.5674821138381958 5.108819484710693 C 0.6368429064750671 4.082901000976562 1.405155897140503 3.281070232391357 2.321656227111816 3.281070232391357 L 3.011276245117188 3.281070232391357 L 3.011276245117188 3.231090307235718 C 3.011276245117188 1.201330184936523 4.576236248016357 -0.4499997496604919 6.499835968017578 -0.4499997496604919 C 7.441726207733154 -0.4499997496604919 8.324326515197754 -0.0604497604072094 8.985066413879395 0.6468802094459534 C 9.632286071777344 1.339850187301636 9.988716125488281 2.2576003074646 9.988716125488281 3.231090307235718 L 9.988716125488281 3.281070232391357 L 10.67799663543701 3.281070232391357 C 11.59468555450439 3.281070232391357 12.36314868927002 4.082901477813721 12.43251037597656 5.108819484710693 L 13.44349575042725 13.82495021820068 L 13.44488620758057 13.83695030212402 L 13.44563579559326 13.84899997711182 C 13.48239612579346 14.44295978546143 13.28341579437256 15.01772022247314 12.89972591400146 15.42590045928955 C 12.5724458694458 15.77406024932861 12.14296627044678 15.96580028533936 11.69039630889893 15.96580028533936 Z M 9.220486640930176 4.694640159606934 L 9.221755981445312 5.144640445709229 C 9.133075714111328 5.144890308380127 9.060935974121094 5.217170238494873 9.060935974121094 5.305770397186279 C 9.060935974121094 5.394790172576904 9.13321590423584 5.467220306396484 9.222065925598145 5.467220306396484 C 9.310915946960449 5.467220306396484 9.383206367492676 5.394790172576904 9.383206367492676 5.305770397186279 C 9.383206367492676 5.217170238494873 9.311066627502441 5.144890308380127 9.222386360168457 5.144640445709229 L 9.220486640930176 4.694640159606934 Z M 3.777926206588745 5.144640445709229 C 3.68907618522644 5.144640445709229 3.616796255111694 5.216920375823975 3.616796255111694 5.305770397186279 C 3.616796255111694 5.394620418548584 3.68907618522644 5.46690034866333 3.777926206588745 5.46690034866333 C 3.836026191711426 5.46690034866333 3.874266147613525 5.437340259552002 3.891886234283447 5.419710159301758 C 3.90950608253479 5.402100086212158 3.939066171646118 5.363870143890381 3.939056158065796 5.305810451507568 C 3.939056158065796 5.216920375823975 3.86677622795105 5.144640445709229 3.777926206588745 5.144640445709229 Z M 4.544576168060303 3.281070232391357 L 8.455415725708008 3.281070232391357 L 8.455415725708008 3.231090307235718 C 8.455415725708008 2.64745020866394 8.245546340942383 2.10139012336731 7.864456176757812 1.693500280380249 C 7.497086048126221 1.299960255622864 7.012495994567871 1.083300232887268 6.499835968017578 1.083300232887268 C 5.421706199645996 1.083300232887268 4.544576168060303 2.04679012298584 4.544576168060303 3.231090307235718 L 4.544576168060303 3.281070232391357 Z" stroke="none"/>
    <path d="M 11.69039630889893 15.51580047607422 C 12.45089626312256 15.51580047607422 13.05129623413086 14.76220035552979 12.99649620056152 13.87680053710938 L 11.98419570922852 5.149340152740479 C 11.93479633331299 4.350120067596436 11.36479663848877 3.731070280075073 10.67799663543701 3.731070280075073 L 9.538716316223145 3.731070280075073 L 9.538716316223145 3.231090307235718 C 9.538716316223145 2.372020244598389 9.225235939025879 1.563300251960754 8.656216621398926 0.9540602564811707 C 8.081496238708496 0.3388102352619171 7.315845966339111 2.380371029175876e-07 6.499835968017578 2.380371029175876e-07 C 4.824446201324463 2.380371029175876e-07 3.461276292800903 1.449620246887207 3.461276292800903 3.231090307235718 L 3.461276292800903 3.731070280075073 L 2.321656227111816 3.731070280075073 C 1.635156154632568 3.731070280075073 1.06519615650177 4.350120067596436 1.015796184539795 5.149340152740479 L 0.003476185258477926 13.87680053710938 C -0.05130381509661674 14.76220035552979 0.5490561723709106 15.51580047607422 1.309326171875 15.51580047607422 L 11.69039630889893 15.51580047607422 M 9.220486640930176 4.694640159606934 L 9.22365665435791 4.694640159606934 C 9.560565948486328 4.695590019226074 9.833206176757812 4.968850135803223 9.833206176757812 5.305770397186279 C 9.833206176757812 5.643320083618164 9.559646606445312 5.917220115661621 9.222065925598145 5.917220115661621 C 8.884526252746582 5.917220115661621 8.610936164855957 5.643320083618164 8.610936164855957 5.305770397186279 C 8.610936164855957 4.968850135803223 8.883576393127441 4.695590019226074 9.220486640930176 4.694640159606934 M 3.777926206588745 4.694640159606934 C 4.115476131439209 4.694640159606934 4.389056205749512 4.968220233917236 4.389056205749512 5.305770397186279 C 4.389086246490479 5.643320083618164 4.115476131439209 5.916900157928467 3.777926206588745 5.916900157928467 C 3.440376281738281 5.916900157928467 3.166796207427979 5.643320083618164 3.166796207427979 5.305770397186279 C 3.166796207427979 4.968220233917236 3.440376281738281 4.694640159606934 3.777926206588745 4.694640159606934 M 6.499835968017578 0.633300244808197 C 7.138515949249268 0.633300244808197 7.7398362159729 0.9005502462387085 8.193276405334473 1.386290192604065 C 8.652416229248047 1.877730250358582 8.905416488647461 2.533190250396729 8.905416488647461 3.231090307235718 L 8.905416488647461 3.731070280075073 L 4.094576358795166 3.731070280075073 L 4.094576358795166 3.231090307235718 C 4.094576358795166 1.798570275306702 5.173396110534668 0.633300244808197 6.499835968017578 0.633300244808197 M 11.69039630889893 16.41580009460449 L 1.309326171875 16.41580009460449 C 0.7314062118530273 16.41580009460449 0.1855961829423904 16.17374038696289 -0.2275738120079041 15.73422050476074 C -0.6959938406944275 15.23591995239258 -0.9391937851905823 14.53866004943848 -0.8948038220405579 13.82122039794922 L -0.8905338048934937 13.77309989929199 L 0.1192851588129997 5.067202091217041 C 0.2095331102609634 3.811145544052124 1.172240972518921 2.831070184707642 2.321656227111816 2.831070184707642 L 2.579591274261475 2.831070184707642 C 2.771921396255493 0.7400609254837036 4.456681728363037 -0.899999737739563 6.499835968017578 -0.899999737739563 C 7.567746162414551 -0.899999737739563 8.567135810852051 -0.4597297608852386 9.313905715942383 0.3397002518177032 C 9.949658393859863 1.020389080047607 10.33505153656006 1.893298268318176 10.42056751251221 2.831070184707642 L 10.67799663543701 2.831070184707642 C 11.82760047912598 2.831070184707642 12.79045677185059 3.811145782470703 12.88070678710938 5.067202568054199 L 13.89477634429932 13.82120037078857 C 13.93917655944824 14.53859996795654 13.69600582122803 15.23583030700684 13.22760581970215 15.73412036895752 C 12.81437587738037 16.17370986938477 12.26845645904541 16.41580009460449 11.69039630889893 16.41580009460449 Z M 5.036774158477783 2.831070184707642 L 7.963660717010498 2.831070184707642 C 7.896604537963867 2.516784191131592 7.75028657913208 2.230459928512573 7.535635948181152 2.000710248947144 C 7.254176139831543 1.69920027256012 6.886415958404541 1.533300280570984 6.499835968017578 1.533300280570984 C 5.791975498199463 1.533300280570984 5.196652412414551 2.087321519851685 5.036774158477783 2.831070184707642 Z" stroke="none" fill="#5e59ed"/>
  </g>
</svg>
