<svg xmlns="http://www.w3.org/2000/svg" width="8.3" height="16.3" viewBox="0 0 8.3 16.3">
  <g id="Group_4174" data-name="Group 4174" transform="translate(-29.35 -9.35)">
    <path id="Path_1995" data-name="Path 1995" d="M36.637,9.5a.836.836,0,0,1,.863.807V24.693a.836.836,0,0,1-.863.807H30.363a.836.836,0,0,1-.863-.807V10.307a.836.836,0,0,1,.863-.807Zm.706.807a.684.684,0,0,0-.706-.661H30.363a.684.684,0,0,0-.706.661V24.693a.684.684,0,0,0,.706.661h6.275a.684.684,0,0,0,.706-.661Z" fill="#5e59ed" stroke="#5e59ed" stroke-width="0.3" fill-rule="evenodd"/>
    <path id="Path_1996" data-name="Path 1996" d="M40.5,9.578a.072.072,0,0,1,.065-.078h3.871v.078H44.5a.794.794,0,0,1-.71.858H41.21A.794.794,0,0,1,40.5,9.578Zm.133.078a.634.634,0,0,0,.577.624H43.79a.634.634,0,0,0,.577-.624Z" transform="translate(-9)" fill="#5e59ed" stroke="#5e59ed" stroke-width="0.3" fill-rule="evenodd"/>
  </g>
</svg>
