<svg xmlns="http://www.w3.org/2000/svg" width="15.829" height="17" viewBox="0 0 15.829 17">
  <g id="Group_4173" data-name="Group 4173" transform="translate(-2 -1)">
    <path id="Path_1987" data-name="Path 1987" d="M10.638,3.112l-.359-.052L10.3,2.7V1.89a.39.39,0,1,0-.78,0V2.7l.026.362-.359.052a5.074,5.074,0,0,0-4.35,5.022v5.073H3.671a1.171,1.171,0,0,0,0,2.341H16.159a1.171,1.171,0,0,0,0-2.341H14.988V8.134a5.074,5.074,0,0,0-4.349-5.022ZM8.354,15.939a1.561,1.561,0,0,0,3.122,0" fill="none" stroke="#5e59ed" stroke-width="1" fill-rule="evenodd"/>
  </g>
</svg>
