<svg id="Group_1661" data-name="Group 1661" xmlns="http://www.w3.org/2000/svg" width="67.173" height="34.46" viewBox="0 0 67.173 34.46">
  <path id="Path_1009" data-name="Path 1009" d="M41.729,42.239H35.693a3.863,3.863,0,0,1-3.126-1.294A4.129,4.129,0,0,1,31.7,37.6v-2.91A1.311,1.311,0,0,1,33,33.4a1.391,1.391,0,0,1,1.294,1.294v3.234c0,.216-.108.97.216,1.294a1.431,1.431,0,0,0,1.078.323h6.036a.532.532,0,0,0,.323-.108c.108-.108.216-.323.216-.862V37.281H53.91A1.311,1.311,0,0,1,55.2,38.574a1.391,1.391,0,0,1-1.294,1.294H44.748a2.384,2.384,0,0,1-1.078,1.617A2.789,2.789,0,0,1,41.729,42.239Z" transform="translate(-25.064 -7.887)" fill="#5e59ed"/>
  <path id="Path_1010" data-name="Path 1010" d="M64.674,42.231a2.984,2.984,0,0,1-1.94-.647,3.062,3.062,0,0,1-1.078-1.617H52.494A1.311,1.311,0,0,1,51.2,38.674a1.391,1.391,0,0,1,1.294-1.294H64.243v1.294c0,.539.108.862.216.862a.4.4,0,0,0,.323.108h5.929a1.431,1.431,0,0,0,1.078-.323A1.47,1.47,0,0,0,72,38.027V34.794A1.311,1.311,0,0,1,73.3,33.5a1.391,1.391,0,0,1,1.294,1.294V37.7a4.062,4.062,0,0,1-.862,3.342A3.712,3.712,0,0,1,70.6,42.339H65C65,42.231,64.89,42.231,64.674,42.231Z" transform="translate(-23.54 -7.879)" fill="#5e59ed"/>
  <path id="Path_1011" data-name="Path 1011" d="M88.556,36.806H29.593a3.863,3.863,0,0,1-3.126-1.294,4.129,4.129,0,0,1-.862-3.342V31.2A1.311,1.311,0,0,1,26.9,29.907,1.391,1.391,0,0,1,28.192,31.2v1.294c0,.216-.108.97.216,1.294a1.431,1.431,0,0,0,1.078.323H88.556c.323,0,1.186,0,1.509-2.156.216-2.156.108-5.066-1.294-6.575A3.266,3.266,0,0,0,86.4,24.3c-5.5-.216-11.749,0-11.857,0a1.348,1.348,0,1,1-.108-2.695c.108,0,6.468-.216,11.965,0a5.884,5.884,0,0,1,4.312,2.048c2.264,2.695,2.048,6.9,1.94,8.623C92.329,35.189,90.82,36.806,88.556,36.806Z" transform="translate(-25.54 -8.813)" fill="#5e59ed"/>
  <circle id="Ellipse_245" data-name="Ellipse 245" cx="1.401" cy="1.401" r="1.401" transform="translate(59.459 17.213)" fill="#5e59ed"/>
  <path id="Path_1012" data-name="Path 1012" d="M82.14,29.081a1.94,1.94,0,1,1,1.94-1.94A1.932,1.932,0,0,1,82.14,29.081Zm0-2.8A.862.862,0,1,0,83,27.14.927.927,0,0,0,82.14,26.278Z" transform="translate(-21.28 -8.526)" fill="#5e59ed"/>
  <path id="Path_1013" data-name="Path 1013" d="M69.978,37.724H36.993a5.55,5.55,0,0,1-5.39-5.713V29.747c-.108-3.881-.216-7.869,2.371-11.642a23.675,23.675,0,0,1,1.509-1.94A16.241,16.241,0,0,1,37.963,13.9a22.111,22.111,0,0,1,11.21-3.988h0a52.263,52.263,0,0,1,11.426.323c9.594,1.186,14.875,5.713,14.875,12.612V31.9A5.811,5.811,0,0,1,69.978,37.724ZM53.054,12.5c-1.294,0-2.479.108-3.665.216h0a19.632,19.632,0,0,0-9.809,3.449,12.109,12.109,0,0,0-2.156,1.94L36.13,19.722c-2.048,3.018-2.048,6.252-1.94,10.025v2.371a2.821,2.821,0,0,0,2.695,3.018H69.87a2.888,2.888,0,0,0,2.695-3.018V22.956c0-6.9-6.791-9.27-12.5-9.917A40.651,40.651,0,0,0,53.054,12.5Zm-3.773-1.186Z" transform="translate(-25.071 -9.731)" fill="#5e59ed"/>
</svg>
