<svg id="Group_1664" data-name="Group 1664" xmlns="http://www.w3.org/2000/svg" width="37.313" height="42.902" viewBox="0 0 37.313 42.902">
  <path id="Path_1040" data-name="Path 1040" d="M510.556,44.6H486.195a1.311,1.311,0,0,1-1.294-1.294v-24.9a22.966,22.966,0,0,1,.216-4.743A14.376,14.376,0,0,1,499.022,1.7c4.743,0,8.731,1.725,11.1,4.851,3.126,4.2,2.8,9.594,2.587,14.444,0,.97-.108,1.94-.108,2.8-.108,4.958-.216,10.025-.323,14.983l-.108,2.479C511.957,43.847,511.85,44.6,510.556,44.6ZM487.6,41.907h21.666c0-.755,0-1.725.108-3.234.108-5.066.216-10.025.323-15.091,0-.97.108-1.94.108-2.91.216-4.527.539-9.27-2.048-12.612-2.479-3.342-6.683-3.773-8.947-3.773A11.71,11.71,0,0,0,487.6,14.1a18.137,18.137,0,0,0-.108,4.2V35.655Z" transform="translate(-479.28 -1.7)" fill="#5e59ed"/>
  <path id="Path_1041" data-name="Path 1041" d="M497.594,42.931a1.311,1.311,0,0,1-1.294-1.294V21.157c0-8.192,12.288-10.348,12.827-10.456a1.311,1.311,0,0,1,.431,2.587c-.108,0-10.564,1.832-10.564,7.761V41.53A1.6,1.6,0,0,1,497.594,42.931Z" transform="translate(-478.39 -1)" fill="#5e59ed"/>
  <path id="Path_1042" data-name="Path 1042" d="M483.151,32.163a17.626,17.626,0,0,1-2.371-.216,1.374,1.374,0,0,1,.539-2.695c3.665.755,6.791-.539,9.27-3.881a19.629,19.629,0,0,0,2.8-5.5,1.333,1.333,0,0,1,2.587.647C494.684,24.833,490.588,32.163,483.151,32.163Z" transform="translate(-479.685 -0.364)" fill="#5e59ed"/>
  <circle id="Ellipse_247" data-name="Ellipse 247" cx="1.509" cy="1.509" r="1.509" transform="translate(22.33 7.114)" fill="#5e59ed"/>
  <path id="Path_1043" data-name="Path 1043" d="M501.948,12A2.047,2.047,0,0,1,499.9,9.948a2.048,2.048,0,1,1,4.1,0A2.047,2.047,0,0,1,501.948,12Zm0-3.126a.97.97,0,1,0,.97.97A.966.966,0,0,0,501.948,8.87Z" transform="translate(-478.109 -1.217)" fill="#5e59ed"/>
  <path id="Path_1044" data-name="Path 1044" d="M513.5,11.087h-4.2A1.311,1.311,0,0,1,508,9.794,1.391,1.391,0,0,1,509.293,8.5h4.2a1.294,1.294,0,0,1,0,2.587Z" transform="translate(-477.478 -1.17)" fill="#5e59ed"/>
</svg>
