<svg id="Group_1667" data-name="Group 1667" xmlns="http://www.w3.org/2000/svg" width="49.195" height="69.311" viewBox="0 0 49.195 69.311">
  <path id="Path_1076" data-name="Path 1076" d="M356.607,176.269c-4.2,0-8.731-2.371-9.378-6.468a75.47,75.47,0,0,1-.647-8.623c0-1.4-.108-2.8-.108-4.1a27.394,27.394,0,0,1,.108-4.2c-4.1,0-7.546-1.832-10.456-5.605a15.177,15.177,0,0,1-3.018-8.731c-.108-2.479-.108-4.958-.108-7.33V128.3a4.945,4.945,0,0,1,4.959-4.958h.108c1.832,0,4.42,0,6.144,1.832,1.617,1.725,1.509,4.42,1.509,6.036a13.574,13.574,0,0,1-.431,2.91c-.323,1.94-.647,3.665.108,5.066a3.922,3.922,0,0,0,1.725,1.509,109.456,109.456,0,0,0,.108-15.738c-.108-2.8-.216-5.821-.216-8.731a5.981,5.981,0,0,1,5.929-5.929h5.174a5.981,5.981,0,0,1,5.929,5.929V124.1c0,2.479,0,4.958.108,7.438v2.479a2.953,2.953,0,0,0,1.725-2.264v-.216a22.009,22.009,0,0,0-.323-3.665c-.108-1.078-.216-2.264-.323-3.342-.108-1.617-.216-4.312,1.509-6.036,1.725-1.832,4.2-1.725,6.144-1.832h.108a4.945,4.945,0,0,1,4.959,4.958h0v2.8c0,2.371,0,4.851-.108,7.33a15.178,15.178,0,0,1-3.018,8.731c-2.8,3.557-7.114,6.36-10.995,5.605V169.8c0,3.449-2.587,5.821-6.575,6.144C357.146,176.269,356.93,176.269,356.607,176.269Zm-8.731-26.086a1.739,1.739,0,0,1,.97.323,1.384,1.384,0,0,1,.431,1.078l-.108,1.078a28.817,28.817,0,0,0-.108,4.312c.108,1.4.108,2.8.108,4.2a66.767,66.767,0,0,0,.539,8.192c.431,2.91,4.2,4.527,7.438,4.2,1.186-.108,4.1-.647,4.1-3.557V144.47a1.489,1.489,0,0,1,.647-1.186,1.136,1.136,0,0,1,1.294,0c3.557,1.832,7.761-1.94,9.594-4.2a12.606,12.606,0,0,0,2.479-7.222c.108-2.371.108-4.851.108-7.222v-2.91h0a2.277,2.277,0,0,0-2.264-2.264h-.108c-1.509,0-3.234,0-4.2.97-.862.862-.862,2.479-.755,4.1a15.393,15.393,0,0,0,.323,3.126c.108,1.294.323,2.587.323,3.988v.431c-.108,2.8-2.8,4.743-5.39,5.39a1.5,1.5,0,0,1-1.186-.216,1.327,1.327,0,0,1-.539-1.078c0-1.509,0-3.018-.108-4.42,0-2.479-.108-4.958-.108-7.438v-7.869a3.176,3.176,0,0,0-3.234-3.234h-5.174a3.176,3.176,0,0,0-3.234,3.234c0,2.8.108,5.713.216,8.516.216,5.929.539,12.073-.323,18.109a1.371,1.371,0,0,1-.755.97,1.164,1.164,0,0,1-1.186,0l-.431-.216a8.2,8.2,0,0,1-4.1-3.234c-1.294-2.264-.862-4.743-.431-6.9a10.63,10.63,0,0,0,.323-2.587c.108-1.617.108-3.234-.755-4.1-.862-.97-2.695-.97-4.2-.97h-.108a2.277,2.277,0,0,0-2.264,2.264v2.91c0,2.371,0,4.851.108,7.222a11.881,11.881,0,0,0,2.479,7.222c2.695,3.449,5.713,4.851,9.594,4.527Z" transform="translate(-328.755 -106.958)" fill="#5e59ed"/>
  <path id="Path_1077" data-name="Path 1077" d="M352.594,123.974a1.311,1.311,0,0,1-1.294-1.294v-2.587a1.311,1.311,0,0,1,1.294-1.294,1.391,1.391,0,0,1,1.294,1.294v2.479A1.337,1.337,0,0,1,352.594,123.974Z" transform="translate(-327.329 -106.296)" fill="#5e59ed"/>
  <path id="Path_1078" data-name="Path 1078" d="M353.493,112.266a1.311,1.311,0,0,1-1.294-1.294v-2.479a1.311,1.311,0,0,1,1.294-1.294,1.391,1.391,0,0,1,1.294,1.294v2.479A1.311,1.311,0,0,1,353.493,112.266Z" transform="translate(-327.259 -107.2)" fill="#5e59ed"/>
  <path id="Path_1079" data-name="Path 1079" d="M368.994,118.366a1.311,1.311,0,0,1-1.294-1.294v-2.479a1.311,1.311,0,0,1,1.294-1.294,1.391,1.391,0,0,1,1.294,1.294v2.479A1.189,1.189,0,0,1,368.994,118.366Z" transform="translate(-326.051 -106.725)" fill="#5e59ed"/>
  <path id="Path_1080" data-name="Path 1080" d="M338.594,124.266a1.311,1.311,0,0,1-1.294-1.294v-2.479a1.311,1.311,0,0,1,1.294-1.294,1.391,1.391,0,0,1,1.294,1.294v2.479A1.391,1.391,0,0,1,338.594,124.266Z" transform="translate(-328.42 -106.265)" fill="#5e59ed"/>
  <path id="Path_1081" data-name="Path 1081" d="M372.108,144.542A1.327,1.327,0,0,1,371.03,144l-4.312-6.252a1.316,1.316,0,0,1,2.156-1.509l4.312,6.252a1.256,1.256,0,0,1-.323,1.832A2,2,0,0,1,372.108,144.542Z" transform="translate(-326.148 -104.982)" fill="#5e59ed"/>
  <path id="Path_1082" data-name="Path 1082" d="M330.4,135.132a1.166,1.166,0,0,1-1.186-.755,1.382,1.382,0,0,1,.539-1.833L336,129.311a1.351,1.351,0,0,1,1.294,2.371l-6.252,3.234A.792.792,0,0,1,330.4,135.132Z" transform="translate(-329.062 -105.488)" fill="#5e59ed"/>
  <path id="Path_1083" data-name="Path 1083" d="M356.694,128.674a1.337,1.337,0,0,1-1.294-1.4v-2.479a1.311,1.311,0,0,1,1.294-1.294,1.391,1.391,0,0,1,1.294,1.294v2.479A1.338,1.338,0,0,1,356.694,128.674Z" transform="translate(-327.01 -105.93)" fill="#5e59ed"/>
  <path id="Path_1084" data-name="Path 1084" d="M338.194,137.866a1.311,1.311,0,0,1-1.294-1.294v-2.479a1.311,1.311,0,0,1,1.294-1.294,1.391,1.391,0,0,1,1.293,1.294v2.479A1.391,1.391,0,0,1,338.194,137.866Z" transform="translate(-328.451 -105.205)" fill="#5e59ed"/>
  <path id="Path_1085" data-name="Path 1085" d="M368.693,132.374a1.311,1.311,0,0,1-1.294-1.294V128.6a1.3,1.3,0,1,1,2.587,0v2.479A1.189,1.189,0,0,1,368.693,132.374Z" transform="translate(-326.074 -105.641)" fill="#5e59ed"/>
  <path id="Path_1086" data-name="Path 1086" d="M351.893,148.266a1.311,1.311,0,0,1-1.294-1.294v-2.479a1.311,1.311,0,0,1,1.294-1.294,1.391,1.391,0,0,1,1.294,1.294v2.479A1.189,1.189,0,0,1,351.893,148.266Z" transform="translate(-327.384 -104.394)" fill="#5e59ed"/>
  <path id="Path_1087" data-name="Path 1087" d="M356.994,158.666a1.311,1.311,0,0,1-1.294-1.294v-2.479a1.311,1.311,0,0,1,1.294-1.294,1.391,1.391,0,0,1,1.294,1.294v2.479A1.311,1.311,0,0,1,356.994,158.666Z" transform="translate(-326.986 -103.584)" fill="#5e59ed"/>
  <path id="Path_1088" data-name="Path 1088" d="M344.6,165.487a1.224,1.224,0,0,1-.862-.323,1.366,1.366,0,0,1-.108-1.94l4.635-5.39a1.374,1.374,0,1,1,2.048,1.832l-4.635,5.39A1.544,1.544,0,0,1,344.6,165.487Z" transform="translate(-327.955 -103.29)" fill="#5e59ed"/>
</svg>
