<svg id="Group_1662" data-name="Group 1662" xmlns="http://www.w3.org/2000/svg" width="61.711" height="44.866" viewBox="0 0 61.711 44.866">
  <path id="Path_1018" data-name="Path 1018" d="M197.463,44.844h-7.869A1.311,1.311,0,0,1,188.3,43.55V23.5a6.637,6.637,0,0,1,1.832-4.958,10.632,10.632,0,0,1,6.36-2.91,12.29,12.29,0,0,1-1.078-2.048c-.97-2.048-1.94-4.312-1.4-6.791A8.8,8.8,0,0,1,198,1.08a10.046,10.046,0,0,1,6.9-.862,26.881,26.881,0,0,1,7.007,2.371l.647.323c1.509.755,3.018,1.617,4.312,1.294l1.294-.323c2.371-.647,4.851-1.294,7.761,0a10.063,10.063,0,0,1,5.282,6.144c1.294,3.773.97,6.575.647,9.486-.108,1.294-.216,2.587-.323,4.1v.862c-.216,6.252.647,6.9,1.078,7.007a1.25,1.25,0,0,0,1.078-.431,7.5,7.5,0,0,0,1.078-2.479c.216-.539.323-1.186.539-1.725a4.971,4.971,0,0,1,1.725-2.371,4.067,4.067,0,0,1,3.449-.647,3,3,0,0,1,1.832,1.94,7.634,7.634,0,0,1-.323,4.42A12.026,12.026,0,0,1,238.532,36c-3.018,3.126-8.3,4.958-12.5,1.617-2.695-2.156-2.8-5.174-2.8-7.761v-.539a21.047,21.047,0,0,0-.108-3.126h-3.881V43.335a1.311,1.311,0,0,1-1.294,1.294h-8.408a1.311,1.311,0,0,1-1.294-1.294V38.161h-9.378v5.282A1.427,1.427,0,0,1,197.463,44.844Zm-6.575-1.4Zm0-1.294h5.174V36.867a1.311,1.311,0,0,1,1.294-1.294h12.181a1.311,1.311,0,0,1,1.294,1.294v5.174h5.713V24.794a1.311,1.311,0,0,1,1.294-1.294h6.036c1.832,0,1.94,2.264,1.94,5.821v.431c0,2.695.108,4.42,1.725,5.713,2.91,2.264,6.575.97,8.947-1.4a10.718,10.718,0,0,0,2.695-4.635,5.758,5.758,0,0,0,.323-2.91.106.106,0,0,0-.108-.108,1.469,1.469,0,0,0-1.078.216,3.21,3.21,0,0,0-.755,1.186,6.177,6.177,0,0,0-.431,1.509,8.463,8.463,0,0,1-1.509,3.342,3.685,3.685,0,0,1-3.342,1.509c-3.988-.216-3.773-6.468-3.665-9.809v-.755c0-1.617.216-3.018.323-4.312.323-2.91.539-5.174-.539-8.408a7.161,7.161,0,0,0-3.881-4.527c-1.94-.862-3.665-.431-5.929.216L217.3,6.9c-2.371.539-4.527-.539-6.252-1.509l-.431-.323a25.252,25.252,0,0,0-6.252-2.156,7.068,7.068,0,0,0-5.066.539A6.012,6.012,0,0,0,196.6,7.332c-.323,1.725.323,3.342,1.186,5.066a23.229,23.229,0,0,0,8.084,9.27,5.21,5.21,0,0,0,3.773.862c2.91-.431,5.39-3.773,6.575-6.791a1.331,1.331,0,1,1,2.479.97c-1.294,3.557-4.42,7.869-8.731,8.516a7.94,7.94,0,0,1-5.605-1.294,28.25,28.25,0,0,1-6.144-5.713c-2.048.108-4.743.647-6.144,2.156A3.891,3.891,0,0,0,191,23.393Z" transform="translate(-180.798 0.022)" fill="#5e59ed"/>
  <circle id="Ellipse_246" data-name="Ellipse 246" cx="1.401" cy="1.401" r="1.401" transform="translate(39.518 14.468)" fill="#5e59ed"/>
  <path id="Path_1019" data-name="Path 1019" d="M219.44,16.781a1.94,1.94,0,1,1,1.94-1.94A1.932,1.932,0,0,1,219.44,16.781Zm0-2.91a.85.85,0,0,0-.862.862.862.862,0,0,0,1.725,0A.85.85,0,0,0,219.44,13.87Z" transform="translate(-178.521 1.029)" fill="#5e59ed"/>
  <path id="Path_1020" data-name="Path 1020" d="M185.393,30.72h0c-2.695,0-3.449-2.264-3.988-3.665a1.363,1.363,0,0,1,2.587-.862c.539,1.509.755,1.832,1.4,1.832h0c1.186,0,2.371-4.1,2.8-5.605.323-.97.539-1.725.755-2.264a1.374,1.374,0,1,1,2.479,1.186,13.48,13.48,0,0,0-.647,1.94C189.813,26.3,188.627,30.72,185.393,30.72Z" transform="translate(-181.339 1.535)" fill="#5e59ed"/>
</svg>
