<svg id="Group_1666" data-name="Group 1666" xmlns="http://www.w3.org/2000/svg" width="40.746" height="65.418" viewBox="0 0 40.746 65.418">
  <path id="Path_1089" data-name="Path 1089" d="M218.917,174.332H190.029A5.981,5.981,0,0,1,184.1,168.4V138.329a5.981,5.981,0,0,1,5.929-5.929h28.889a5.981,5.981,0,0,1,5.929,5.929V168.4A5.911,5.911,0,0,1,218.917,174.332Zm-28.781-39.237a3.176,3.176,0,0,0-3.234,3.234V168.4a3.176,3.176,0,0,0,3.234,3.234h28.889a3.176,3.176,0,0,0,3.234-3.234V138.329a3.176,3.176,0,0,0-3.234-3.234Z" transform="translate(-184.1 -108.913)" fill="#5e59ed"/>
  <path id="Path_1090" data-name="Path 1090" d="M197.035,150.17a4.635,4.635,0,1,1,4.635-4.635A4.6,4.6,0,0,1,197.035,150.17Zm0-6.575a1.94,1.94,0,1,0,1.94,1.94A1.932,1.932,0,0,0,197.035,143.595Z" transform="translate(-183.453 -108.251)" fill="#5e59ed"/>
  <path id="Path_1091" data-name="Path 1091" d="M209.835,150.17a4.635,4.635,0,1,1,4.635-4.635A4.67,4.67,0,0,1,209.835,150.17Zm0-6.575a1.94,1.94,0,1,0,1.94,1.94A2,2,0,0,0,209.835,143.595Z" transform="translate(-182.456 -108.251)" fill="#5e59ed"/>
  <path id="Path_1092" data-name="Path 1092" d="M211.943,164.226H196.1a5.521,5.521,0,0,1-5.5-5.5V158.3a5.521,5.521,0,0,1,5.5-5.5h15.846a5.521,5.521,0,0,1,5.5,5.5v.431A5.521,5.521,0,0,1,211.943,164.226ZM196.1,155.495a2.854,2.854,0,0,0-2.8,2.8v.431a2.854,2.854,0,0,0,2.8,2.8h15.846a2.854,2.854,0,0,0,2.8-2.8V158.3a2.854,2.854,0,0,0-2.8-2.8Z" transform="translate(-183.593 -107.324)" fill="#5e59ed"/>
  <path id="Path_1093" data-name="Path 1093" d="M219.29,135.523H189v-3.557a5.06,5.06,0,0,1,5.066-5.066h20.157a5.06,5.06,0,0,1,5.066,5.066Zm-1.4-1.4Zm-26.194-1.294h24.9v-.862a2.393,2.393,0,0,0-2.371-2.371H194.066a2.393,2.393,0,0,0-2.371,2.371v.862Z" transform="translate(-183.718 -109.342)" fill="#5e59ed"/>
  <path id="Path_1094" data-name="Path 1094" d="M212.036,119.977a4.882,4.882,0,0,1-1.725-.323,4.647,4.647,0,0,1-2.587-6.036,4.717,4.717,0,0,1,6.036-2.695,4.647,4.647,0,0,1,2.587,6.036,4.5,4.5,0,0,1-2.479,2.587A3.543,3.543,0,0,1,212.036,119.977Zm0-6.683a1.992,1.992,0,0,0-1.832,1.186,2.026,2.026,0,0,0,1.078,2.587,1.837,1.837,0,0,0,1.509,0,2.1,2.1,0,0,0,1.078-1.078h0a2.026,2.026,0,0,0-1.078-2.587C212.467,113.4,212.252,113.294,212.036,113.294Z" transform="translate(-182.285 -110.611)" fill="#5e59ed"/>
  <path id="Path_1095" data-name="Path 1095" d="M206.7,130.074a.972.972,0,0,1-.539-.108,1.35,1.35,0,0,1-.755-1.725l4.312-10.779a1.331,1.331,0,0,1,2.479.97l-4.312,10.779A1.168,1.168,0,0,1,206.7,130.074Z" transform="translate(-182.448 -110.145)" fill="#5e59ed"/>
  <path id="Path_1096" data-name="Path 1096" d="M194.736,119.977a3.543,3.543,0,0,1-1.832-.431,4.5,4.5,0,0,1-2.479-2.587h0a4.647,4.647,0,0,1,2.587-6.036,4.717,4.717,0,0,1,6.036,2.695,4.647,4.647,0,0,1-2.587,6.036A4.469,4.469,0,0,1,194.736,119.977Zm-1.725-3.988a1.78,1.78,0,0,0,1.078,1.078,1.837,1.837,0,0,0,1.509,0,1.987,1.987,0,0,0,1.078-2.587A1.78,1.78,0,0,0,195.6,113.4a1.837,1.837,0,0,0-1.509,0,1.936,1.936,0,0,0-1.078,2.587Z" transform="translate(-183.634 -110.611)" fill="#5e59ed"/>
  <path id="Path_1097" data-name="Path 1097" d="M199.913,130.074a1.4,1.4,0,0,1-1.294-.862l-4.312-10.779a1.331,1.331,0,1,1,2.479-.97l4.312,10.779a1.312,1.312,0,0,1-.755,1.725C200.237,130.074,200.129,130.074,199.913,130.074Z" transform="translate(-183.313 -110.145)" fill="#5e59ed"/>
</svg>
