<svg id="Group_1665" data-name="Group 1665" xmlns="http://www.w3.org/2000/svg" width="40.045" height="75.886" viewBox="0 0 40.045 75.886">
  <path id="Path_1068" data-name="Path 1068" d="M65.094,169.442a1.311,1.311,0,0,1-1.293-1.294v-9.055a1.311,1.311,0,0,1,1.293-1.294,1.391,1.391,0,0,1,1.294,1.294v8.947A1.223,1.223,0,0,1,65.094,169.442Z" transform="translate(-38.927 -96.466)" fill="#5e59ed"/>
  <path id="Path_1069" data-name="Path 1069" d="M59.394,172.344a1.311,1.311,0,0,1-1.294-1.294V159.194a1.311,1.311,0,0,1,1.294-1.294,1.391,1.391,0,0,1,1.294,1.294v11.857A1.243,1.243,0,0,1,59.394,172.344Z" transform="translate(-39.371 -96.458)" fill="#5e59ed"/>
  <path id="Path_1070" data-name="Path 1070" d="M53.694,169.442a1.311,1.311,0,0,1-1.294-1.294v-9.055a1.311,1.311,0,0,1,1.294-1.294,1.391,1.391,0,0,1,1.294,1.294v8.947A1.223,1.223,0,0,1,53.694,169.442Z" transform="translate(-39.815 -96.466)" fill="#5e59ed"/>
  <path id="Path_1071" data-name="Path 1071" d="M70.784,154.985a5.951,5.951,0,0,1-4.2-1.725L64.425,151.1a5.986,5.986,0,0,1,0-8.408l2.371-2.371a5.986,5.986,0,0,1,8.408,0l2.156,2.156a6.053,6.053,0,0,1,0,8.408l-2.371,2.371A5.951,5.951,0,0,1,70.784,154.985Zm.323-13.69a2.936,2.936,0,0,0-2.264.97l-2.371,2.371a3.1,3.1,0,0,0-.97,2.264,2.936,2.936,0,0,0,.97,2.264l2.156,2.156a3.326,3.326,0,0,0,4.527,0l2.371-2.371a3.125,3.125,0,0,0,0-4.527l-2.156-2.156A3.1,3.1,0,0,0,71.108,141.295Z" transform="translate(-39.012 -97.962)" fill="#5e59ed"/>
  <path id="Path_1072" data-name="Path 1072" d="M48.783,154.483a5.868,5.868,0,0,1-4.2-1.725h0L42.423,150.6a6.053,6.053,0,0,1,0-8.408l2.371-2.371a6.053,6.053,0,0,1,8.408,0l2.156,2.156a6.053,6.053,0,0,1,0,8.408l-2.371,2.371A6.353,6.353,0,0,1,48.783,154.483Zm-2.371-3.665a3.125,3.125,0,0,0,4.527,0l2.371-2.371a3.125,3.125,0,0,0,0-4.527l-2.156-2.156a3.125,3.125,0,0,0-4.527,0l-2.371,2.371a3.125,3.125,0,0,0,0,4.527Z" transform="translate(-40.725 -97.999)" fill="#5e59ed"/>
  <path id="Path_1073" data-name="Path 1073" d="M69.784,156.628s18-26.948-9.378-54.328H60.3c-27.379,27.379-9.378,54.328-9.378,54.328Z" transform="translate(-40.383 -100.791)" fill="#fff"/>
  <path id="Path_1074" data-name="Path 1074" d="M69.867,158.03H51.111a1.186,1.186,0,0,1-1.078-.647c-.216-.323-18.325-28.134,9.486-56.053a1.605,1.605,0,0,1,.97-.431,1.544,1.544,0,0,1,1.078.431c27.811,27.811,9.7,55.729,9.486,56.053A1.489,1.489,0,0,1,69.867,158.03Zm-18-2.695H69.113c2.479-4.1,14.444-27.056-8.623-51.094C37.421,128.279,49.386,151.239,51.866,155.336Z" transform="translate(-40.467 -100.9)" fill="#5e59ed"/>
  <path id="Path_1075" data-name="Path 1075" d="M59.644,127.688a6.141,6.141,0,0,1-6.144-6.144,6.144,6.144,0,1,1,12.288,0A6.141,6.141,0,0,1,59.644,127.688Zm0-9.7a3.473,3.473,0,0,0-3.449,3.449,3.449,3.449,0,0,0,6.9,0A3.473,3.473,0,0,0,59.644,117.987Z" transform="translate(-39.729 -99.77)" fill="#5e59ed"/>
</svg>
