<svg id="Group_1663" data-name="Group 1663" xmlns="http://www.w3.org/2000/svg" width="48.291" height="40.53" viewBox="0 0 48.291 40.53">
  <path id="Path_1025" data-name="Path 1025" d="M335.868,38.278a6.866,6.866,0,0,1-4.958-1.617,5.46,5.46,0,0,1-1.509-4.2c0-7.007,4.743-7.653,10.348-7.653h4.312c3.557,0,7.33,0,10.995.108a3.3,3.3,0,0,0,1.617-.323c.755-.539.862-1.509.862-3.126V10.252A6.419,6.419,0,0,1,364.109,4a7.365,7.365,0,0,1,7.33,7.114c.108,2.91.108,5.821,0,8.623v4.42c0,.216-.755,14.121-14.875,14.121h-6.791c-4.42,0-9.055-.108-13.582,0Zm12.612-10.887h-8.623c-6.683,0-7.653,1.078-7.653,4.958a2.883,2.883,0,0,0,.755,2.264,4.368,4.368,0,0,0,3.234.862c4.527-.108,9.162-.108,13.69,0h6.791c11.642,0,12.181-10.995,12.181-11.534v-4.42c0-2.8.108-5.713,0-8.516a4.722,4.722,0,0,0-4.635-4.527,3.779,3.779,0,0,0-3.881,3.773c-.108,1.294,0,2.695,0,3.988v7.007c0,1.617,0,4.1-2.156,5.5a5.665,5.665,0,0,1-3.018.647C352.791,27.5,350.635,27.391,348.479,27.391Z" transform="translate(-329.4 -4)" fill="#5e59ed"/>
  <path id="Path_1026" data-name="Path 1026" d="M373.5,12.587h-5.605a1.311,1.311,0,0,1-1.294-1.294A1.391,1.391,0,0,1,367.894,10H373.5a1.294,1.294,0,1,1,0,2.587Z" transform="translate(-326.501 -3.532)" fill="#5e59ed"/>
  <path id="Path_1027" data-name="Path 1027" d="M373.5,24.087h-5.605a1.311,1.311,0,0,1-1.294-1.294,1.391,1.391,0,0,1,1.294-1.294H373.5a1.294,1.294,0,1,1,0,2.587Z" transform="translate(-326.501 -2.636)" fill="#5e59ed"/>
  <path id="Path_1028" data-name="Path 1028" d="M353.794,42.192A1.311,1.311,0,0,1,352.5,40.9V35.294A1.311,1.311,0,0,1,353.794,34a1.391,1.391,0,0,1,1.294,1.294V40.9A1.243,1.243,0,0,1,353.794,42.192Z" transform="translate(-327.6 -1.662)" fill="#5e59ed"/>
  <path id="Path_1029" data-name="Path 1029" d="M342.794,42.192A1.311,1.311,0,0,1,341.5,40.9V35.294A1.311,1.311,0,0,1,342.794,34a1.391,1.391,0,0,1,1.294,1.294V40.9A1.311,1.311,0,0,1,342.794,42.192Z" transform="translate(-328.457 -1.662)" fill="#5e59ed"/>
  <path id="Path_1030" data-name="Path 1030" d="M367.988,36.289a1.317,1.317,0,0,1-.97-.431l-3.988-3.988a1.372,1.372,0,1,1,1.94-1.94l3.988,3.988a1.366,1.366,0,0,1,0,1.94A1.937,1.937,0,0,1,367.988,36.289Z" transform="translate(-326.811 -2.011)" fill="#5e59ed"/>
  <path id="Path_1031" data-name="Path 1031" d="M362.469,13.466a16.535,16.535,0,0,1-5.713-1.078,1.374,1.374,0,1,1,1.186-2.479h0a12.737,12.737,0,0,0,9.162,0,1.235,1.235,0,0,1,1.725.755,1.235,1.235,0,0,1-.755,1.725A13.591,13.591,0,0,1,362.469,13.466Z" transform="translate(-327.328 -3.549)" fill="#5e59ed"/>
  <path id="Path_1032" data-name="Path 1032" d="M351.259,36.088a1.17,1.17,0,0,1-.97-.431A15.235,15.235,0,0,1,346.3,25.094,1.348,1.348,0,1,1,349,25.2a12.6,12.6,0,0,0,3.234,8.516,1.366,1.366,0,0,1,0,1.94A1.317,1.317,0,0,1,351.259,36.088Z" transform="translate(-328.083 -2.457)" fill="#5e59ed"/>
  <path id="Path_1033" data-name="Path 1033" d="M342.459,36.088a1.17,1.17,0,0,1-.97-.431A15.235,15.235,0,0,1,337.5,25.094a1.348,1.348,0,1,1,2.695.108,12.6,12.6,0,0,0,3.234,8.516,1.366,1.366,0,0,1,0,1.94A1.051,1.051,0,0,1,342.459,36.088Z" transform="translate(-328.769 -2.457)" fill="#5e59ed"/>
  <path id="Path_1034" data-name="Path 1034" d="M363.276,33.737h-.108c-7.546-.755-10.456-8.084-10.564-8.408a1.331,1.331,0,1,1,2.479-.97c.108.216,2.479,6.144,8.408,6.683a1.341,1.341,0,0,1,1.186,1.509A1.492,1.492,0,0,1,363.276,33.737Z" transform="translate(-327.597 -2.477)" fill="#5e59ed"/>
  <path id="Path_1035" data-name="Path 1035" d="M362.469,23.066a16.535,16.535,0,0,1-5.713-1.078,1.374,1.374,0,0,1,1.186-2.479h0a12.737,12.737,0,0,0,9.162,0,1.331,1.331,0,1,1,.97,2.479A15.607,15.607,0,0,1,362.469,23.066Z" transform="translate(-327.328 -2.801)" fill="#5e59ed"/>
</svg>
