<svg id="Group_1857" data-name="Group 1857" xmlns="http://www.w3.org/2000/svg" width="31.476" height="70.928" viewBox="0 0 31.476 70.928">
  <g id="Group_1830" data-name="Group 1830" transform="translate(0.108 30.699)">
    <path id="Path_1282" data-name="Path 1282" d="M36.492,55.785a1.317,1.317,0,0,1-.97-.431l-6.791-6.791a1.605,1.605,0,0,1-.431-.97,1.317,1.317,0,0,1,.431-.97l6.791-6.791a1.605,1.605,0,0,1,.97-.431h0a1.317,1.317,0,0,1,.97.431l6.791,6.791a1.366,1.366,0,0,1,0,1.94l-6.791,6.791A1.17,1.17,0,0,1,36.492,55.785ZM31.642,47.7,36.6,52.659,41.559,47.7,36.6,42.742Z" transform="translate(-13.425 -27.629)" fill="#5e59ed"/>
    <path id="Path_1283" data-name="Path 1283" d="M22.692,55.785a1.317,1.317,0,0,1-.97-.431l-6.791-6.791a1.605,1.605,0,0,1-.431-.97,1.317,1.317,0,0,1,.431-.97l6.791-6.791a1.605,1.605,0,0,1,.97-.431h0a1.317,1.317,0,0,1,.97.431l6.791,6.791a1.366,1.366,0,0,1,0,1.94l-6.791,6.9A1.318,1.318,0,0,1,22.692,55.785ZM17.842,47.7,22.8,52.659,27.759,47.7,22.8,42.742Z" transform="translate(-14.5 -27.629)" fill="#5e59ed"/>
    <path id="Path_1284" data-name="Path 1284" d="M22.69,43.054a1.17,1.17,0,0,1-.97-.431l-6.791-7.007a1.372,1.372,0,0,1,1.94-1.94l5.821,6.036,4.743-4.958-5.066-3.773a1.38,1.38,0,0,1,1.725-2.156l6.252,4.743a1.132,1.132,0,0,1,.539.97,1.821,1.821,0,0,1-.323,1.078l-6.9,7.007A1.366,1.366,0,0,1,22.69,43.054Z" transform="translate(-14.498 -28.48)" fill="#5e59ed"/>
    <path id="Path_1285" data-name="Path 1285" d="M36.487,43.048a1.17,1.17,0,0,1-.97-.431L28.725,35.61a1.3,1.3,0,0,1-.323-1.078,1.132,1.132,0,0,1,.539-.97l6.252-4.743a1.38,1.38,0,1,1,1.725,2.156l-5.066,3.773,4.743,4.958,5.821-6.036a1.372,1.372,0,1,1,1.94,1.94l-6.791,7.007A1.915,1.915,0,0,1,36.487,43.048Z" transform="translate(-13.419 -28.474)" fill="#5e59ed"/>
    <path id="Path_1286" data-name="Path 1286" d="M35.632,66.552a1.224,1.224,0,0,1-.862-.323l-5.929-4.851a1.451,1.451,0,0,1-.539-.97.87.87,0,0,1,.431-.97l6.791-7.007a1.605,1.605,0,0,1,.97-.431h0a1.17,1.17,0,0,1,.97.431l6.36,6.575a1.372,1.372,0,0,1-1.94,1.94l-5.39-5.5-4.851,4.958,4.743,3.881a1.469,1.469,0,0,1,.216,1.94A1.5,1.5,0,0,1,35.632,66.552Z" transform="translate(-13.427 -26.647)" fill="#5e59ed"/>
    <path id="Path_1287" data-name="Path 1287" d="M23.445,66.66a1.5,1.5,0,0,1-1.078-.539,1.385,1.385,0,0,1,.216-1.94l4.958-3.988L22.69,55.234,16.87,61.055a1.372,1.372,0,0,1-1.94-1.94l6.791-6.683A2.663,2.663,0,0,1,22.69,52a1.17,1.17,0,0,1,.97.431l6.791,7.007a1.937,1.937,0,0,1,.431.97,1.132,1.132,0,0,1-.539.97l-6.036,4.851A.98.98,0,0,1,23.445,66.66Z" transform="translate(-14.498 -26.647)" fill="#5e59ed"/>
  </g>
  <g id="Group_1833" data-name="Group 1833" transform="translate(0 30.505)">
    <g id="Group_1832" data-name="Group 1832">
      <g id="Group_1831" data-name="Group 1831">
        <path id="Path_1288" data-name="Path 1288" d="M39.947,68.722H20.329A5.981,5.981,0,0,1,14.4,62.794V34.229A5.981,5.981,0,0,1,20.329,28.3H39.947a5.981,5.981,0,0,1,5.929,5.929V62.794A5.911,5.911,0,0,1,39.947,68.722ZM20.329,30.995a3.176,3.176,0,0,0-3.234,3.234V62.794a3.176,3.176,0,0,0,3.234,3.234H39.947a3.176,3.176,0,0,0,3.234-3.234V34.229a3.176,3.176,0,0,0-3.234-3.234Z" transform="translate(-14.4 -28.3)" fill="#5e59ed"/>
      </g>
    </g>
  </g>
  <g id="Group_1856" data-name="Group 1856" transform="translate(0.458)">
    <g id="Group_1845" data-name="Group 1845" transform="translate(13.555)">
      <g id="Group_1844" data-name="Group 1844">
        <line id="Line_506" data-name="Line 506" x2="0.323" y2="27.056" transform="translate(1.401 1.294)" fill="#fff"/>
        <path id="Path_1297" data-name="Path 1297" d="M29.125,29.751a1.245,1.245,0,0,1-1.294-1.294L27.4,1.4A1.427,1.427,0,0,1,28.8,0a1.337,1.337,0,0,1,1.4,1.294l.431,27.056a1.525,1.525,0,0,1-1.509,1.4Z" transform="translate(-27.4)" fill="#5e59ed"/>
      </g>
    </g>
    <g id="Group_1848" data-name="Group 1848" transform="translate(8.041 1.816)">
      <g id="Group_1846" data-name="Group 1846">
        <line id="Line_507" data-name="Line 507" x2="5.39" y2="28.242" transform="translate(1.31 1.418)" fill="#fff"/>
        <path id="Path_1298" data-name="Path 1298" d="M28.984,32.638a1.28,1.28,0,0,1-1.294-1.078L22.3,3.318A1.374,1.374,0,1,1,25,2.779l5.39,28.242a1.429,1.429,0,0,1-1.078,1.617Z" transform="translate(-22.285 -1.685)" fill="#5e59ed"/>
      </g>
      <g id="Group_1847" data-name="Group 1847" transform="translate(5.365 7.877)">
        <line id="Line_508" data-name="Line 508" x1="11.857" y2="20.373" transform="translate(1.334 1.41)" fill="#fff"/>
        <path id="Path_1299" data-name="Path 1299" d="M28.6,32.068a1.532,1.532,0,0,1-.647-.216,1.381,1.381,0,0,1-.539-1.832L39.268,9.647A1.262,1.262,0,0,1,41.1,9.216a1.381,1.381,0,0,1,.539,1.832L29.782,31.422A1.489,1.489,0,0,1,28.6,32.068Z" transform="translate(-27.262 -8.992)" fill="#5e59ed"/>
      </g>
    </g>
    <g id="Group_1850" data-name="Group 1850" transform="translate(0 17.274)">
      <g id="Group_1849" data-name="Group 1849">
        <line id="Line_509" data-name="Line 509" x2="13.366" y2="12.827" transform="translate(1.374 1.374)" fill="#fff"/>
        <path id="Path_1300" data-name="Path 1300" d="M29.566,31.52a1.739,1.739,0,0,1-.97-.323L15.229,18.37a1.372,1.372,0,0,1,1.94-1.94L30.536,29.257a1.366,1.366,0,0,1,0,1.94A1.739,1.739,0,0,1,29.566,31.52Z" transform="translate(-14.825 -16.025)" fill="#5e59ed"/>
      </g>
    </g>
    <g id="Group_1852" data-name="Group 1852" transform="translate(13.366 17.274)">
      <g id="Group_1851" data-name="Group 1851">
        <line id="Line_510" data-name="Line 510" x1="13.366" y2="12.827" transform="translate(1.374 1.374)" fill="#fff"/>
        <path id="Path_1301" data-name="Path 1301" d="M28.6,31.52a1.17,1.17,0,0,1-.97-.431,1.366,1.366,0,0,1,0-1.94L41,16.429a1.372,1.372,0,0,1,1.94,1.94L29.462,31.2A1.224,1.224,0,0,1,28.6,31.52Z" transform="translate(-27.225 -16.025)" fill="#5e59ed"/>
      </g>
    </g>
    <g id="Group_1855" data-name="Group 1855" transform="translate(2.63 2.424)">
      <g id="Group_1853" data-name="Group 1853" transform="translate(0 6.378)">
        <line id="Line_511" data-name="Line 511" x2="10.779" y2="21.235" transform="translate(1.331 1.439)" fill="#fff"/>
        <path id="Path_1302" data-name="Path 1302" d="M29.376,32.133a1.326,1.326,0,0,1-1.186-.755L17.411,10.143A1.374,1.374,0,0,1,19.89,8.957L30.669,30.193a1.33,1.33,0,0,1-.647,1.832A1.367,1.367,0,0,1,29.376,32.133Z" transform="translate(-17.265 -8.165)" fill="#5e59ed"/>
      </g>
      <g id="Group_1854" data-name="Group 1854" transform="translate(10.762)">
        <line id="Line_512" data-name="Line 512" x1="6.791" y2="27.703" transform="translate(1.349 1.349)" fill="#fff"/>
        <path id="Path_1303" data-name="Path 1303" d="M28.6,32.594h-.323a1.276,1.276,0,0,1-.97-1.617l6.9-27.7a1.333,1.333,0,0,1,2.587.647l-6.9,27.7A1.268,1.268,0,0,1,28.6,32.594Z" transform="translate(-27.249 -2.249)" fill="#5e59ed"/>
      </g>
    </g>
  </g>
</svg>
