<svg xmlns="http://www.w3.org/2000/svg" width="19.779" height="20.706" viewBox="0 0 19.779 20.706">
  <g id="Group_2819" data-name="Group 2819" transform="translate(0.02 0.016)">
    <path id="Path_913" data-name="Path 913" d="M39.291,37.71l-2.749-2.976a2.17,2.17,0,0,0-2.717-.388L31.14,31.208a.8.8,0,0,0-1.229,1.035l2.782,3.234a2.175,2.175,0,0,0,.356,2.458L35.8,40.912a2.193,2.193,0,0,0,3.105.129l.259-.259A2.13,2.13,0,0,0,39.291,37.71Zm-1.2,1.908-.259.259a.6.6,0,0,1-.809-.032l-2.749-2.976a.6.6,0,0,1,.032-.809l.259-.259a.6.6,0,0,1,.388-.162.522.522,0,0,1,.42.194l2.749,2.976A.6.6,0,0,1,38.094,39.618Z" transform="translate(-20.124 -20.933)" fill="#5e59ed"/>
    <g id="Group_1167" data-name="Group 1167" transform="translate(-0.02 -0.016)">
      <g id="Group_1166" data-name="Group 1166" transform="translate(0 0)">
        <circle id="Ellipse_235" data-name="Ellipse 235" cx="5.725" cy="5.725" r="5.725" transform="translate(0.815 0.814)" fill="none"/>
        <path id="Path_914" data-name="Path 914" d="M6.52,13.024a6.724,6.724,0,0,1-1.941-.291A6.425,6.425,0,0,1,.73,9.531,6.518,6.518,0,0,1,8.461.281h0A6.5,6.5,0,0,1,9.528,12.248,6.222,6.222,0,0,1,6.52,13.024Zm0-11.418A4.9,4.9,0,0,0,2.154,8.755a4.813,4.813,0,0,0,2.879,2.394,4.935,4.935,0,0,0,3.72-.323,4.813,4.813,0,0,0,2.394-2.879A4.92,4.92,0,0,0,7.943,1.8,5.212,5.212,0,0,0,6.52,1.607Z" transform="translate(0.02 0.016)" fill="#5e59ed"/>
      </g>
    </g>
  </g>
</svg>
