<svg xmlns="http://www.w3.org/2000/svg" width="21.615" height="25.45" viewBox="0 0 21.615 25.45">
  <g id="Vector-5" transform="translate(0.9 0.9)" fill="none">
    <path d="M19.81,21.152l-1.543-13.3a2.153,2.153,0,0,0-1.991-2.162H14.539V4.925a5.058,5.058,0,0,0-1.345-3.471A4.467,4.467,0,0,0,9.907,0,4.791,4.791,0,0,0,5.276,4.925v.762H3.539a2.153,2.153,0,0,0-1.99,2.162L.005,21.152A2.21,2.21,0,0,0,2,23.65H17.819A2.211,2.211,0,0,0,19.81,21.152ZM6.241,4.925A3.825,3.825,0,0,1,9.907.965a3.51,3.51,0,0,1,2.581,1.148,4.1,4.1,0,0,1,1.085,2.812v.762H6.241ZM5.758,9.019a.932.932,0,1,1,.932-.932A.931.931,0,0,1,5.758,9.019Zm8.3,0a.932.932,0,0,1,0-1.863h0a.932.932,0,0,1,0,1.863Z" stroke="none"/>
    <path d="M 17.81892204284668 23.64972305297852 C 18.97810173034668 23.64972305297852 19.89325141906738 22.50106430053711 19.80972099304199 21.15150260925293 L 18.2667407989502 7.848803520202637 C 18.19144058227539 6.630603313446045 17.3226318359375 5.687023639678955 16.27578163146973 5.687023639678955 L 14.53925132751465 5.687023639678955 L 14.53925132751465 4.924943447113037 C 14.53925132751465 3.615513324737549 14.06143093109131 2.382833480834961 13.19411087036133 1.454213380813599 C 12.31810092926025 0.5164334177970886 11.15107154846191 3.433837946431595e-06 9.907280921936035 3.433837946431595e-06 C 7.353591442108154 3.433837946431595e-06 5.275801181793213 2.209563493728638 5.275801181793213 4.924943447113037 L 5.275801181793213 5.687023639678955 L 3.538751363754272 5.687023639678955 C 2.492371320724487 5.687023639678955 1.623611211776733 6.630603313446045 1.54832124710083 7.848803520202637 L 0.005291247740387917 21.15150260925293 C -0.07820875197649002 22.50106430053711 0.836891233921051 23.64972305297852 1.995731234550476 23.64972305297852 L 17.81892204284668 23.64972305297852 M 14.05419158935547 7.155733585357666 L 14.05902099609375 7.155733585357666 C 14.57255077362061 7.157183647155762 14.98812103271484 7.57369327545166 14.98812103271484 8.08724308013916 C 14.98812103271484 8.601743698120117 14.57115077972412 9.019233703613281 14.05660152435303 9.019233703613281 C 13.54211139678955 9.019233703613281 13.12510108947754 8.601743698120117 13.12510108947754 8.08724308013916 C 13.12510108947754 7.57369327545166 13.5406608581543 7.157183647155762 14.05419158935547 7.155733585357666 M 5.758451461791992 7.155733585357666 C 6.272961139678955 7.155733585357666 6.689961433410645 7.572733402252197 6.689961433410645 8.08724308013916 C 6.690001010894775 8.601743698120117 6.272961139678955 9.018743515014648 5.758451461791992 9.018743515014648 C 5.243951320648193 9.018743515014648 4.826951026916504 8.601743698120117 4.826951026916504 8.08724308013916 C 4.826951026916504 7.572733402252197 5.243951320648193 7.155733585357666 5.758451461791992 7.155733585357666 M 9.907280921936035 0.9652934074401855 C 10.88078117370605 0.9652934074401855 11.79733085632324 1.372653484344482 12.48848152160645 2.113033533096313 C 13.18832111358643 2.862103462219238 13.57395172119141 3.861173391342163 13.57395172119141 4.924943447113037 L 13.57395172119141 5.687023639678955 L 6.241101264953613 5.687023639678955 L 6.241101264953613 4.924943447113037 C 6.241101264953613 2.741443395614624 7.885481357574463 0.9652934074401855 9.907280921936035 0.9652934074401855 M 17.81892204284668 24.54972267150879 L 1.995731234550476 24.54972267150879 C 1.246411204338074 24.54972267150879 0.5365312695503235 24.23356437683105 -0.003118752036243677 23.65948295593262 C -0.6282987594604492 22.99443435668945 -0.9526387453079224 22.0600528717041 -0.8929887413978577 21.09592437744141 L -0.8887187242507935 21.04780387878418 L 0.6517239212989807 7.767409324645996 C 0.7058770656585693 6.982298374176025 1.012693405151367 6.249504089355469 1.517281293869019 5.701473236083984 C 2.06023120880127 5.111783504486084 2.778131246566772 4.787023544311523 3.538751363754272 4.787023544311523 L 4.37732982635498 4.787023544311523 C 4.447103977203369 1.63855242729187 6.900959014892578 -0.8999965786933899 9.907280921936035 -0.8999965786933899 C 11.40289115905762 -0.8999965786933899 12.80374145507812 -0.2821065783500671 13.8518009185791 0.8398434519767761 C 14.84482288360596 1.903056383132935 15.40505123138428 3.300164222717285 15.43773746490479 4.787023544311523 L 16.27578163146973 4.787023544311523 C 17.03657150268555 4.787023544311523 17.75461196899414 5.111763477325439 18.29763031005859 5.701413631439209 C 18.80229759216309 6.249424457550049 19.10917472839355 6.982260704040527 19.16333961486816 7.767419815063477 L 20.7080020904541 21.09590339660645 C 20.76767158508301 22.05997276306152 20.44336128234863 22.99430274963379 19.81821060180664 23.65933418273926 C 19.27848052978516 24.23351287841797 18.56845092773438 24.54972267150879 17.81892204284668 24.54972267150879 Z M 7.143875598907471 4.787023544311523 L 12.67121696472168 4.787023544311523 C 12.6401252746582 4.004139423370361 12.3444995880127 3.277239561080933 11.83084106445312 2.727453470230103 C 11.31175136566162 2.171383380889893 10.62870121002197 1.865293383598328 9.907280921936035 1.865293383598328 C 8.423801422119141 1.865293383598328 7.209326267242432 3.163698673248291 7.143875598907471 4.787023544311523 Z" stroke="none" fill="#5e59ed"/>
  </g>
</svg>
