<svg xmlns="http://www.w3.org/2000/svg" width="504.756" height="223.083" viewBox="0 0 504.756 223.083">
  <g id="Group_2521" data-name="Group 2521" transform="translate(30 -69.917)">
    <line id="Line_502" data-name="Line 502" x2="393" transform="translate(-27.5 290.5)" fill="#fff" stroke="#5e59ed" stroke-linecap="round" stroke-miterlimit="10" stroke-width="5"/>
    <g id="Group_1648" data-name="Group 1648" transform="translate(122.392 -30)">
      <g id="Group_1645" data-name="Group 1645" transform="translate(-4.777 244.541)">
        <path id="Path_1178" data-name="Path 1178" d="M132.714,16.172a11.968,11.968,0,0,0-8.77-4.166c-11.4-.438-24.336,0-24.336,0a2.743,2.743,0,0,0,.219,5.481c.219,0,12.935-.438,24.117,0a5.956,5.956,0,0,1,4.823,2.192c2.631,3.069,3.069,8.989,2.631,13.374s-2.192,4.385-3.069,4.385H8.184a2.91,2.91,0,0,1-2.192-.658,2.99,2.99,0,0,1-.438-2.631V31.519a2.666,2.666,0,0,0-2.631-2.631A2.678,2.678,0,0,0,.072,31.3v1.973a8.262,8.262,0,0,0,1.754,6.8,7.937,7.937,0,0,0,6.358,2.85h5.043v3.289A8.262,8.262,0,0,0,14.98,53c1.1,1.315,2.85,2.631,6.358,2.631h12.5a6.069,6.069,0,0,0,3.946-1.315,6.227,6.227,0,0,0,2.192-3.289h37.71a4.849,4.849,0,0,0,2.192,3.289,6.069,6.069,0,0,0,3.946,1.315H96.1A7.856,7.856,0,0,0,102.458,53a8.4,8.4,0,0,0,1.754-6.8V42.919h23.9c4.6,0,7.673-3.289,8.331-9.208C137.1,30.2,137.537,21.653,132.714,16.172ZM98.731,46.866c0,.438.219,1.973-.438,2.631a2.91,2.91,0,0,1-2.192.658H83.384c-.219-.219-.438-.658-.438-1.754V45.769H34.712V48.4c0,1.1-.219,1.754-.438,1.754a1.083,1.083,0,0,1-.658.219H21.338a2.91,2.91,0,0,1-2.192-.658,2.99,2.99,0,0,1-.438-2.631V43.138H98.731v3.727Z" transform="translate(0 14.047)" fill="#5e59ed"/>
        <g id="Group_1554" data-name="Group 1554" transform="translate(119.778 33.945)">
          <circle id="Ellipse_272" data-name="Ellipse 272" cx="2.85" cy="2.85" r="2.85" transform="translate(1.096 1.096)" fill="#5e59ed"/>
          <path id="Path_1179" data-name="Path 1179" d="M58.546,23.393a3.946,3.946,0,1,1,3.946-3.946A3.93,3.93,0,0,1,58.546,23.393Zm0-5.7a1.886,1.886,0,0,0-1.754,1.754,1.754,1.754,0,0,0,3.508,0A1.614,1.614,0,0,0,58.546,17.692Z" transform="translate(-54.6 -15.5)" fill="#5e59ed"/>
        </g>
        <g id="Group_1555" data-name="Group 1555" transform="translate(13.139 0.031)">
          <path id="Path_1180" data-name="Path 1180" d="M40.6,1.568C32.7,2.445,25.249,4.637,19.11,9.242a21.852,21.852,0,0,0-4.6,4.385,40.03,40.03,0,0,0-2.85,3.508c-5.7,8.112-4.385,17.1-4.385,26.748,0,5.043,3.727,8.989,8.331,8.989H82.691c4.6,0,8.331-3.946,8.331-8.989V25.466c0-16-15.566-21.486-27.844-23.02A96.036,96.036,0,0,0,40.6,1.568Z" transform="translate(-4.553 1.433)" fill="#86f8d1"/>
          <path id="Path_1181" data-name="Path 1181" d="M84.1,56.966H17.01c-6.139,0-10.962-5.262-10.962-11.62v-4.6c-.219-7.893-.438-16,4.823-23.678a27.138,27.138,0,0,1,3.069-3.946,33.034,33.034,0,0,1,5.043-4.6C24.9,4.128,32.576,1.278,41.784.4a106.3,106.3,0,0,1,23.24.658C84.537,3.69,95.279,12.679,95.279,26.71V45.127C95.06,51.7,90.237,56.966,84.1,56.966ZM49.677,5.444c-2.631,0-5.043.219-7.454.438h0c-8.331.877-14.909,3.289-19.951,7.016a24.628,24.628,0,0,0-4.385,3.946l-2.631,3.289c-4.166,6.139-4.166,12.716-3.946,20.39v4.823c0,3.508,2.412,6.139,5.481,6.139H83.879c3.069,0,5.481-2.85,5.481-6.139V26.93c0-14.032-13.812-18.855-25.432-20.17A84.023,84.023,0,0,0,49.677,5.444ZM42,3.032Z" transform="translate(-5.96 -0.031)" fill="#5e59ed"/>
        </g>
      </g>
      <g id="Group_1646" data-name="Group 1646" transform="translate(-50.392 226.363)">
        <path id="Path_1169" data-name="Path 1169" d="M50.162,9.472H39.217A2.662,2.662,0,0,1,36.59,6.846,3.041,3.041,0,0,1,39.217,4H50.162a2.662,2.662,0,0,1,2.627,2.627A2.857,2.857,0,0,1,50.162,9.472Zm-21.89,0H17.327A2.662,2.662,0,0,1,14.7,6.846,3.041,3.041,0,0,1,17.327,4H28.272A2.662,2.662,0,0,1,30.9,6.627,2.857,2.857,0,0,1,28.272,9.472Z" transform="translate(17.478 4.756)" fill="#5e59ed"/>
        <path id="Path_1170" data-name="Path 1170" d="M51,5.472H2.846A2.9,2.9,0,0,1,0,2.627,2.662,2.662,0,0,1,2.627,0H50.785a2.662,2.662,0,0,1,2.627,2.627A2.674,2.674,0,0,1,51,5.472Z" fill="#5e59ed"/>
      </g>
    </g>
    <g id="Group_1652" data-name="Group 1652" transform="translate(213 -30)">
      <g id="Group_1649" data-name="Group 1649" transform="matrix(0.848, -0.53, 0.53, 0.848, 21.984, 180.759)">
        <g id="Group_41" data-name="Group 41" transform="translate(33.914 50.073)">
          <g id="Group_38" data-name="Group 38" transform="translate(2.672 0)">
            <g id="Group_37" data-name="Group 37">
              <line id="Line_37" data-name="Line 37" y2="1.125" fill="none" stroke="#5b5be5" stroke-linecap="round" stroke-miterlimit="10" stroke-width="2.5"/>
              <line id="Line_38" data-name="Line 38" y2="1.266" transform="translate(0 3.797)" fill="none" stroke="#5b5be5" stroke-linecap="round" stroke-miterlimit="10" stroke-width="2.5"/>
            </g>
          </g>
          <g id="Group_40" data-name="Group 40" transform="translate(0 2.531)">
            <g id="Group_39" data-name="Group 39">
              <line id="Line_39" data-name="Line 39" x1="1.266" transform="translate(3.938 0)" fill="none" stroke="#5b5be5" stroke-linecap="round" stroke-miterlimit="10" stroke-width="2.5"/>
              <line id="Line_40" data-name="Line 40" x1="1.266" fill="none" stroke="#5b5be5" stroke-linecap="round" stroke-miterlimit="10" stroke-width="2.5"/>
            </g>
          </g>
        </g>
        <g id="Group_46" data-name="Group 46" transform="translate(86.018 0)">
          <g id="Group_43" data-name="Group 43" transform="translate(5.203 0)">
            <g id="Group_42" data-name="Group 42">
              <line id="Line_41" data-name="Line 41" y2="2.531" fill="none" stroke="#5b5be5" stroke-linecap="round" stroke-miterlimit="10" stroke-width="2.5"/>
              <line id="Line_42" data-name="Line 42" y2="2.531" transform="translate(0 7.875)" fill="none" stroke="#5b5be5" stroke-linecap="round" stroke-miterlimit="10" stroke-width="2.5"/>
            </g>
          </g>
          <g id="Group_45" data-name="Group 45" transform="translate(0 5.203)">
            <g id="Group_44" data-name="Group 44" transform="translate(0 0)">
              <line id="Line_43" data-name="Line 43" x1="2.391" transform="translate(7.875 0)" fill="none" stroke="#5b5be5" stroke-linecap="round" stroke-miterlimit="10" stroke-width="2.5"/>
              <line id="Line_44" data-name="Line 44" x1="2.531" fill="none" stroke="#5b5be5" stroke-linecap="round" stroke-miterlimit="10" stroke-width="2.5"/>
            </g>
          </g>
        </g>
        <g id="Group_47" data-name="Group 47" transform="translate(70.408 23.063)">
          <line id="Line_45" data-name="Line 45" x1="2.813" y2="7.735" transform="translate(19.969 0.563)" fill="none" stroke="#5b5be5" stroke-linecap="round" stroke-miterlimit="10" stroke-width="2.5"/>
          <line id="Line_46" data-name="Line 46" x2="3.516" y2="7.453" fill="none" stroke="#5b5be5" stroke-linecap="round" stroke-miterlimit="10" stroke-width="2.5"/>
          <line id="Line_47" data-name="Line 47" x1="7.594" y2="3.375" transform="translate(32.907 14.907)" fill="none" stroke="#5b5be5" stroke-linecap="round" stroke-miterlimit="10" stroke-width="2.5"/>
        </g>
        <circle id="Ellipse_10" data-name="Ellipse 10" cx="1.688" cy="1.688" r="1.688" transform="translate(109.784 10.688)" fill="#5b5be5"/>
        <circle id="Ellipse_11" data-name="Ellipse 11" cx="1.688" cy="1.688" r="1.688" transform="translate(4.313 57.236)" fill="#5b5be5"/>
        <circle id="Ellipse_12" data-name="Ellipse 12" cx="1.688" cy="1.688" r="1.688" transform="translate(0 83.83)" fill="#5b5be5"/>
        <circle id="Ellipse_13" data-name="Ellipse 13" cx="1.688" cy="1.688" r="1.688" transform="translate(52.127 8.016)" fill="#5b5be5"/>
      </g>
      <g id="Group_1650" data-name="Group 1650" transform="translate(101.92 184.885)">
        <g id="Group_49" data-name="Group 49" transform="translate(13.08 11.269)">
          <path id="Path_8" data-name="Path 8" d="M80.533,81.9H34.653A8.717,8.717,0,0,1,26,73.245V25.353A8.717,8.717,0,0,1,34.653,16.7h45.88a8.717,8.717,0,0,1,8.653,8.653V73.245A8.589,8.589,0,0,1,80.533,81.9Z" transform="translate(10.624 3.222)" fill="#19c6c0" stroke="#5e59ed" stroke-linecap="round" stroke-miterlimit="10" stroke-width="5"/>
          <path id="Path_512" data-name="Path 512" d="M0,122.347V0" transform="translate(0.201)" fill="none" stroke="#5e59ed" stroke-linecap="round" stroke-width="5"/>
          <path id="Path_9" data-name="Path 9" d="M62.132,68.064H16.453A8.717,8.717,0,0,1,7.8,59.411V17.153A8.717,8.717,0,0,1,16.453,8.5H62.132a8.717,8.717,0,0,1,8.653,8.653V59.411A8.589,8.589,0,0,1,62.132,68.064Z" transform="translate(-7.8 -5.079)" fill="#86f8d1" stroke="#5e59ed" stroke-miterlimit="10" stroke-width="5"/>
          <line id="Line_50" data-name="Line 50" x1="18.111" y2="22.336" transform="translate(41.453 61.174)" fill="none" stroke="#5e59ed" stroke-linecap="round" stroke-miterlimit="10" stroke-width="5"/>
        </g>
        <g id="Group_50" data-name="Group 50" transform="translate(115.506 0)">
          <line id="Line_51" data-name="Line 51" x1="10.866" y2="4.427" transform="translate(14.891 24.952)" fill="none" stroke="#5b5be5" stroke-linecap="round" stroke-miterlimit="10" stroke-width="2.5"/>
          <line id="Line_52" data-name="Line 52" x1="4.83" y2="10.866" fill="none" stroke="#5b5be5" stroke-linecap="round" stroke-miterlimit="10" stroke-width="2.5"/>
          <line id="Line_53" data-name="Line 53" x1="10.866" y1="4.83" transform="translate(16.501 52.722)" fill="none" stroke="#5b5be5" stroke-linecap="round" stroke-miterlimit="10" stroke-width="2.5"/>
        </g>
      </g>
      <circle id="Ellipse_273" data-name="Ellipse 273" cx="5.44" cy="5.44" r="5.44" transform="translate(239.302 152.502)" fill="#ebebff" stroke="#5b5be5" stroke-linecap="round" stroke-miterlimit="10" stroke-width="2"/>
      <circle id="Ellipse_274" data-name="Ellipse 274" cx="4.231" cy="4.231" r="4.231" transform="translate(190.943 133.517)" fill="#5e59ed"/>
      <path id="Path_1268" data-name="Path 1268" d="M2.731,0A2.731,2.731,0,1,1,0,2.731,2.731,2.731,0,0,1,2.731,0Z" transform="translate(201.943 184.517)" fill="#ff9194" stroke="#5b5be5" stroke-linecap="round" stroke-width="2"/>
      <circle id="Ellipse_276" data-name="Ellipse 276" cx="2.418" cy="2.418" r="2.418" transform="translate(234.809 100.667)" fill="#fff" stroke="#5b5be5" stroke-linecap="round" stroke-miterlimit="10" stroke-width="1.5"/>
      <circle id="Ellipse_277" data-name="Ellipse 277" cx="2.418" cy="2.418" r="2.418" transform="translate(162.809 167.667)" fill="#fff" stroke="#5b5be5" stroke-linecap="round" stroke-miterlimit="10" stroke-width="1.5"/>
      <circle id="Ellipse_278" data-name="Ellipse 278" cx="3.231" cy="3.231" r="3.231" transform="translate(112.943 181.517)" fill="#d49496"/>
      <circle id="Ellipse_284" data-name="Ellipse 284" cx="3.231" cy="3.231" r="3.231" transform="translate(51.943 205.517)" fill="#d49496"/>
      <g id="Group_1651" data-name="Group 1651" transform="matrix(0.848, -0.53, 0.53, 0.848, 254.279, 186.251)">
        <g id="Group_38-2" data-name="Group 38" transform="translate(2.672 0)">
          <g id="Group_37-2" data-name="Group 37">
            <line id="Line_37-2" data-name="Line 37" y2="1.125" fill="none" stroke="#5b5be5" stroke-linecap="round" stroke-miterlimit="10" stroke-width="2.5"/>
            <line id="Line_38-2" data-name="Line 38" y2="1.266" transform="translate(0 3.797)" fill="none" stroke="#5b5be5" stroke-linecap="round" stroke-miterlimit="10" stroke-width="2.5"/>
          </g>
        </g>
        <g id="Group_40-2" data-name="Group 40" transform="translate(0 2.531)">
          <g id="Group_39-2" data-name="Group 39">
            <line id="Line_39-2" data-name="Line 39" x1="1.266" transform="translate(3.938 0)" fill="none" stroke="#5b5be5" stroke-linecap="round" stroke-miterlimit="10" stroke-width="2.5"/>
            <line id="Line_40-2" data-name="Line 40" x1="1.266" fill="none" stroke="#5b5be5" stroke-linecap="round" stroke-miterlimit="10" stroke-width="2.5"/>
          </g>
        </g>
      </g>
    </g>
  </g>
</svg>
