<svg xmlns="http://www.w3.org/2000/svg" width="28.89" height="29.71" viewBox="0 0 28.89 29.71">
  <g id="Group_3544" data-name="Group 3544" transform="translate(0 -0.082)">
    <g id="Group_1560" data-name="Group 1560" transform="translate(0 2.464)">
      <g id="Group_1558" data-name="Group 1558" transform="translate(7.857 4.274)">
        <path id="Path_1184" data-name="Path 1184" d="M31.1,30.688H21.256A1.87,1.87,0,0,1,19.4,28.831V18.556A1.87,1.87,0,0,1,21.256,16.7H31.1a1.87,1.87,0,0,1,1.856,1.856V28.831A1.843,1.843,0,0,1,31.1,30.688Z" transform="translate(-18.882 -16.182)" fill="#19c6c0"/>
        <path id="Path_1185" data-name="Path 1185" d="M30.418,30.567H20.574A2.4,2.4,0,0,1,18.2,28.193V17.874A2.4,2.4,0,0,1,20.574,15.5h9.843a2.4,2.4,0,0,1,2.374,2.374V28.149A2.377,2.377,0,0,1,30.418,30.567ZM20.574,16.579a1.272,1.272,0,0,0-1.3,1.3V28.149a1.272,1.272,0,0,0,1.3,1.3h9.843a1.272,1.272,0,0,0,1.3-1.3V17.874a1.272,1.272,0,0,0-1.3-1.3Z" transform="translate(-18.2 -15.5)" fill="#5e59ed"/>
      </g>
      <path id="Path_1186" data-name="Path 1186" d="M.518,32.928A.525.525,0,0,1,0,32.41V6.118A.525.525,0,0,1,.518,5.6a.557.557,0,0,1,.518.518V32.367A.51.51,0,0,1,.518,32.928Z" transform="translate(0 -5.6)" fill="#5e59ed"/>
      <g id="Group_1559" data-name="Group 1559" transform="translate(0 0.777)">
        <path id="Path_1187" data-name="Path 1187" d="M12.856,21.279h-9.8A1.87,1.87,0,0,1,1.2,19.422V10.356A1.87,1.87,0,0,1,3.056,8.5h9.8a1.87,1.87,0,0,1,1.856,1.856v9.066A1.843,1.843,0,0,1,12.856,21.279Z" transform="translate(-0.682 -8.025)" fill="#86f8d1"/>
        <path id="Path_1188" data-name="Path 1188" d="M12.174,21.215h-9.8A2.4,2.4,0,0,1,0,18.841V9.774A2.4,2.4,0,0,1,2.374,7.4h9.8a2.4,2.4,0,0,1,2.374,2.374v9.066A2.368,2.368,0,0,1,12.174,21.215ZM2.374,8.479a1.272,1.272,0,0,0-1.3,1.3v9.066a1.272,1.272,0,0,0,1.3,1.3h9.8a1.272,1.272,0,0,0,1.3-1.3V9.774a1.272,1.272,0,0,0-1.3-1.3Z" transform="translate(0 -7.4)" fill="#5e59ed"/>
      </g>
      <path id="Path_1189" data-name="Path 1189" d="M21.091,41.745a.49.49,0,0,1-.345-.13.589.589,0,0,1-.086-.777l3.885-4.792a.553.553,0,1,1,.863.691l-3.885,4.792A.478.478,0,0,1,21.091,41.745Z" transform="translate(-11.68 -22.792)" fill="#5e59ed"/>
    </g>
    <g id="Group_1561" data-name="Group 1561" transform="translate(21.967 0.082)">
      <path id="Path_1190" data-name="Path 1190" d="M58.76,14.328a.561.561,0,0,1-.518-.345.525.525,0,0,1,.3-.691l2.374-.95a.533.533,0,1,1,.389.993l-2.374.95A.26.26,0,0,1,58.76,14.328Z" transform="translate(-55.04 -7.024)" fill="#5e59ed"/>
      <path id="Path_1191" data-name="Path 1191" d="M51.408,3.457a.389.389,0,0,1-.216-.043.52.52,0,0,1-.259-.691L51.926.392a.522.522,0,1,1,.95.432l-.993,2.331A.486.486,0,0,1,51.408,3.457Z" transform="translate(-50.882 -0.082)" fill="#5e59ed"/>
      <path id="Path_1192" data-name="Path 1192" d="M61.939,28.319a.389.389,0,0,1-.216-.043l-2.331-.993a.522.522,0,1,1,.432-.95l2.331.993a.52.52,0,0,1,.259.691A.486.486,0,0,1,61.939,28.319Z" transform="translate(-55.542 -14.971)" fill="#5e59ed"/>
    </g>
  </g>
</svg>
