<svg xmlns="http://www.w3.org/2000/svg" width="436.837" height="199.083" viewBox="0 0 436.837 199.083">
  <g id="Group_2518" data-name="Group 2518" transform="translate(43.837 -93.917)">
    <line id="Line_480" data-name="Line 480" x2="395" transform="translate(-4.5 290.5)" fill="#fff" stroke="#5e59ed" stroke-linecap="round" stroke-miterlimit="10" stroke-width="5"/>
    <g id="Group_2212" data-name="Group 2212">
      <g id="Group_1554" data-name="Group 1554" transform="translate(-43.777 214.541)">
        <path id="Path_1178" data-name="Path 1178" d="M132.714,16.172a11.968,11.968,0,0,0-8.77-4.166c-11.4-.438-24.336,0-24.336,0a2.743,2.743,0,0,0,.219,5.481c.219,0,12.935-.438,24.117,0a5.956,5.956,0,0,1,4.823,2.192c2.631,3.069,3.069,8.989,2.631,13.374s-2.192,4.385-3.069,4.385H8.184a2.91,2.91,0,0,1-2.192-.658,2.99,2.99,0,0,1-.438-2.631V31.519a2.666,2.666,0,0,0-2.631-2.631A2.678,2.678,0,0,0,.072,31.3v1.973a8.262,8.262,0,0,0,1.754,6.8,7.937,7.937,0,0,0,6.358,2.85h5.043v3.289A8.262,8.262,0,0,0,14.98,53c1.1,1.315,2.85,2.631,6.358,2.631h12.5a6.069,6.069,0,0,0,3.946-1.315,6.227,6.227,0,0,0,2.192-3.289h37.71a4.849,4.849,0,0,0,2.192,3.289,6.069,6.069,0,0,0,3.946,1.315H96.1A7.856,7.856,0,0,0,102.458,53a8.4,8.4,0,0,0,1.754-6.8V42.919h23.9c4.6,0,7.673-3.289,8.331-9.208C137.1,30.2,137.537,21.653,132.714,16.172ZM98.731,46.866c0,.438.219,1.973-.438,2.631a2.91,2.91,0,0,1-2.192.658H83.384c-.219-.219-.438-.658-.438-1.754V45.769H34.712V48.4c0,1.1-.219,1.754-.438,1.754a1.083,1.083,0,0,1-.658.219H21.338a2.91,2.91,0,0,1-2.192-.658,2.99,2.99,0,0,1-.438-2.631V43.138H98.731v3.727Z" transform="translate(0 14.047)" fill="#5e59ed"/>
        <g id="Group_1554-2" data-name="Group 1554" transform="translate(119.778 33.945)">
          <circle id="Ellipse_272" data-name="Ellipse 272" cx="2.85" cy="2.85" r="2.85" transform="translate(1.096 1.096)" fill="#5e59ed"/>
          <path id="Path_1179" data-name="Path 1179" d="M58.546,23.393a3.946,3.946,0,1,1,3.946-3.946A3.93,3.93,0,0,1,58.546,23.393Zm0-5.7a1.886,1.886,0,0,0-1.754,1.754,1.754,1.754,0,0,0,3.508,0A1.614,1.614,0,0,0,58.546,17.692Z" transform="translate(-54.6 -15.5)" fill="#5e59ed"/>
        </g>
        <g id="Group_1555" data-name="Group 1555" transform="translate(13.139 0.031)">
          <path id="Path_1180" data-name="Path 1180" d="M40.6,1.568C32.7,2.445,25.249,4.637,19.11,9.242a21.852,21.852,0,0,0-4.6,4.385,40.03,40.03,0,0,0-2.85,3.508c-5.7,8.112-4.385,17.1-4.385,26.748,0,5.043,3.727,8.989,8.331,8.989H82.691c4.6,0,8.331-3.946,8.331-8.989V25.466c0-16-15.566-21.486-27.844-23.02A96.036,96.036,0,0,0,40.6,1.568Z" transform="translate(-4.553 1.433)" fill="#86f8d1"/>
          <path id="Path_1181" data-name="Path 1181" d="M84.1,56.966H17.01c-6.139,0-10.962-5.262-10.962-11.62v-4.6c-.219-7.893-.438-16,4.823-23.678a27.138,27.138,0,0,1,3.069-3.946,33.034,33.034,0,0,1,5.043-4.6C24.9,4.128,32.576,1.278,41.784.4a106.3,106.3,0,0,1,23.24.658C84.537,3.69,95.279,12.679,95.279,26.71V45.127C95.06,51.7,90.237,56.966,84.1,56.966ZM49.677,5.444c-2.631,0-5.043.219-7.454.438h0c-8.331.877-14.909,3.289-19.951,7.016a24.628,24.628,0,0,0-4.385,3.946l-2.631,3.289c-4.166,6.139-4.166,12.716-3.946,20.39v4.823c0,3.508,2.412,6.139,5.481,6.139H83.879c3.069,0,5.481-2.85,5.481-6.139V26.93c0-14.032-13.812-18.855-25.432-20.17A84.023,84.023,0,0,0,49.677,5.444ZM42,3.032Z" transform="translate(-5.96 -0.031)" fill="#5e59ed"/>
        </g>
      </g>
      <g id="Group_1644" data-name="Group 1644" transform="translate(-65 -30)">
        <line id="Line_481" data-name="Line 481" x2="3.398" y2="12.837" transform="translate(137.835 202.843) rotate(34)" fill="#fff" stroke="#5e59ed" stroke-linecap="round" stroke-miterlimit="10" stroke-width="2.5"/>
        <line id="Line_482" data-name="Line 482" x1="12.711" y2="3.398" transform="translate(131.371 204.099) rotate(34)" fill="#fff" stroke="#5e59ed" stroke-linecap="round" stroke-miterlimit="10" stroke-width="2.5"/>
        <line id="Line_483" data-name="Line 483" x2="11.326" y2="6.544" transform="translate(132.842 203.27) rotate(34)" fill="#fff" stroke="#5e59ed" stroke-linecap="round" stroke-miterlimit="10" stroke-width="2.5"/>
        <line id="Line_484" data-name="Line 484" x1="6.544" y2="11.326" transform="translate(136.161 202.624) rotate(34)" fill="#fff" stroke="#5e59ed" stroke-linecap="round" stroke-miterlimit="10" stroke-width="2.5"/>
        <line id="Line_485" data-name="Line 485" x2="3.398" y2="12.711" transform="translate(39.224 180.604) rotate(34)" fill="#fff" stroke="#5e59ed" stroke-linecap="round" stroke-miterlimit="10" stroke-width="2.5"/>
        <line id="Line_486" data-name="Line 486" x1="12.711" y2="3.398" transform="translate(32.759 181.861) rotate(34)" fill="#fff" stroke="#5e59ed" stroke-linecap="round" stroke-miterlimit="10" stroke-width="2.5"/>
        <line id="Line_487" data-name="Line 487" x2="11.452" y2="6.544" transform="translate(34.196 180.856) rotate(34)" fill="#fff" stroke="#5e59ed" stroke-linecap="round" stroke-miterlimit="10" stroke-width="2.5"/>
        <line id="Line_488" data-name="Line 488" x1="6.67" y2="11.452" transform="translate(37.515 180.211) rotate(34)" fill="#fff" stroke="#5e59ed" stroke-linecap="round" stroke-miterlimit="10" stroke-width="2.5"/>
        <line id="Line_489" data-name="Line 489" x2="2.219" y2="8.301" transform="translate(274.961 168.841) rotate(34)" fill="#fff" stroke="#5e59ed" stroke-linecap="round" stroke-miterlimit="10" stroke-width="2.5"/>
        <line id="Line_490" data-name="Line 490" x1="8.383" y2="2.219" transform="translate(270.671 169.615) rotate(34)" fill="#fff" stroke="#5e59ed" stroke-linecap="round" stroke-miterlimit="10" stroke-width="2.5"/>
        <line id="Line_491" data-name="Line 491" x2="7.397" y2="4.274" transform="translate(271.632 169.073) rotate(34)" fill="#fff" stroke="#5e59ed" stroke-linecap="round" stroke-miterlimit="10" stroke-width="2.5"/>
        <line id="Line_492" data-name="Line 492" x1="4.274" y2="7.479" transform="translate(273.845 168.584) rotate(34)" fill="#fff" stroke="#5e59ed" stroke-linecap="round" stroke-miterlimit="10" stroke-width="2.5"/>
        <line id="Line_493" data-name="Line 493" y2="1.007" transform="translate(68.744 203.167) rotate(34)" fill="none" stroke="#5e59ed" stroke-linecap="round" stroke-miterlimit="10" stroke-width="2.5"/>
        <line id="Line_494" data-name="Line 494" y2="1.133" transform="translate(66.844 205.984) rotate(34)" fill="none" stroke="#5e59ed" stroke-linecap="round" stroke-miterlimit="10" stroke-width="2.5"/>
        <line id="Line_495" data-name="Line 495" x1="1.133" transform="translate(68.416 205.679) rotate(34)" fill="none" stroke="#5e59ed" stroke-linecap="round" stroke-miterlimit="10" stroke-width="2.5"/>
        <line id="Line_496" data-name="Line 496" x1="1.133" transform="translate(65.495 203.708) rotate(34)" fill="none" stroke="#5e59ed" stroke-linecap="round" stroke-miterlimit="10" stroke-width="2.5"/>
        <line id="Line_497" data-name="Line 497" y2="2.265" transform="translate(266.499 210.345) rotate(34)" fill="none" stroke="#5e59ed" stroke-linecap="round" stroke-miterlimit="10" stroke-width="2.5"/>
        <line id="Line_498" data-name="Line 498" y2="2.265" transform="translate(262.558 216.187) rotate(34)" fill="none" stroke="#5e59ed" stroke-linecap="round" stroke-miterlimit="10" stroke-width="2.5"/>
        <line id="Line_499" data-name="Line 499" x1="2.139" transform="translate(265.878 215.542) rotate(34)" fill="none" stroke="#5e59ed" stroke-linecap="round" stroke-miterlimit="10" stroke-width="2.5"/>
        <line id="Line_500" data-name="Line 500" x1="2.265" transform="translate(260.035 211.601) rotate(34)" fill="none" stroke="#5e59ed" stroke-linecap="round" stroke-miterlimit="10" stroke-width="2.5"/>
        <circle id="Ellipse_263" data-name="Ellipse 263" cx="1.51" cy="1.51" r="1.51" transform="translate(284.923 227.563) rotate(34)" fill="#5e59ed"/>
        <circle id="Ellipse_264" data-name="Ellipse 264" cx="1.51" cy="1.51" r="1.51" transform="translate(183.379 209.317) rotate(34)" fill="#5e59ed"/>
        <circle id="Ellipse_265" data-name="Ellipse 265" cx="1.51" cy="1.51" r="1.51" transform="translate(217.228 210.897) rotate(34)" fill="#5e59ed"/>
        <circle id="Ellipse_266" data-name="Ellipse 266" cx="1.51" cy="1.51" r="1.51" transform="translate(243.483 221.728) rotate(34)" fill="#5e59ed"/>
        <circle id="Ellipse_269" data-name="Ellipse 269" cx="2.566" cy="2.566" r="2.566" transform="translate(149.506 224.805)" fill="#5e59ed"/>
        <path id="Path_1177" data-name="Path 1177" d="M5.44,0A5.44,5.44,0,1,1,0,5.44,5.44,5.44,0,0,1,5.44,0Z" transform="translate(107.302 194.502)" fill="#19c6c0"/>
        <circle id="Ellipse_267" data-name="Ellipse 267" cx="4.231" cy="4.231" r="4.231" transform="translate(78.943 172.517)" fill="#5e59ed"/>
        <circle id="Ellipse_271" data-name="Ellipse 271" cx="2.418" cy="2.418" r="2.418" transform="translate(223.809 124.667)" fill="#fff" stroke="#5b5be5" stroke-linecap="round" stroke-miterlimit="10" stroke-width="1.5"/>
        <path id="Path_1578" data-name="Path 1578" d="M2.418,0A2.418,2.418,0,1,1,0,2.418,2.418,2.418,0,0,1,2.418,0Z" transform="translate(156.809 192.667)" fill="#5e59ed"/>
        <circle id="Ellipse_270" data-name="Ellipse 270" cx="3.231" cy="3.231" r="3.231" transform="translate(92.943 212.517)" fill="#d49496"/>
      </g>
    </g>
  </g>
</svg>
