<svg id="Group_1646" data-name="Group 1646" xmlns="http://www.w3.org/2000/svg" width="70.267" height="14.228" viewBox="0 0 70.267 14.228">
  <path id="Path_1169" data-name="Path 1169" d="M50.162,9.472H39.217A2.662,2.662,0,0,1,36.59,6.846,3.041,3.041,0,0,1,39.217,4H50.162a2.662,2.662,0,0,1,2.627,2.627A2.857,2.857,0,0,1,50.162,9.472Zm-21.89,0H17.327A2.662,2.662,0,0,1,14.7,6.846,3.041,3.041,0,0,1,17.327,4H28.272A2.662,2.662,0,0,1,30.9,6.627,2.857,2.857,0,0,1,28.272,9.472Z" transform="translate(17.478 4.756)" fill="#5e59ed"/>
  <path id="Path_1170" data-name="Path 1170" d="M51,5.472H2.846A2.9,2.9,0,0,1,0,2.627,2.662,2.662,0,0,1,2.627,0H50.785a2.662,2.662,0,0,1,2.627,2.627A2.674,2.674,0,0,1,51,5.472Z" fill="#5e59ed"/>
</svg>
