<svg xmlns="http://www.w3.org/2000/svg" width="259.258" height="107.838" viewBox="0 0 259.258 107.838">
  <g id="Group_1644" data-name="Group 1644" transform="translate(-28.169 -123.917)">
    <line id="Line_481" data-name="Line 481" x2="3.398" y2="12.837" transform="matrix(0.829, 0.559, -0.559, 0.829, 131.835, 204.843)" fill="#fff" stroke="#5e59ed" stroke-linecap="round" stroke-miterlimit="10" stroke-width="2.5"/>
    <line id="Line_482" data-name="Line 482" x1="12.711" y2="3.398" transform="matrix(0.829, 0.559, -0.559, 0.829, 125.371, 206.099)" fill="#fff" stroke="#5e59ed" stroke-linecap="round" stroke-miterlimit="10" stroke-width="2.5"/>
    <line id="Line_483" data-name="Line 483" x2="11.326" y2="6.544" transform="matrix(0.829, 0.559, -0.559, 0.829, 126.842, 205.27)" fill="#fff" stroke="#5e59ed" stroke-linecap="round" stroke-miterlimit="10" stroke-width="2.5"/>
    <line id="Line_484" data-name="Line 484" x1="6.544" y2="11.326" transform="matrix(0.829, 0.559, -0.559, 0.829, 130.161, 204.624)" fill="#fff" stroke="#5e59ed" stroke-linecap="round" stroke-miterlimit="10" stroke-width="2.5"/>
    <line id="Line_485" data-name="Line 485" x2="3.398" y2="12.711" transform="matrix(0.829, 0.559, -0.559, 0.829, 39.224, 180.604)" fill="#fff" stroke="#5e59ed" stroke-linecap="round" stroke-miterlimit="10" stroke-width="2.5"/>
    <line id="Line_486" data-name="Line 486" x1="12.711" y2="3.398" transform="matrix(0.829, 0.559, -0.559, 0.829, 32.759, 181.861)" fill="#fff" stroke="#5e59ed" stroke-linecap="round" stroke-miterlimit="10" stroke-width="2.5"/>
    <line id="Line_487" data-name="Line 487" x2="11.452" y2="6.544" transform="matrix(0.829, 0.559, -0.559, 0.829, 34.196, 180.856)" fill="#fff" stroke="#5e59ed" stroke-linecap="round" stroke-miterlimit="10" stroke-width="2.5"/>
    <line id="Line_488" data-name="Line 488" x1="6.67" y2="11.452" transform="matrix(0.829, 0.559, -0.559, 0.829, 37.515, 180.211)" fill="#fff" stroke="#5e59ed" stroke-linecap="round" stroke-miterlimit="10" stroke-width="2.5"/>
    <line id="Line_489" data-name="Line 489" x2="2.219" y2="8.301" transform="matrix(0.829, 0.559, -0.559, 0.829, 274.961, 168.841)" fill="#fff" stroke="#5e59ed" stroke-linecap="round" stroke-miterlimit="10" stroke-width="2.5"/>
    <line id="Line_490" data-name="Line 490" x1="8.383" y2="2.219" transform="matrix(0.829, 0.559, -0.559, 0.829, 270.671, 169.615)" fill="#fff" stroke="#5e59ed" stroke-linecap="round" stroke-miterlimit="10" stroke-width="2.5"/>
    <line id="Line_491" data-name="Line 491" x2="7.397" y2="4.274" transform="matrix(0.829, 0.559, -0.559, 0.829, 271.632, 169.073)" fill="#fff" stroke="#5e59ed" stroke-linecap="round" stroke-miterlimit="10" stroke-width="2.5"/>
    <line id="Line_492" data-name="Line 492" x1="4.274" y2="7.479" transform="matrix(0.829, 0.559, -0.559, 0.829, 273.845, 168.584)" fill="#fff" stroke="#5e59ed" stroke-linecap="round" stroke-miterlimit="10" stroke-width="2.5"/>
    <line id="Line_493" data-name="Line 493" y2="1.007" transform="matrix(0.829, 0.559, -0.559, 0.829, 68.744, 203.167)" fill="none" stroke="#5e59ed" stroke-linecap="round" stroke-miterlimit="10" stroke-width="2.5"/>
    <line id="Line_494" data-name="Line 494" y2="1.133" transform="matrix(0.829, 0.559, -0.559, 0.829, 66.844, 205.984)" fill="none" stroke="#5e59ed" stroke-linecap="round" stroke-miterlimit="10" stroke-width="2.5"/>
    <line id="Line_495" data-name="Line 495" x1="1.133" transform="matrix(0.829, 0.559, -0.559, 0.829, 68.416, 205.679)" fill="none" stroke="#5e59ed" stroke-linecap="round" stroke-miterlimit="10" stroke-width="2.5"/>
    <line id="Line_496" data-name="Line 496" x1="1.133" transform="matrix(0.829, 0.559, -0.559, 0.829, 65.495, 203.708)" fill="none" stroke="#5e59ed" stroke-linecap="round" stroke-miterlimit="10" stroke-width="2.5"/>
    <line id="Line_497" data-name="Line 497" y2="2.265" transform="matrix(0.829, 0.559, -0.559, 0.829, 266.499, 210.345)" fill="none" stroke="#5e59ed" stroke-linecap="round" stroke-miterlimit="10" stroke-width="2.5"/>
    <line id="Line_498" data-name="Line 498" y2="2.265" transform="matrix(0.829, 0.559, -0.559, 0.829, 262.558, 216.187)" fill="none" stroke="#5e59ed" stroke-linecap="round" stroke-miterlimit="10" stroke-width="2.5"/>
    <line id="Line_499" data-name="Line 499" x1="2.139" transform="matrix(0.829, 0.559, -0.559, 0.829, 265.878, 215.542)" fill="none" stroke="#5e59ed" stroke-linecap="round" stroke-miterlimit="10" stroke-width="2.5"/>
    <line id="Line_500" data-name="Line 500" x1="2.265" transform="matrix(0.829, 0.559, -0.559, 0.829, 260.035, 211.601)" fill="none" stroke="#5e59ed" stroke-linecap="round" stroke-miterlimit="10" stroke-width="2.5"/>
    <circle id="Ellipse_263" data-name="Ellipse 263" cx="1.51" cy="1.51" r="1.51" transform="matrix(0.829, 0.559, -0.559, 0.829, 284.923, 227.563)" fill="#5e59ed"/>
    <circle id="Ellipse_264" data-name="Ellipse 264" cx="1.51" cy="1.51" r="1.51" transform="matrix(0.829, 0.559, -0.559, 0.829, 183.379, 209.317)" fill="#5e59ed"/>
    <circle id="Ellipse_265" data-name="Ellipse 265" cx="1.51" cy="1.51" r="1.51" transform="matrix(0.829, 0.559, -0.559, 0.829, 212.228, 193.897)" fill="#5e59ed"/>
    <circle id="Ellipse_266" data-name="Ellipse 266" cx="1.51" cy="1.51" r="1.51" transform="matrix(0.829, 0.559, -0.559, 0.829, 243.483, 221.728)" fill="#5e59ed"/>
    <circle id="Ellipse_269" data-name="Ellipse 269" cx="2.566" cy="2.566" r="2.566" transform="translate(149.506 224.805)" fill="#5e59ed"/>
    <path id="Path_1177" data-name="Path 1177" d="M5.44,0A5.44,5.44,0,1,1,0,5.44,5.44,5.44,0,0,1,5.44,0Z" transform="translate(114.302 181.502)" fill="#87d5cb"/>
    <path id="Path_1579" data-name="Path 1579" d="M3.623,0A3.623,3.623,0,1,1,0,3.623,3.623,3.623,0,0,1,3.623,0Z" transform="translate(159.302 137.502)" fill="#87d5cb"/>
    <circle id="Ellipse_267" data-name="Ellipse 267" cx="4.231" cy="4.231" r="4.231" transform="translate(78.943 172.517)" fill="#5e59ed"/>
    <circle id="Ellipse_271" data-name="Ellipse 271" cx="2.418" cy="2.418" r="2.418" transform="translate(223.809 124.667)" fill="#fff" stroke="#5b5be5" stroke-linecap="round" stroke-miterlimit="10" stroke-width="1.5"/>
    <circle id="Ellipse_268" data-name="Ellipse 268" cx="2.418" cy="2.418" r="2.418" transform="translate(156.809 192.667)" fill="#fff" stroke="#5b5be5" stroke-linecap="round" stroke-miterlimit="10" stroke-width="1.5"/>
    <circle id="Ellipse_270" data-name="Ellipse 270" cx="3.231" cy="3.231" r="3.231" transform="translate(86.943 212.517)" fill="#d49496"/>
    <circle id="Ellipse_283" data-name="Ellipse 283" cx="3.231" cy="3.231" r="3.231" transform="translate(212.943 166.517)" fill="#d49496"/>
    <circle id="Ellipse_282" data-name="Ellipse 282" cx="3.231" cy="3.231" r="3.231" transform="translate(49.943 141.517)" fill="#d49496"/>
  </g>
</svg>
