<svg xmlns="http://www.w3.org/2000/svg" width="210.87" height="131.604" viewBox="0 0 210.87 131.604">
  <g id="Group_4251" data-name="Group 4251" transform="translate(1779.155 9137.446)">
    <g id="Group_1649" data-name="Group 1649" transform="matrix(0.848, -0.53, 0.53, 0.848, -1787.923, -9083.794)">
      <g id="Group_41" data-name="Group 41" transform="translate(35.747 52.78)">
        <g id="Group_38" data-name="Group 38" transform="translate(2.816 0)">
          <g id="Group_37" data-name="Group 37">
            <line id="Line_37" data-name="Line 37" y2="1.186" fill="none" stroke="#5b5be5" stroke-linecap="round" stroke-miterlimit="10" stroke-width="2.5"/>
            <line id="Line_38" data-name="Line 38" y2="1.334" transform="translate(0 4.002)" fill="none" stroke="#5b5be5" stroke-linecap="round" stroke-miterlimit="10" stroke-width="2.5"/>
          </g>
        </g>
        <g id="Group_40" data-name="Group 40" transform="translate(0 2.668)">
          <g id="Group_39" data-name="Group 39">
            <line id="Line_39" data-name="Line 39" x1="1.334" transform="translate(4.15 0)" fill="none" stroke="#5b5be5" stroke-linecap="round" stroke-miterlimit="10" stroke-width="2.5"/>
            <line id="Line_40" data-name="Line 40" x1="1.334" fill="none" stroke="#5b5be5" stroke-linecap="round" stroke-miterlimit="10" stroke-width="2.5"/>
          </g>
        </g>
      </g>
      <g id="Group_46" data-name="Group 46" transform="translate(90.667 0)">
        <g id="Group_43" data-name="Group 43" transform="translate(5.484 0)">
          <g id="Group_42" data-name="Group 42">
            <line id="Line_41" data-name="Line 41" y2="2.668" fill="none" stroke="#5b5be5" stroke-linecap="round" stroke-miterlimit="10" stroke-width="2.5"/>
            <line id="Line_42" data-name="Line 42" y2="2.668" transform="translate(0 8.301)" fill="none" stroke="#5b5be5" stroke-linecap="round" stroke-miterlimit="10" stroke-width="2.5"/>
          </g>
        </g>
        <g id="Group_45" data-name="Group 45" transform="translate(0 5.484)">
          <g id="Group_44" data-name="Group 44" transform="translate(0 0)">
            <line id="Line_43" data-name="Line 43" x1="2.52" transform="translate(8.301 0)" fill="none" stroke="#5b5be5" stroke-linecap="round" stroke-miterlimit="10" stroke-width="2.5"/>
            <line id="Line_44" data-name="Line 44" x1="2.668" fill="none" stroke="#5b5be5" stroke-linecap="round" stroke-miterlimit="10" stroke-width="2.5"/>
          </g>
        </g>
      </g>
      <g id="Group_47" data-name="Group 47" transform="translate(74.214 24.31)">
        <line id="Line_45" data-name="Line 45" x1="2.965" y2="8.153" transform="translate(21.049 0.593)" fill="none" stroke="#5b5be5" stroke-linecap="round" stroke-miterlimit="10" stroke-width="2.5"/>
        <line id="Line_46" data-name="Line 46" x2="3.706" y2="7.856" fill="none" stroke="#5b5be5" stroke-linecap="round" stroke-miterlimit="10" stroke-width="2.5"/>
        <line id="Line_47" data-name="Line 47" x1="8.004" y2="3.558" transform="translate(34.686 15.712)" fill="none" stroke="#5b5be5" stroke-linecap="round" stroke-miterlimit="10" stroke-width="2.5"/>
      </g>
      <circle id="Ellipse_10" data-name="Ellipse 10" cx="1.779" cy="1.779" r="1.779" transform="translate(115.718 11.265)" fill="#5b5be5"/>
      <circle id="Ellipse_11" data-name="Ellipse 11" cx="1.779" cy="1.779" r="1.779" transform="translate(4.546 60.329)" fill="#5b5be5"/>
      <circle id="Ellipse_12" data-name="Ellipse 12" cx="1.779" cy="1.779" r="1.779" transform="translate(0 88.362)" fill="#5b5be5"/>
      <circle id="Ellipse_13" data-name="Ellipse 13" cx="1.779" cy="1.779" r="1.779" transform="translate(54.944 8.449)" fill="#5b5be5"/>
    </g>
    <g id="Group_50" data-name="Group 50" transform="translate(-1598.781 -9079.444)">
      <line id="Line_51" data-name="Line 51" x1="11.454" y2="4.666" transform="translate(15.696 26.301)" fill="none" stroke="#5b5be5" stroke-linecap="round" stroke-miterlimit="10" stroke-width="2.5"/>
      <line id="Line_52" data-name="Line 52" x1="5.091" y2="11.454" fill="none" stroke="#5b5be5" stroke-linecap="round" stroke-miterlimit="10" stroke-width="2.5"/>
      <line id="Line_53" data-name="Line 53" x1="11.454" y1="5.091" transform="translate(17.393 55.572)" fill="none" stroke="#5b5be5" stroke-linecap="round" stroke-miterlimit="10" stroke-width="2.5"/>
    </g>
    <circle id="Ellipse_276" data-name="Ellipse 276" cx="2.549" cy="2.549" r="2.549" transform="translate(-1760.702 -9136.594)" fill="#fff" stroke="#5b5be5" stroke-linecap="round" stroke-miterlimit="10" stroke-width="1.5"/>
    <circle id="Ellipse_277" data-name="Ellipse 277" cx="2.549" cy="2.549" r="2.549" transform="translate(-1656.35 -9097.594)" fill="#fff" stroke="#5b5be5" stroke-linecap="round" stroke-miterlimit="10" stroke-width="1.5"/>
    <circle id="Ellipse_278" data-name="Ellipse 278" cx="3.406" cy="3.406" r="3.406" transform="translate(-1700.479 -9082.994)" fill="#d49496"/>
    <circle id="Ellipse_285" data-name="Ellipse 285" cx="3.406" cy="3.406" r="3.406" transform="translate(-1764.776 -9043.994)" fill="#d49496"/>
    <path id="Path_1581" data-name="Path 1581" d="M3.819,0A3.819,3.819,0,1,1,0,3.819,3.819,3.819,0,0,1,3.819,0Z" transform="translate(-1629.479 -9083.01)" fill="#87d5cb"/>
    <path id="Path_1582" data-name="Path 1582" d="M3.819,0A3.819,3.819,0,1,1,0,3.819,3.819,3.819,0,0,1,3.819,0Z" transform="translate(-1779.155 -9113.577)" fill="#87d5cb"/>
  </g>
</svg>
