<svg xmlns="http://www.w3.org/2000/svg" width="504.756" height="223.083" viewBox="0 0 504.756 223.083">
  <g id="Group_10288" data-name="Group 10288" transform="translate(-2653.5 -6936.25)">
    <line id="Line_502" data-name="Line 502" x2="393" transform="translate(2656 7156.833)" fill="#fff" stroke="#5e59ed" stroke-linecap="round" stroke-miterlimit="10" stroke-width="5"/>
    <circle id="Ellipse_272" data-name="Ellipse 272" cx="2.85" cy="2.85" r="2.85" transform="translate(2926.989 7111.916)" fill="#5e59ed"/>
    <path id="Path_1179" data-name="Path 1179" d="M58.546,23.393a3.93,3.93,0,1,1,2.795-1.151,3.946,3.946,0,0,1-2.795,1.151Zm0-5.7a1.886,1.886,0,0,0-1.754,1.754,1.754,1.754,0,0,0,3.508,0,1.614,1.614,0,0,0-1.754-1.755Z" transform="translate(2871.293 7095.319)" fill="#5e59ed"/>
    <path id="Path_1169" data-name="Path 1169" d="M50.162,9.472H39.217A2.662,2.662,0,0,1,36.59,6.846,3.041,3.041,0,0,1,39.217,4H50.162a2.662,2.662,0,0,1,2.627,2.627A2.857,2.857,0,0,1,50.162,9.472Zm-21.89,0H17.327A2.662,2.662,0,0,1,14.7,6.846,3.041,3.041,0,0,1,17.327,4H28.272A2.662,2.662,0,0,1,30.9,6.627,2.857,2.857,0,0,1,28.272,9.472Z" transform="translate(2772.978 7067.452)" fill="#5e59ed"/>
    <g id="Group_10287" data-name="Group 10287">
      <path id="Path_1170" data-name="Path 1170" d="M51,5.472H2.846A2.9,2.9,0,0,1,0,2.627,2.662,2.662,0,0,1,2.627,0H50.785a2.662,2.662,0,0,1,2.627,2.627A2.674,2.674,0,0,1,51,5.472Z" transform="translate(2755.5 7062.696)" fill="#5e59ed"/>
    </g>
    <g id="Group_10286" data-name="Group 10286">
      <g id="Group_1652" data-name="Group 1652" transform="translate(2896.5 6836.333)">
        <g id="Group_1649" data-name="Group 1649" transform="matrix(0.848, -0.53, 0.53, 0.848, 21.984, 180.759)">
          <g id="Group_41" data-name="Group 41" transform="translate(33.914 50.073)">
            <g id="Group_38" data-name="Group 38" transform="translate(2.672)">
              <g id="Group_37" data-name="Group 37">
                <line id="Line_37" data-name="Line 37" y2="1.125" fill="none" stroke="#5b5be5" stroke-linecap="round" stroke-miterlimit="10" stroke-width="2.5"/>
                <line id="Line_38" data-name="Line 38" y2="1.266" transform="translate(0 3.797)" fill="none" stroke="#5b5be5" stroke-linecap="round" stroke-miterlimit="10" stroke-width="2.5"/>
              </g>
            </g>
            <g id="Group_40" data-name="Group 40" transform="translate(0 2.531)">
              <g id="Group_39" data-name="Group 39">
                <line id="Line_39" data-name="Line 39" x1="1.266" transform="translate(3.938)" fill="none" stroke="#5b5be5" stroke-linecap="round" stroke-miterlimit="10" stroke-width="2.5"/>
                <line id="Line_40" data-name="Line 40" x1="1.266" fill="none" stroke="#5b5be5" stroke-linecap="round" stroke-miterlimit="10" stroke-width="2.5"/>
              </g>
            </g>
          </g>
          <g id="Group_46" data-name="Group 46" transform="translate(86.018)">
            <g id="Group_43" data-name="Group 43" transform="translate(5.203)">
              <g id="Group_42" data-name="Group 42">
                <line id="Line_41" data-name="Line 41" y2="2.531" fill="none" stroke="#5b5be5" stroke-linecap="round" stroke-miterlimit="10" stroke-width="2.5"/>
                <line id="Line_42" data-name="Line 42" y2="2.531" transform="translate(0 7.875)" fill="none" stroke="#5b5be5" stroke-linecap="round" stroke-miterlimit="10" stroke-width="2.5"/>
              </g>
            </g>
            <g id="Group_45" data-name="Group 45" transform="translate(0 5.203)">
              <g id="Group_44" data-name="Group 44">
                <line id="Line_43" data-name="Line 43" x1="2.391" transform="translate(7.875)" fill="none" stroke="#5b5be5" stroke-linecap="round" stroke-miterlimit="10" stroke-width="2.5"/>
                <line id="Line_44" data-name="Line 44" x1="2.531" fill="none" stroke="#5b5be5" stroke-linecap="round" stroke-miterlimit="10" stroke-width="2.5"/>
              </g>
            </g>
          </g>
          <g id="Group_47" data-name="Group 47" transform="translate(70.408 23.063)">
            <line id="Line_45" data-name="Line 45" x1="2.813" y2="7.735" transform="translate(19.969 0.563)" fill="none" stroke="#5b5be5" stroke-linecap="round" stroke-miterlimit="10" stroke-width="2.5"/>
            <line id="Line_46" data-name="Line 46" x2="3.516" y2="7.453" fill="none" stroke="#5b5be5" stroke-linecap="round" stroke-miterlimit="10" stroke-width="2.5"/>
            <line id="Line_47" data-name="Line 47" x1="7.594" y2="3.375" transform="translate(32.907 14.907)" fill="none" stroke="#5b5be5" stroke-linecap="round" stroke-miterlimit="10" stroke-width="2.5"/>
          </g>
          <circle id="Ellipse_10" data-name="Ellipse 10" cx="1.688" cy="1.688" r="1.688" transform="translate(109.784 10.688)" fill="#5b5be5"/>
          <circle id="Ellipse_11" data-name="Ellipse 11" cx="1.688" cy="1.688" r="1.688" transform="translate(4.313 57.236)" fill="#5b5be5"/>
          <circle id="Ellipse_12" data-name="Ellipse 12" cx="1.688" cy="1.688" r="1.688" transform="translate(0 83.83)" fill="#5b5be5"/>
          <circle id="Ellipse_13" data-name="Ellipse 13" cx="1.688" cy="1.688" r="1.688" transform="translate(52.127 8.016)" fill="#5b5be5"/>
        </g>
        <g id="Group_1650" data-name="Group 1650" transform="translate(101.92 184.885)">
          <g id="Group_49" data-name="Group 49" transform="translate(13.08 11.269)">
            <path id="Path_8" data-name="Path 8" d="M80.533,81.9H34.653A8.717,8.717,0,0,1,26,73.245V25.353A8.717,8.717,0,0,1,34.653,16.7h45.88a8.717,8.717,0,0,1,8.653,8.653V73.245A8.589,8.589,0,0,1,80.533,81.9Z" transform="translate(10.624 3.222)" fill="#19c6c0" stroke="#5e59ed" stroke-linecap="round" stroke-miterlimit="10" stroke-width="5"/>
            <path id="Path_512" data-name="Path 512" d="M0,122.347V0" transform="translate(0.201)" fill="none" stroke="#5e59ed" stroke-linecap="round" stroke-width="5"/>
            <path id="Path_9" data-name="Path 9" d="M62.132,68.064H16.453A8.717,8.717,0,0,1,7.8,59.411V17.153A8.717,8.717,0,0,1,16.453,8.5H62.132a8.717,8.717,0,0,1,8.653,8.653V59.411a8.589,8.589,0,0,1-8.653,8.653Z" transform="translate(-7.8 -5.079)" fill="#86f8d1" stroke="#5e59ed" stroke-miterlimit="10" stroke-width="5"/>
            <line id="Line_50" data-name="Line 50" x1="18.111" y2="22.336" transform="translate(41.453 61.174)" fill="none" stroke="#5e59ed" stroke-linecap="round" stroke-miterlimit="10" stroke-width="5"/>
          </g>
          <g id="Group_50" data-name="Group 50" transform="translate(115.506)">
            <line id="Line_51" data-name="Line 51" x1="10.866" y2="4.427" transform="translate(14.891 24.952)" fill="none" stroke="#5b5be5" stroke-linecap="round" stroke-miterlimit="10" stroke-width="2.5"/>
            <line id="Line_52" data-name="Line 52" x1="4.83" y2="10.866" fill="none" stroke="#5b5be5" stroke-linecap="round" stroke-miterlimit="10" stroke-width="2.5"/>
            <line id="Line_53" data-name="Line 53" x1="10.866" y1="4.83" transform="translate(16.501 52.722)" fill="none" stroke="#5b5be5" stroke-linecap="round" stroke-miterlimit="10" stroke-width="2.5"/>
          </g>
        </g>
        <circle id="Ellipse_273" data-name="Ellipse 273" cx="5.44" cy="5.44" r="5.44" transform="translate(239.302 152.502)" fill="#ebebff" stroke="#5b5be5" stroke-linecap="round" stroke-miterlimit="10" stroke-width="2"/>
        <circle id="Ellipse_274" data-name="Ellipse 274" cx="4.231" cy="4.231" r="4.231" transform="translate(190.943 133.517)" fill="#5e59ed"/>
        <path id="Path_1268" data-name="Path 1268" d="M2.731,0A2.731,2.731,0,1,1,0,2.731,2.731,2.731,0,0,1,2.731,0Z" transform="translate(201.943 184.517)" fill="#ff9194" stroke="#5b5be5" stroke-linecap="round" stroke-width="2"/>
        <circle id="Ellipse_276" data-name="Ellipse 276" cx="2.418" cy="2.418" r="2.418" transform="translate(234.809 100.667)" fill="#fff" stroke="#5b5be5" stroke-linecap="round" stroke-miterlimit="10" stroke-width="1.5"/>
        <circle id="Ellipse_277" data-name="Ellipse 277" cx="2.418" cy="2.418" r="2.418" transform="translate(162.809 167.667)" fill="#fff" stroke="#5b5be5" stroke-linecap="round" stroke-miterlimit="10" stroke-width="1.5"/>
        <circle id="Ellipse_278" data-name="Ellipse 278" cx="3.231" cy="3.231" r="3.231" transform="translate(112.943 181.517)" fill="#d49496"/>
        <circle id="Ellipse_284" data-name="Ellipse 284" cx="3.231" cy="3.231" r="3.231" transform="translate(51.943 205.517)" fill="#d49496"/>
        <g id="Group_1651" data-name="Group 1651" transform="matrix(0.848, -0.53, 0.53, 0.848, 254.279, 186.251)">
          <g id="Group_38-2" data-name="Group 38" transform="translate(2.672)">
            <g id="Group_37-2" data-name="Group 37">
              <line id="Line_37-2" data-name="Line 37" y2="1.125" fill="none" stroke="#5b5be5" stroke-linecap="round" stroke-miterlimit="10" stroke-width="2.5"/>
              <line id="Line_38-2" data-name="Line 38" y2="1.266" transform="translate(0 3.797)" fill="none" stroke="#5b5be5" stroke-linecap="round" stroke-miterlimit="10" stroke-width="2.5"/>
            </g>
          </g>
          <g id="Group_40-2" data-name="Group 40" transform="translate(0 2.531)">
            <g id="Group_39-2" data-name="Group 39">
              <line id="Line_39-2" data-name="Line 39" x1="1.266" transform="translate(3.938)" fill="none" stroke="#5b5be5" stroke-linecap="round" stroke-miterlimit="10" stroke-width="2.5"/>
              <line id="Line_40-2" data-name="Line 40" x1="1.266" fill="none" stroke="#5b5be5" stroke-linecap="round" stroke-miterlimit="10" stroke-width="2.5"/>
            </g>
          </g>
        </g>
      </g>
    </g>
  </g>
</svg>
