<svg xmlns="http://www.w3.org/2000/svg" width="16.391" height="18.68" viewBox="0 0 16.391 18.68">
  <g id="summary" transform="translate(0.5 0.5)">
    <path id="Path_1712" data-name="Path 1712" d="M15.39,16.12a1.6,1.6,0,0,1-1.62,1.56H1.62A1.6,1.6,0,0,1,0,16.12V1.56A1.6,1.6,0,0,1,1.62,0H13.771a1.6,1.6,0,0,1,1.62,1.56Z" fill="#fff" stroke="#5e59ed" stroke-width="1"/>
    <path id="Path_1713" data-name="Path 1713" d="M3.455,9.522h9.091a.527.527,0,0,0,0-1.043H3.455a.527.527,0,0,0,0,1.043Zm0-3.478h9.091A.492.492,0,0,0,13,5.522.492.492,0,0,0,12.545,5H3.455A.492.492,0,0,0,3,5.522.492.492,0,0,0,3.455,6.043Zm0,6.957h9.091a.527.527,0,0,0,0-1.043H3.455a.527.527,0,0,0,0,1.043Z" fill="#5e59ed"/>
  </g>
</svg>
