<svg id="Group_1942" data-name="Group 1942" xmlns="http://www.w3.org/2000/svg" width="31.287" height="16" viewBox="0 0 31.287 16">
  <g id="Group_1865" data-name="Group 1865" transform="translate(0 0)">
    <path id="Path_871" data-name="Path 871" d="M36.339,37.517H33.528a1.8,1.8,0,0,1-1.456-.6,1.923,1.923,0,0,1-.4-1.556V34a.61.61,0,0,1,.6-.6.648.648,0,0,1,.6.6v1.506c0,.1-.05.452.1.6a.666.666,0,0,0,.5.151h2.812a.248.248,0,0,0,.151-.05c.05-.05.1-.151.1-.4v-.6h5.472a.61.61,0,0,1,.6.6.648.648,0,0,1-.6.6H37.745a1.11,1.11,0,0,1-.5.753A1.3,1.3,0,0,1,36.339,37.517Z" transform="translate(-28.577 -21.517)" fill="#261f21"/>
    <path id="Path_872" data-name="Path 872" d="M57.476,37.517a1.39,1.39,0,0,1-.9-.3,1.426,1.426,0,0,1-.5-.753H51.8a.61.61,0,0,1-.6-.6.648.648,0,0,1,.6-.6h5.472v.6c0,.251.05.4.1.4a.094.094,0,0,0,.151,0h2.761a.666.666,0,0,0,.5-.151.685.685,0,0,0,.1-.6V34a.61.61,0,0,1,.6-.6.648.648,0,0,1,.6.6v1.356a1.892,1.892,0,0,1-.4,1.556,1.729,1.729,0,0,1-1.456.6H57.476Z" transform="translate(-38.317 -21.517)" fill="#261f21"/>
    <path id="Path_873" data-name="Path 873" d="M54.89,28.635H27.428a1.8,1.8,0,0,1-1.456-.6,1.923,1.923,0,0,1-.4-1.556v-.452a.61.61,0,0,1,.6-.6.648.648,0,0,1,.6.6v.6c0,.1-.05.452.1.6a.666.666,0,0,0,.5.151H54.89c.151,0,.552,0,.7-1a4.219,4.219,0,0,0-.6-3.063,1.521,1.521,0,0,0-1.1-.5c-2.56-.1-5.472,0-5.523,0a.628.628,0,1,1-.05-1.255c.05,0,3.012-.1,5.573,0a2.741,2.741,0,0,1,2.008.954c1.054,1.255.954,3.213.9,4.016C56.647,27.882,55.945,28.635,54.89,28.635Z" transform="translate(-25.54 -15.597)" fill="#261f21"/>
    <ellipse id="Ellipse_231" data-name="Ellipse 231" cx="0.653" cy="0.653" rx="0.653" ry="0.653" transform="translate(27.694 8.017)" fill="#261f21"/>
    <path id="Path_874" data-name="Path 874" d="M81.1,27.107a.9.9,0,1,1,.9-.9A.933.933,0,0,1,81.1,27.107Zm0-1.356a.4.4,0,1,0,.4.4A.432.432,0,0,0,81.1,25.752Z" transform="translate(-52.757 -17.484)" fill="#1c1719"/>
    <path id="Path_875" data-name="Path 875" d="M40.4,11.108a9.866,9.866,0,0,0-4.92,1.757,5,5,0,0,0-1.054,1,9.168,9.168,0,0,0-.653.8c-1.305,1.858-1,3.916-1,6.125a1.976,1.976,0,0,0,1.908,2.058H50.041A1.976,1.976,0,0,0,51.949,20.8V16.58c0-3.665-3.565-4.92-6.376-5.272A19.6,19.6,0,0,0,40.4,11.108Z" transform="translate(-29.125 -10.37)" fill="#87d5cb"/>
    <path id="Path_876" data-name="Path 876" d="M49.453,22.769H34.09a2.585,2.585,0,0,1-2.51-2.661V19.054c-.05-1.807-.1-3.665,1.1-5.422a11.026,11.026,0,0,1,.7-.9,7.565,7.565,0,0,1,1.155-1.054,10.3,10.3,0,0,1,5.221-1.858,24.342,24.342,0,0,1,5.322.151c4.468.6,6.928,2.661,6.928,5.874v4.217A2.707,2.707,0,0,1,49.453,22.769ZM41.571,11.021c-.6,0-1.155.05-1.707.1h0A9.144,9.144,0,0,0,35.3,12.728a5.64,5.64,0,0,0-1,.9l-.6.753c-.954,1.406-.954,2.912-.9,4.669v1.1a1.314,1.314,0,0,0,1.255,1.406H49.4a1.345,1.345,0,0,0,1.255-1.406V15.891c0-3.213-3.163-4.318-5.824-4.619A18.934,18.934,0,0,0,41.571,11.021Zm-1.757-.552Z" transform="translate(-28.537 -9.731)" fill="#261f21"/>
  </g>
</svg>
