<svg xmlns="http://www.w3.org/2000/svg" width="15" height="18" viewBox="0 0 15 18">
  <path id="Vector-1" d="M0,12.526a2.69,2.69,0,0,0,.875,1.986v1.593A.888.888,0,0,0,1.75,17h.875a.865.865,0,0,0,.619-.262.9.9,0,0,0,.256-.633V15.21h7v.895a.9.9,0,0,0,.256.633.865.865,0,0,0,.619.262h.875a.888.888,0,0,0,.875-.895V14.513A2.691,2.691,0,0,0,14,12.526V3.579C14,.447,10.868,0,7,0S0,.447,0,3.579Zm3.063.895a1.342,1.342,0,1,1,1.313-1.342A1.326,1.326,0,0,1,3.063,13.421Zm7.875,0a1.342,1.342,0,1,1,1.313-1.342A1.326,1.326,0,0,1,10.938,13.421ZM12.25,8.053H1.75V3.579h10.5Z" transform="translate(0.5 0.5)" fill="#fff" stroke="#5e59ed" stroke-width="1"/>
</svg>
