<svg id="Group_1645" data-name="Group 1645" xmlns="http://www.w3.org/2000/svg" width="144.3" height="73.415" viewBox="0 0 144.3 73.415">
  <path id="Path_1178" data-name="Path 1178" d="M139.891,16.407a12.615,12.615,0,0,0-9.244-4.391c-12.017-.462-25.651,0-25.651,0a2.891,2.891,0,0,0,.231,5.777c.231,0,13.635-.462,25.42,0a6.278,6.278,0,0,1,5.084,2.311c2.773,3.235,3.235,9.475,2.773,14.1s-2.311,4.622-3.235,4.622H8.63a3.067,3.067,0,0,1-2.311-.693,3.151,3.151,0,0,1-.462-2.773V32.584a2.81,2.81,0,0,0-2.773-2.773c-1.387,0-3,.924-3,2.542v2.08A8.709,8.709,0,0,0,1.928,41.6a8.366,8.366,0,0,0,6.7,3h5.315v3.466a8.709,8.709,0,0,0,1.849,7.164C16.949,56.618,18.8,58,22.5,58H35.667a6.4,6.4,0,0,0,4.16-1.387,6.564,6.564,0,0,0,2.311-3.466H81.886A5.111,5.111,0,0,0,84.2,56.618,6.4,6.4,0,0,0,88.357,58H101.3c3.7,0,5.777-1.618,6.7-2.773a8.852,8.852,0,0,0,1.849-7.164V44.6h25.189c4.853,0,8.088-3.466,8.782-9.706C144.513,31.2,144.975,22.185,139.891,16.407ZM104.071,48.76c0,.462.231,2.08-.462,2.773a3.067,3.067,0,0,1-2.311.693h-13.4c-.231-.231-.462-.693-.462-1.849V47.6H36.592v2.773c0,1.155-.231,1.849-.462,1.849a1.141,1.141,0,0,1-.693.231H22.5a3.067,3.067,0,0,1-2.311-.693,3.151,3.151,0,0,1-.462-2.773v-4.16h84.349V48.76Z" transform="translate(0.06 15.411)" fill="#5e59ed"/>
  <g id="Group_1554" data-name="Group 1554" transform="translate(126.316 35.747)">
    <circle id="Ellipse_272" data-name="Ellipse 272" cx="3.004" cy="3.004" r="3.004" transform="translate(1.155 1.155)" fill="#5e59ed"/>
    <path id="Path_1179" data-name="Path 1179" d="M58.76,23.819a4.16,4.16,0,1,1,4.16-4.16A4.142,4.142,0,0,1,58.76,23.819Zm0-6.008a1.988,1.988,0,0,0-1.849,1.849,1.849,1.849,0,0,0,3.7,0A1.7,1.7,0,0,0,58.76,17.811Z" transform="translate(-54.6 -15.5)" fill="#5e59ed"/>
  </g>
  <g id="Group_1555" data-name="Group 1555" transform="translate(13.913 0)">
    <path id="Path_1180" data-name="Path 1180" d="M42.4,1.585c-8.319.924-16.177,3.235-22.647,8.088A23.034,23.034,0,0,0,14.9,14.295a42.194,42.194,0,0,0-3,3.7c-6.008,8.55-4.622,18.025-4.622,28.193,0,5.315,3.929,9.475,8.782,9.475H86.775c4.853,0,8.782-4.16,8.782-9.475V26.774c0-16.87-16.408-22.647-29.349-24.265A101.227,101.227,0,0,0,42.4,1.585Z" transform="translate(-4.413 1.578)" fill="#86f8d1"/>
    <path id="Path_1181" data-name="Path 1181" d="M88.322,60.043H17.607C11.136,60.043,6.052,54.5,6.052,47.8V42.942c-.231-8.319-.462-16.87,5.084-24.958a28.6,28.6,0,0,1,3.235-4.16,34.819,34.819,0,0,1,5.315-4.853C25.926,4.35,34.015,1.346,43.721.421a112.044,112.044,0,0,1,24.5.693c20.567,2.773,31.891,12.248,31.891,27.038V47.564C99.876,54.5,94.792,60.043,88.322,60.043ZM52.04,5.736c-2.773,0-5.315.231-7.857.462h0c-8.782.924-15.714,3.466-21.03,7.395a25.959,25.959,0,0,0-4.622,4.16L15.758,21.22c-4.391,6.471-4.391,13.4-4.16,21.492V47.8c0,3.7,2.542,6.471,5.777,6.471H88.091c3.235,0,5.777-3,5.777-6.471V28.384c0-14.79-14.559-19.874-26.807-21.261A88.565,88.565,0,0,0,52.04,5.736ZM43.952,3.194Z" transform="translate(-5.96 -0.031)" fill="#5e59ed"/>
  </g>
</svg>
