<svg id="Group_1940" data-name="Group 1940" xmlns="http://www.w3.org/2000/svg" width="16.028" height="25.732" viewBox="0 0 16.028 25.732">
  <path id="Path_1366" data-name="Path 1366" d="M14.387,38.434H3.023A1.837,1.837,0,0,1,1.2,36.611V24.823A1.837,1.837,0,0,1,3.023,23H14.387a1.837,1.837,0,0,1,1.823,1.823v11.83A1.858,1.858,0,0,1,14.387,38.434Z" transform="translate(-0.691 -13.21)" fill="#d49496"/>
  <path id="Path_1367" data-name="Path 1367" d="M13.7,38.252H2.332A2.353,2.353,0,0,1,0,35.919V24.132A2.353,2.353,0,0,1,2.332,21.8H13.7a2.353,2.353,0,0,1,2.332,2.332v11.83A2.316,2.316,0,0,1,13.7,38.252ZM2.332,22.86A1.249,1.249,0,0,0,1.06,24.132v11.83a1.249,1.249,0,0,0,1.272,1.272H13.7a1.249,1.249,0,0,0,1.272-1.272V24.132A1.249,1.249,0,0,0,13.7,22.86Z" transform="translate(0 -12.519)" fill="#261f21"/>
  <path id="Path_1368" data-name="Path 1368" d="M10.023,33.946a1.823,1.823,0,1,1,1.823-1.823A1.81,1.81,0,0,1,10.023,33.946Zm0-2.586a.763.763,0,1,0,.763.763A.76.76,0,0,0,10.023,31.36Z" transform="translate(-4.723 -17.415)" fill="#261f21"/>
  <path id="Path_1369" data-name="Path 1369" d="M22.823,33.946a1.823,1.823,0,1,1,1.823-1.823A1.837,1.837,0,0,1,22.823,33.946Zm0-2.586a.763.763,0,1,0,.763.763A.76.76,0,0,0,22.823,31.36Z" transform="translate(-12.096 -17.415)" fill="#261f21"/>
  <path id="Path_1370" data-name="Path 1370" d="M15.544,46.892H9.311A1.611,1.611,0,0,1,7.7,45.281v-.17A1.611,1.611,0,0,1,9.311,43.5h6.233a1.611,1.611,0,0,1,1.611,1.611v.17A1.584,1.584,0,0,1,15.544,46.892Z" transform="translate(-4.435 -25.018)" fill="#fff"/>
  <path id="Path_1371" data-name="Path 1371" d="M14.8,46.694H8.562A2.172,2.172,0,0,1,6.4,44.532v-.17A2.172,2.172,0,0,1,8.562,42.2H14.8a2.172,2.172,0,0,1,2.162,2.162v.17A2.172,2.172,0,0,1,14.8,46.694ZM8.562,43.26a1.123,1.123,0,0,0-1.1,1.1v.17a1.123,1.123,0,0,0,1.1,1.1H14.8a1.123,1.123,0,0,0,1.1-1.1v-.17a1.123,1.123,0,0,0-1.1-1.1Z" transform="translate(-3.686 -24.269)" fill="#261f21"/>
  <path id="Path_1372" data-name="Path 1372" d="M16.772,19.692H4.9v-1.4A1.991,1.991,0,0,1,6.893,16.3h7.929a1.991,1.991,0,0,1,1.993,1.993Zm-.509-.551ZM5.918,18.632h9.795v-.339a.941.941,0,0,0-.933-.933H6.85a.941.941,0,0,0-.933.933Z" transform="translate(-2.822 -9.351)" fill="#261f21"/>
  <path id="Path_1373" data-name="Path 1373" d="M25.03,3.6a1.92,1.92,0,0,1-.678-.127,1.7,1.7,0,0,1-.975-.975,1.784,1.784,0,0,1-.042-1.4,1.832,1.832,0,0,1,3.392-.085,1.784,1.784,0,0,1,.042,1.4h0A1.861,1.861,0,0,1,25.03,3.6Zm0-2.586a.4.4,0,0,0-.3.085.827.827,0,0,0-.424.424.724.724,0,0,0,0,.594.7.7,0,0,0,.424.424.8.8,0,0,0,1.018-.424h0a.724.724,0,0,0,0-.594.827.827,0,0,0-.424-.424A.4.4,0,0,0,25.03,1.009Z" transform="translate(-13.37 0.089)" fill="#261f21"/>
  <path id="Path_1374" data-name="Path 1374" d="M21.65,11.3a.382.382,0,0,1-.212-.042.531.531,0,0,1-.3-.678l1.7-4.24a.524.524,0,0,1,.975.382l-1.7,4.24A.46.46,0,0,1,21.65,11.3Z" transform="translate(-12.152 -3.417)" fill="#261f21"/>
  <path id="Path_1375" data-name="Path 1375" d="M7.815,3.653a1.828,1.828,0,0,1-1.7-1.145h0A1.828,1.828,0,0,1,7.136.134a1.856,1.856,0,0,1,2.374,1.06,1.682,1.682,0,0,1-.042,1.357,1.77,1.77,0,0,1-1.018.975A1.7,1.7,0,0,1,7.815,3.653ZM7.094,2.127a.781.781,0,0,0,1.018.424.827.827,0,0,0,.424-.424.724.724,0,0,0,0-.594.7.7,0,0,0-.424-.424.723.723,0,0,0-.594,0A.8.8,0,0,0,7.094,2.127Z" transform="translate(-3.447 0.031)" fill="#261f21"/>
  <path id="Path_1376" data-name="Path 1376" d="M12.369,11.241a.551.551,0,0,1-.509-.339l-1.7-4.24a.606.606,0,0,1,.3-.721.516.516,0,0,1,.678.3l1.7,4.24a.516.516,0,0,1-.3.678A.321.321,0,0,1,12.369,11.241Z" transform="translate(-5.84 -3.36)" fill="#261f21"/>
</svg>
