<svg xmlns="http://www.w3.org/2000/svg" width="17" height="18" viewBox="0 0 17 18">
  <path id="type" d="M2.839,17H13.161A3.088,3.088,0,0,0,16,13.722V6.7a3.084,3.084,0,0,0-2.839-3.278h-.79V2.086A1.964,1.964,0,0,0,10.565,0H5.435A1.964,1.964,0,0,0,3.628,2.086V3.421h-.79A3.084,3.084,0,0,0,0,6.7v7.022A3.088,3.088,0,0,0,2.839,17ZM13.445,5.245A1.465,1.465,0,0,1,14.452,6.7v7.022a1.465,1.465,0,0,1-1.006,1.454ZM5.177,2.086a.277.277,0,0,1,.258-.3h5.13a.277.277,0,0,1,.258.3V3.421H5.177ZM1.548,6.7A1.465,1.465,0,0,1,2.555,5.245v9.931a1.465,1.465,0,0,1-1.006-1.454Z" transform="translate(0.5 0.5)" fill="none" stroke="#5e59ed" stroke-width="1"/>
</svg>
