<svg id="Group_1963" data-name="Group 1963" xmlns="http://www.w3.org/2000/svg" width="16.001" height="16.452" viewBox="0 0 16.001 16.452">
  <path id="Path_935" data-name="Path 935" d="M14.1,16.452H1.9a1.922,1.922,0,0,1-1.9-1.9V1.9A1.922,1.922,0,0,1,1.9,0H14.1A1.922,1.922,0,0,1,16,1.9V14.547A1.9,1.9,0,0,1,14.1,16.452ZM1.9.866A1.021,1.021,0,0,0,.866,1.9V14.547A1.021,1.021,0,0,0,1.9,15.586H14.1a1.021,1.021,0,0,0,1.039-1.039V1.9A1.021,1.021,0,0,0,14.1.866Z" transform="translate(0 0)" fill="#5e59ed"/>
  <path id="Path_936" data-name="Path 936" d="M20.616,18.4a1.316,1.316,0,1,0,1.316,1.316A1.316,1.316,0,0,0,20.616,18.4Z" transform="translate(-12.615 -12.027)" fill="#5e59ed"/>
  <path id="Path_937" data-name="Path 937" d="M19.832,20.663A1.737,1.737,0,0,1,18.1,18.932a1.732,1.732,0,1,1,3.463,0A1.737,1.737,0,0,1,19.832,20.663Zm0-2.632a.866.866,0,1,0,.866.866A.857.857,0,0,0,19.832,18.031Z" transform="translate(-11.831 -11.243)" fill="#5e59ed"/>
  <path id="Path_938" data-name="Path 938" d="M18.876,31.3H15.689A1.5,1.5,0,0,0,14.2,32.789V36.5h6.13V32.789A1.471,1.471,0,0,0,18.876,31.3Z" transform="translate(-9.282 -20.459)" fill="#5e59ed"/>
  <path id="Path_939" data-name="Path 939" d="M20,36.061H13V31.9A1.922,1.922,0,0,1,14.9,30h3.186A1.922,1.922,0,0,1,20,31.9Zm-6.13-.866H19.13V31.9a1.021,1.021,0,0,0-1.039-1.039H14.9A1.021,1.021,0,0,0,13.866,31.9Z" transform="translate(-8.497 -19.61)" fill="#5e59ed"/>
</svg>
