<svg xmlns="http://www.w3.org/2000/svg" width="16" height="16" viewBox="0 0 16 16">
  <g id="Icon_awesome-user-alt" data-name="Icon awesome-user-alt" fill="none">
    <path d="M8,9A4.5,4.5,0,1,0,3.5,4.5,4.5,4.5,0,0,0,8,9Zm4,1H10.278a5.44,5.44,0,0,1-4.556,0H4a4,4,0,0,0-4,4v.5A1.5,1.5,0,0,0,1.5,16h13A1.5,1.5,0,0,0,16,14.5V14A4,4,0,0,0,12,10Z" stroke="none"/>
    <path d="M 14.5 15 C 14.77569961547852 15 15 14.77569961547852 15 14.5 L 15 14 C 15 12.34578990936279 13.65421009063721 11 12 11 L 10.48757934570312 11 C 9.694892883300781 11.33190250396729 8.859175682067871 11.5 8 11.5 C 7.143851757049561 11.5 6.308347225189209 11.33189105987549 5.513139724731445 11 L 4 11 C 2.345789909362793 11 1 12.34578990936279 1 14 L 1 14.5 C 1 14.77569961547852 1.224300026893616 15 1.5 15 L 14.5 15 M 8 8 C 9.929909706115723 8 11.5 6.429910182952881 11.5 4.5 C 11.5 2.570090055465698 9.929909706115723 1 8 1 C 6.070089817047119 1 4.5 2.570090055465698 4.5 4.5 C 4.5 6.429910182952881 6.070089817047119 8 8 8 M 14.5 16 L 1.5 16 C 0.6718800067901611 16 0 15.32812976837158 0 14.5 L 0 14 C 0 11.79061985015869 1.790619969367981 10 4 10 L 5.721879959106445 10 C 6.418749809265137 10.31875038146973 7.1875 10.5 8 10.5 C 8.8125 10.5 9.584380149841309 10.31875038146973 10.27812004089355 10 L 12 10 C 14.20936965942383 10 16 11.79061985015869 16 14 L 16 14.5 C 16 15.32812976837158 15.32812976837158 16 14.5 16 Z M 8 9 C 5.515629768371582 9 3.5 6.984379768371582 3.5 4.5 C 3.5 2.015630006790161 5.515629768371582 0 8 0 C 10.48437976837158 0 12.5 2.015630006790161 12.5 4.5 C 12.5 6.984379768371582 10.48437976837158 9 8 9 Z" stroke="none" fill="#5e59ed"/>
  </g>
</svg>
